<svg width="259" height="173" viewBox="0 0 259 173" fill="none" xmlns="http://www.w3.org/2000/svg">
<path d="M257.207 145.774C257.207 145.774 250.911 158.238 239.715 155.58C228.519 152.922 227.403 150.819 227.403 150.819L223.66 155.477C223.66 155.477 236.289 162.238 243.915 160.486C251.541 158.734 256.997 153.062 257.207 145.778V145.774Z" fill="#E4E4E4"/>
<path d="M249.51 125.881C249.51 125.881 255.47 118.537 256.543 107.918C258.093 92.5658 251.834 72.2009 222.717 72.6541C222.717 72.6541 230.726 51.3969 197.357 43.4173C192.741 42.3147 189.815 44.3283 182.978 45.4121C182.978 45.4121 163.703 -11.6927 119.386 3.60319C80.6267 16.9789 86.6471 41.8428 86.6471 41.8428C86.6471 41.8428 69.6547 31.6908 56.9139 45.9027C47.748 56.1295 53.9037 71.2525 53.9037 71.2525C53.9037 71.2525 30.8162 77.9754 27.4607 89.7393C24.1005 101.503 29.0708 113.132 29.0708 113.132C29.0708 113.132 -7.79825 119.574 5.21326 143.527C18.2247 167.48 48.028 148.568 48.028 148.568C48.028 148.568 60.1994 162.434 72.7956 162.014C85.387 161.593 95.253 152.978 95.253 152.978C95.253 152.978 109.735 165.373 121.066 164.111C132.397 162.85 144.153 154.866 144.153 154.866C144.153 154.866 162.621 174.614 189.488 170.414C216.351 166.214 221.812 155.286 221.812 155.286C221.812 155.286 244.479 166.63 253.715 154.445C262.951 142.261 249.519 125.872 249.519 125.872L249.51 125.881Z" fill="white"/>
<path d="M227.963 149.695C227.963 149.695 201.744 171.704 175.352 167.205C149.889 162.865 137.713 142.412 137.713 142.412C137.713 142.412 145.078 156.278 154.015 162.37C163.671 168.953 181.195 172.971 194.17 170.004C207.041 167.061 211.241 166.014 216.977 161.739C223.908 156.581 227.613 150.816 227.958 149.695H227.963Z" fill="#E4E4E4"/>
<path d="M141.319 149.732C141.319 149.732 108.263 153.83 103.648 133.451C103.648 133.451 74.9255 156.081 65.2384 127.148C59.3627 99.6261 79.3 96.052 79.3 96.052C79.3 96.052 66.0785 99.1355 62.1583 106.84C62.1583 106.84 49.9868 109.783 43.8311 95.0756C37.6754 80.3685 54.0471 70.9826 54.0471 70.9826C54.0471 70.9826 39.5795 72.5617 32.4997 81.6299C26.484 89.3338 22.7037 95.7764 28.5841 111.745L29.3542 113.497C29.3542 113.497 15.3626 115.95 10.537 120.01C5.71136 124.07 0.461014 128.975 2.42114 137.029C4.38126 145.084 8.8569 151.456 11.9371 152.998C15.0173 154.54 21.733 156.848 27.3987 156.081C33.0644 155.315 39.2902 153.489 41.5303 152.232C43.7705 150.975 48.036 148.592 48.036 148.592C48.036 148.592 55.8719 156.086 60.1375 158.188C64.4031 160.291 73.0789 163.159 78.8146 160.922C84.5503 158.679 86.3705 159.17 88.9607 157.348C91.5508 155.526 95.0463 152.587 95.0463 152.587C95.0463 152.587 102.812 160.992 107.428 162.183C112.043 163.374 119.809 166.383 127.715 163.514C135.621 160.641 143.037 155.811 144.507 153.848" fill="#E4E4E4"/>
<path d="M144.712 70.9765C144.712 70.9765 158.442 83.1094 154.802 93.4764C154.802 93.4764 163.039 88.4868 164.089 88.1691C165.14 87.8514 161.863 78.2786 158.424 75.5129C155.222 72.9386 152.809 71.4156 150.238 71.0465C147.666 70.6774 144.712 70.9765 144.712 70.9765Z" fill="#E4E4E4"/>
<path d="M33.7571 120.317C33.7571 120.317 8.88685 120.527 2.27377 131.66C2.27377 131.66 3.11381 127.983 4.47656 125.881C5.83931 123.779 6.18931 123.148 8.35945 121.574C10.5296 119.999 13.7124 117.897 13.7124 117.897L19.3781 116.005C19.3781 116.005 22.7384 114.953 23.7838 114.743C24.8292 114.533 25.9866 113.692 26.7239 113.902C27.4613 114.113 29.3468 113.482 29.3468 113.482L33.7524 120.312L33.7571 120.317Z" fill="white"/>
<path d="M244.683 131.767C245.313 131.137 262.94 114.327 254.129 91.4301C245.313 68.5283 216.56 68.9488 213.414 79.8764" stroke="black" stroke-width="3" stroke-linecap="round" stroke-linejoin="round"/>
<path d="M171.855 52.9764C171.855 52.9764 186.127 36.3771 207.744 46.674C229.361 56.9709 222.226 73.3553 222.226 73.3553" stroke="black" stroke-width="3" stroke-linecap="round" stroke-linejoin="round"/>
<path d="M94.2026 45.8327C94.2026 45.8327 75.1054 32.8074 61.6739 41.8429C48.2424 50.8783 51.3879 68.9446 56.8482 76.5084" stroke="black" stroke-width="3" stroke-linecap="round" stroke-linejoin="round"/>
<path d="M34.3861 121.471C33.546 120.84 19.4845 102.563 28.9304 86.5948C38.3764 70.6262 53.8193 70.9252 53.8193 70.9252" stroke="black" stroke-width="3" stroke-linecap="round" stroke-linejoin="round"/>
<path d="M100.078 147.941C99.4481 147.941 87.4867 163.91 69.6449 161.387C51.8031 158.864 43.4119 141.639 43.4119 141.639" stroke="black" stroke-width="3" stroke-linecap="round" stroke-linejoin="round"/>
<path d="M29.1391 113.486C29.1391 113.486 -6.11986 117.896 3.7461 141.849C13.6121 165.802 39.7844 154.8 47.7603 148.707" stroke="black" stroke-width="3" stroke-linecap="round" stroke-linejoin="round"/>
<path d="M137.437 142.061C137.437 142.061 148.348 171.475 184.242 170.844C220.131 170.214 228.317 148.573 228.317 148.573" stroke="black" stroke-width="3" stroke-linecap="round" stroke-linejoin="round"/>
<path d="M249.719 126.721C249.719 126.721 262.941 139.957 254.335 153.823C245.729 167.689 224.111 155.925 224.111 155.925" stroke="black" stroke-width="3" stroke-linecap="round" stroke-linejoin="round"/>
<path d="M219.713 134.496C219.713 134.496 227.651 91.9025 190.54 86.1748C153.811 80.5031 144.365 107.395 144.365 107.395" stroke="black" stroke-width="3" stroke-linecap="round" stroke-linejoin="round"/>
<path d="M109.944 109.495C109.944 109.495 90.4458 89.1067 72.3753 98.1516C54.7435 106.977 58.1037 124.833 58.1037 124.833" stroke="black" stroke-width="3" stroke-linecap="round" stroke-linejoin="round"/>
<path d="M141.215 84.2826C141.215 84.2826 121.17 50.9485 95.4597 65.1651C73.4223 77.3494 79.928 95.8409 79.928 95.8409" stroke="black" stroke-width="3" stroke-linecap="round" stroke-linejoin="round"/>
<path d="M164.3 88.2778C164.3 88.2778 162.83 74.6218 151.919 71.4682C141.007 68.3147 135.127 76.0888 135.127 76.0888" stroke="black" stroke-width="3" stroke-linecap="round" stroke-linejoin="round"/>
<path d="M182.981 45.4118C182.981 45.4118 169.97 1.92094 134.921 1.50046C99.8719 1.07999 84.1302 27.5511 86.2304 41.6275" stroke="black" stroke-width="3" stroke-linecap="round" stroke-linejoin="round"/>
<path d="M144.573 153.824C144.573 153.824 118.55 179.038 95.2523 152.983" stroke="black" stroke-width="3" stroke-linecap="round" stroke-linejoin="round"/>
</svg>
