<svg width="216" height="145" viewBox="0 0 216 145" fill="none" xmlns="http://www.w3.org/2000/svg">
<path d="M2.03174 122.245C2.03174 122.245 7.26081 132.598 16.56 130.39C25.8591 128.182 26.7855 126.436 26.7855 126.436L29.8943 130.305C29.8943 130.305 19.4051 135.92 13.0713 134.465C6.73751 133.01 2.20617 128.299 2.03174 122.249V122.245Z" fill="#D6D6D6"/>
<path d="M8.4242 105.723C8.4242 105.723 3.47421 99.6232 2.58267 90.8031C1.29575 78.0522 6.49383 61.1377 30.6778 61.5141C30.6778 61.5141 24.0261 43.8584 51.7414 37.2307C55.575 36.3149 58.0055 37.9874 63.6842 38.8876C63.6842 38.8876 79.6931 -8.5422 116.502 4.16215C148.694 15.2717 143.694 35.923 143.694 35.923C143.694 35.923 157.808 27.491 168.39 39.2951C176.003 47.7892 170.89 60.3499 170.89 60.3499C170.89 60.3499 190.066 65.9338 192.853 75.7046C195.644 85.4754 191.516 95.1336 191.516 95.1336C191.516 95.1336 222.138 100.485 211.331 120.379C200.524 140.274 175.77 124.566 175.77 124.566C175.77 124.566 165.661 136.083 155.199 135.734C144.741 135.385 136.546 128.229 136.546 128.229C136.546 128.229 124.518 138.524 115.107 137.476C105.695 136.429 95.9308 129.797 95.9308 129.797C95.9308 129.797 80.5924 146.199 58.2768 142.711C35.965 139.222 31.4298 130.146 31.4298 130.146C31.4298 130.146 12.6028 139.568 4.93168 129.448C-2.73944 119.328 8.41644 105.715 8.41644 105.715L8.4242 105.723Z" fill="white"/>
<path d="M26.3206 125.502C26.3206 125.502 48.0974 143.783 70.0177 140.046C91.1665 136.441 101.28 119.453 101.28 119.453C101.28 119.453 95.163 130.97 87.7399 136.03C79.7199 141.497 65.1646 144.834 54.3886 142.37C43.6978 139.926 40.2092 139.056 35.4453 135.506C29.689 131.222 26.6113 126.434 26.3244 125.502H26.3206Z" fill="#D6D6D6"/>
<path d="M98.2849 125.533C98.2849 125.533 125.74 128.936 129.574 112.01C129.574 112.01 153.43 130.807 161.476 106.776C166.356 83.9163 149.797 80.9478 149.797 80.9478C149.797 80.9478 160.778 83.5089 164.034 89.9076C164.034 89.9076 174.143 92.3523 179.256 80.1368C184.369 67.9214 170.771 60.1258 170.771 60.1258C170.771 60.1258 182.787 61.4373 188.668 68.9691C193.664 75.3679 196.804 80.7189 191.92 93.982L191.28 95.4372C191.28 95.4372 202.901 97.4744 206.909 100.846C210.917 104.218 215.278 108.293 213.65 114.983C212.022 121.672 208.305 126.965 205.747 128.246C203.188 129.526 197.61 131.443 192.904 130.807C188.199 130.17 183.028 128.653 181.167 127.609C179.307 126.565 175.764 124.587 175.764 124.587C175.764 124.587 169.255 130.811 165.712 132.557C162.17 134.303 154.964 136.686 150.2 134.827C145.436 132.964 143.924 133.372 141.773 131.858C139.621 130.345 136.718 127.904 136.718 127.904C136.718 127.904 130.268 134.885 126.434 135.875C122.601 136.864 116.151 139.363 109.584 136.98C103.018 134.594 96.8585 130.582 95.6375 128.952" fill="#D6D6D6"/>
<path d="M95.4666 60.1206C95.4666 60.1206 84.0626 70.198 87.0861 78.8085C87.0861 78.8085 80.2445 74.6643 79.3723 74.4004C78.5002 74.1365 81.2213 66.1856 84.0781 63.8885C86.7372 61.7504 88.7413 60.4854 90.8771 60.1788C93.0129 59.8723 95.4666 60.1206 95.4666 60.1206Z" fill="#D6D6D6"/>
<path d="M85.8228 7.88702C85.8228 7.88702 106.972 3.93294 120.918 14.1694C134.865 24.4058 139.862 37.6689 139.862 37.6689L144.16 35.5735C144.16 35.5735 144.478 29.1592 142.3 24.9296C140.121 20.7 136.679 15.2442 134.935 14.0219C133.191 12.7996 126.962 7.60763 122.473 5.90803C117.984 4.20843 109.964 2.24496 106.786 2.33033C103.607 2.41569 98.6377 2.63688 96.1104 3.28878C93.583 3.94068 92.1023 4.5111 90.9239 5.07764C89.7455 5.64417 88.3075 6.2107 87.8733 6.43188C87.4392 6.65306 85.8266 7.88702 85.8266 7.88702H85.8228Z" fill="#D6D6D6"/>
<path d="M187.623 101.102C187.623 101.102 208.28 101.276 213.772 110.523C213.772 110.523 213.075 107.469 211.943 105.723C210.811 103.977 210.52 103.453 208.718 102.145C206.915 100.838 204.272 99.0916 204.272 99.0916L199.566 97.52C199.566 97.52 196.775 96.6469 195.907 96.4723C195.038 96.2977 194.077 95.5992 193.465 95.7739C192.852 95.9485 191.286 95.4246 191.286 95.4246L187.627 101.098L187.623 101.102Z" fill="white"/>
<path d="M12.4341 110.612C11.9108 110.088 -2.72985 96.1266 4.58853 77.1089C11.9108 58.0873 35.7924 58.4366 38.405 67.5128" stroke="black" stroke-width="3" stroke-linecap="round" stroke-linejoin="round"/>
<path d="M72.9229 45.1704C72.9229 45.1704 61.0693 31.3834 43.1144 39.9358C25.1596 48.4881 31.0864 62.0966 31.0864 62.0966" stroke="black" stroke-width="3" stroke-linecap="round" stroke-linejoin="round"/>
<path d="M137.419 39.2368C137.419 39.2368 153.281 28.4184 164.437 35.923C175.592 43.4276 172.98 58.433 168.445 64.7154" stroke="black" stroke-width="3" stroke-linecap="round" stroke-linejoin="round"/>
<path d="M187.101 102.06C187.799 101.536 199.478 86.356 191.633 73.0929C183.787 59.8298 170.96 60.0781 170.96 60.0781" stroke="black" stroke-width="3" stroke-linecap="round" stroke-linejoin="round"/>
<path d="M132.539 124.046C133.062 124.046 142.997 137.309 157.816 135.213C172.635 133.118 179.605 118.811 179.605 118.811" stroke="black" stroke-width="3" stroke-linecap="round" stroke-linejoin="round"/>
<path d="M191.459 95.4279C191.459 95.4279 220.744 99.0909 212.55 118.986C204.356 138.88 182.617 129.742 175.993 124.682" stroke="black" stroke-width="3" stroke-linecap="round" stroke-linejoin="round"/>
<path d="M101.509 119.161C101.509 119.161 92.4466 143.592 62.6343 143.068C32.8258 142.545 26.0269 124.571 26.0269 124.571" stroke="black" stroke-width="3" stroke-linecap="round" stroke-linejoin="round"/>
<path d="M8.25074 106.421C8.25074 106.421 -2.73068 117.414 4.41714 128.931C11.565 140.448 29.5198 130.677 29.5198 130.677" stroke="black" stroke-width="3" stroke-linecap="round" stroke-linejoin="round"/>
<path d="M33.1735 112.879C33.1735 112.879 26.58 77.5013 57.404 72.744C87.9102 68.0332 95.7557 90.3686 95.7557 90.3686" stroke="black" stroke-width="3" stroke-linecap="round" stroke-linejoin="round"/>
<path d="M124.344 92.1131C124.344 92.1131 140.539 75.1792 155.548 82.6916C170.193 90.0216 167.402 104.852 167.402 104.852" stroke="black" stroke-width="3" stroke-linecap="round" stroke-linejoin="round"/>
<path d="M98.3721 71.1722C98.3721 71.1722 115.021 43.4858 136.375 55.2938C154.679 65.4138 149.275 80.7723 149.275 80.7723" stroke="black" stroke-width="3" stroke-linecap="round" stroke-linejoin="round"/>
<path d="M79.1978 74.4906C79.1978 74.4906 80.4188 63.1483 89.4815 60.529C98.5442 57.9098 103.428 64.3667 103.428 64.3667" stroke="black" stroke-width="3" stroke-linecap="round" stroke-linejoin="round"/>
<path d="M63.6816 38.8873C63.6816 38.8873 74.4887 2.7649 103.599 2.41567C132.71 2.06644 145.785 24.0526 144.04 35.7442" stroke="black" stroke-width="3" stroke-linecap="round" stroke-linejoin="round"/>
<path d="M95.5825 128.932C95.5825 128.932 117.197 149.874 136.547 128.233" stroke="black" stroke-width="3" stroke-linecap="round" stroke-linejoin="round"/>
</svg>
