<svg width="389" height="259" viewBox="0 0 389 259" fill="none" xmlns="http://www.w3.org/2000/svg">
<path d="M2.05786 219.37C2.05786 219.37 11.554 238.171 28.4417 234.162C45.3293 230.152 47.0117 226.981 47.0117 226.981L52.6573 234.007C52.6573 234.007 33.6086 244.204 22.1062 241.561C10.6037 238.918 2.37464 230.363 2.05786 219.377V219.37Z" fill="#AAAAAA"/>
<path d="M13.6668 189.365C13.6668 189.365 4.67744 178.287 3.05837 162.27C0.721279 139.114 10.1612 108.396 54.0802 109.08C54.0802 109.08 42.0005 77.0164 92.3325 64.9803C99.2945 63.3172 103.708 66.3544 114.021 67.9893C114.021 67.9893 143.094 -18.145 209.94 4.92654C268.403 25.1018 259.322 62.6055 259.322 62.6055C259.322 62.6055 284.953 47.2926 304.17 68.7292C317.996 84.1549 308.711 106.966 308.711 106.966C308.711 106.966 343.535 117.106 348.596 134.85C353.665 152.594 346.168 170.134 346.168 170.134C346.168 170.134 401.779 179.852 382.153 215.981C362.527 252.111 317.573 223.585 317.573 223.585C317.573 223.585 299.215 244.5 280.215 243.866C261.223 243.232 246.341 230.237 246.341 230.237C246.341 230.237 224.498 248.933 207.406 247.03C190.314 245.127 172.582 233.084 172.582 233.084C172.582 233.084 144.727 262.871 104.201 256.536C63.682 250.201 55.4459 233.718 55.4459 233.718C55.4459 233.718 21.2553 250.828 7.32427 232.45C-6.60678 214.072 13.6527 189.351 13.6527 189.351L13.6668 189.365Z" fill="white"/>
<path d="M46.167 225.285C46.167 225.285 85.7146 258.483 125.523 251.697C163.93 245.15 182.296 214.299 182.296 214.299C182.296 214.299 171.187 235.214 157.707 244.403C143.142 254.332 116.709 260.392 97.1396 255.918C77.7248 251.478 71.3893 249.9 62.7379 243.452C52.2843 235.672 46.695 226.976 46.174 225.285H46.167Z" fill="#AAAAAA"/>
<path d="M176.857 225.341C176.857 225.341 226.717 231.521 233.679 200.783C233.679 200.783 277.002 234.918 291.614 191.277C300.477 149.763 270.404 144.372 270.404 144.372C270.404 144.372 290.347 149.023 296.26 160.644C296.26 160.644 314.619 165.083 323.904 142.9C333.189 120.716 308.494 106.559 308.494 106.559C308.494 106.559 330.317 108.94 340.996 122.619C350.069 134.239 355.771 143.957 346.902 168.043L345.74 170.685C345.74 170.685 366.844 174.385 374.123 180.509C381.402 186.633 389.321 194.032 386.365 206.181C383.408 218.33 376.657 227.942 372.011 230.267C367.365 232.593 357.236 236.074 348.69 234.918C340.144 233.762 330.753 231.007 327.374 229.111C323.995 227.216 317.561 223.622 317.561 223.622C317.561 223.622 305.742 234.925 299.308 238.096C292.874 241.267 279.788 245.594 271.136 242.219C262.485 238.836 259.739 239.576 255.832 236.828C251.926 234.079 246.653 229.647 246.653 229.647C246.653 229.647 234.939 242.324 227.977 244.121C221.015 245.918 209.302 250.456 197.377 246.13C185.452 241.796 174.266 234.509 172.049 231.55" fill="#AAAAAA"/>
<path d="M171.739 106.549C171.739 106.549 151.029 124.85 156.52 140.487C156.52 140.487 144.095 132.961 142.511 132.482C140.927 132.003 145.869 117.564 151.057 113.392C155.886 109.509 159.525 107.212 163.404 106.655C167.283 106.098 171.739 106.549 171.739 106.549Z" fill="#AAAAAA"/>
<path d="M154.225 11.691C154.225 11.691 192.632 4.51025 217.96 23.1C243.288 41.6897 252.362 65.776 252.362 65.776L260.169 61.9707C260.169 61.9707 260.746 50.3222 256.79 42.641C252.834 34.9599 246.583 25.052 243.415 22.8322C240.247 20.6124 228.935 11.1836 220.783 8.0971C212.631 5.01056 198.067 1.44482 192.294 1.59985C186.522 1.75489 177.498 2.15656 172.908 3.34044C168.318 4.52432 165.629 5.56023 163.489 6.58907C161.349 7.61792 158.737 8.64676 157.949 9.04844C157.161 9.45011 154.232 11.691 154.232 11.691H154.225Z" fill="#AAAAAA"/>
<path d="M339.098 180.972C339.098 180.972 376.612 181.289 386.586 198.082C386.586 198.082 385.319 192.536 383.264 189.365C381.208 186.194 380.68 185.243 377.407 182.868C374.134 180.493 369.333 177.322 369.333 177.322L360.787 174.468C360.787 174.468 355.718 172.883 354.142 172.565C352.565 172.248 350.819 170.98 349.707 171.297C348.595 171.614 345.751 170.663 345.751 170.663L339.105 180.965L339.098 180.972Z" fill="white"/>
<path d="M20.9484 198.244C19.9981 197.292 -6.58987 171.938 6.70059 137.401C19.9981 102.857 63.3681 103.491 68.1126 119.974" stroke="black" stroke-width="3" stroke-linecap="round" stroke-linejoin="round"/>
<path d="M130.799 79.3991C130.799 79.3991 109.272 54.3614 76.6653 69.8928C44.0586 85.4242 54.8219 110.138 54.8219 110.138" stroke="black" stroke-width="3" stroke-linecap="round" stroke-linejoin="round"/>
<path d="M247.926 68.6235C247.926 68.6235 276.731 48.9767 296.991 62.6054C317.25 76.2342 312.506 103.484 304.27 114.893" stroke="black" stroke-width="3" stroke-linecap="round" stroke-linejoin="round"/>
<path d="M338.151 182.713C339.418 181.761 360.627 154.194 346.38 130.107C332.132 106.021 308.838 106.472 308.838 106.472" stroke="black" stroke-width="3" stroke-linecap="round" stroke-linejoin="round"/>
<path d="M239.064 222.64C240.014 222.64 258.056 246.726 284.968 242.921C311.88 239.115 324.537 213.133 324.537 213.133" stroke="black" stroke-width="3" stroke-linecap="round" stroke-linejoin="round"/>
<path d="M346.065 170.669C346.065 170.669 399.248 177.321 384.367 213.45C369.485 249.58 330.008 232.984 317.978 223.795" stroke="black" stroke-width="3" stroke-linecap="round" stroke-linejoin="round"/>
<path d="M182.713 213.77C182.713 213.77 166.255 258.137 112.114 257.186C57.9812 256.234 45.634 223.593 45.634 223.593" stroke="black" stroke-width="3" stroke-linecap="round" stroke-linejoin="round"/>
<path d="M13.3516 190.632C13.3516 190.632 -6.5911 210.596 6.38962 231.511C19.3703 252.427 51.977 234.682 51.977 234.682" stroke="black" stroke-width="3" stroke-linecap="round" stroke-linejoin="round"/>
<path d="M58.6121 202.36C58.6121 202.36 46.638 138.113 102.616 129.474C158.016 120.919 172.264 161.481 172.264 161.481" stroke="black" stroke-width="3" stroke-linecap="round" stroke-linejoin="round"/>
<path d="M224.182 164.649C224.182 164.649 253.592 133.896 280.849 147.539C307.444 160.85 302.376 187.784 302.376 187.784" stroke="black" stroke-width="3" stroke-linecap="round" stroke-linejoin="round"/>
<path d="M177.015 126.619C177.015 126.619 207.25 76.3398 246.03 97.7835C279.27 116.162 269.457 144.053 269.457 144.053" stroke="black" stroke-width="3" stroke-linecap="round" stroke-linejoin="round"/>
<path d="M142.194 132.646C142.194 132.646 144.411 112.048 160.869 107.291C177.328 102.534 186.197 114.26 186.197 114.26" stroke="black" stroke-width="3" stroke-linecap="round" stroke-linejoin="round"/>
<path d="M114.016 67.9887C114.016 67.9887 133.642 2.38912 186.509 1.7549C239.375 1.12068 263.119 41.0484 259.951 62.2808" stroke="black" stroke-width="3" stroke-linecap="round" stroke-linejoin="round"/>
<path d="M171.95 231.513C171.95 231.513 211.202 269.545 246.342 230.244" stroke="black" stroke-width="3" stroke-linecap="round" stroke-linejoin="round"/>
</svg>
