<svg width="257" height="171" viewBox="0 0 257 171" fill="none" xmlns="http://www.w3.org/2000/svg">
<path d="M2.03809 144.506C2.03809 144.506 8.27867 156.861 19.3767 154.226C30.4747 151.591 31.5803 149.507 31.5803 149.507L35.2904 154.124C35.2904 154.124 22.7722 160.825 15.2132 159.089C7.65415 157.352 2.24626 151.73 2.03809 144.51V144.506Z" fill="#AAAAAA"/>
<path d="M9.6671 124.787C9.6671 124.787 3.75958 117.508 2.69558 106.981C1.15972 91.7639 7.36332 71.5773 36.2255 72.0265C36.2255 72.0265 28.2871 50.9555 61.3637 43.0458C65.9389 41.9529 68.8394 43.9488 75.6167 45.0232C75.6167 45.0232 94.7224 -11.5815 138.652 3.5804C177.071 16.8389 171.104 41.4851 171.104 41.4851C171.104 41.4851 187.947 31.422 200.577 45.5095C209.662 55.6467 203.561 70.6372 203.561 70.6372C203.561 70.6372 224 73.5 229.772 88.9621C233.103 100.623 228.176 112.15 228.176 112.15C228.176 112.15 264.722 118.536 251.824 142.279C238.927 166.022 209.385 147.276 209.385 147.276C209.385 147.276 197.32 161.02 184.834 160.604C172.353 160.187 162.573 151.647 162.573 151.647C162.573 151.647 148.219 163.933 136.986 162.683C125.754 161.433 114.101 153.518 114.101 153.518C114.101 153.518 95.7957 173.093 69.1632 168.93C42.5355 164.767 37.123 153.935 37.123 153.935C37.123 153.935 14.654 165.179 5.49899 153.101C-3.65604 141.024 9.65784 124.778 9.65784 124.778L9.6671 124.787Z" fill="white"/>
<path d="M31.0251 148.393C31.0251 148.393 57.0145 170.209 83.1751 165.75C108.415 161.448 120.485 141.173 120.485 141.173C120.485 141.173 113.185 154.918 104.326 160.957C94.7542 167.482 77.3832 171.464 64.5227 168.524C51.7639 165.606 47.6005 164.569 41.915 160.332C35.0452 155.219 31.3721 149.504 31.0298 148.393H31.0251Z" fill="#AAAAAA"/>
<path d="M223.53 119.272C223.53 119.272 248.183 119.48 254.738 130.516C254.738 130.516 253.905 126.871 252.554 124.788C251.204 122.704 250.857 122.078 248.705 120.518C246.554 118.957 243.399 116.873 243.399 116.873L237.783 114.998C237.783 114.998 234.452 113.956 233.416 113.747C232.38 113.539 231.233 112.705 230.502 112.914C229.771 113.122 227.902 112.497 227.902 112.497L223.535 119.267L223.53 119.272Z" fill="white"/>
<path d="M14.4522 130.622C13.8277 129.997 -3.64504 113.335 5.08902 90.6381C13.8277 67.937 42.3291 68.3538 45.447 79.1857" stroke="black" stroke-width="3" stroke-linecap="round" stroke-linejoin="round"/>
<path d="M86.6424 52.5213C86.6424 52.5213 72.4958 36.0674 51.0678 46.2741C29.6397 56.4808 36.713 72.7217 36.713 72.7217" stroke="black" stroke-width="3" stroke-linecap="round" stroke-linejoin="round"/>
<path d="M163.615 45.44C163.615 45.44 182.545 32.5288 195.859 41.4851C209.173 50.4415 206.055 68.3495 200.642 75.8471" stroke="black" stroke-width="3" stroke-linecap="round" stroke-linejoin="round"/>
<path d="M222.907 120.416C223.74 119.79 237.678 101.674 228.315 85.8452C218.952 70.0164 203.644 70.3128 203.644 70.3128" stroke="black" stroke-width="3" stroke-linecap="round" stroke-linejoin="round"/>
<path d="M157.791 146.654C158.415 146.654 170.272 162.483 187.957 159.982C205.643 157.482 213.961 140.407 213.961 140.407" stroke="black" stroke-width="3" stroke-linecap="round" stroke-linejoin="round"/>
<path d="M228.109 112.501C228.109 112.501 263.059 116.872 253.279 140.615C243.5 164.359 217.556 153.453 209.65 147.414" stroke="black" stroke-width="3" stroke-linecap="round" stroke-linejoin="round"/>
<path d="M120.759 140.825C120.759 140.825 109.943 169.982 74.3639 169.357C38.7892 168.732 30.675 147.281 30.675 147.281" stroke="black" stroke-width="3" stroke-linecap="round" stroke-linejoin="round"/>
<path d="M9.4599 125.62C9.4599 125.62 -3.6458 138.74 4.88472 152.485C13.4152 166.229 34.8433 154.569 34.8433 154.569" stroke="black" stroke-width="3" stroke-linecap="round" stroke-linejoin="round"/>
<path d="M39.2038 133.327C39.2038 133.327 31.3348 91.1063 68.1215 85.4287C104.529 79.8067 113.892 106.463 113.892 106.463" stroke="black" stroke-width="3" stroke-linecap="round" stroke-linejoin="round"/>
<path d="M148.011 108.545C148.011 108.545 167.339 88.335 185.251 97.3006C202.728 106.049 199.397 123.748 199.397 123.748" stroke="black" stroke-width="3" stroke-linecap="round" stroke-linejoin="round"/>
<path d="M117.014 83.553C117.014 83.553 136.883 50.5109 162.369 64.603C184.213 76.6806 177.764 95.0101 177.764 95.0101" stroke="black" stroke-width="3" stroke-linecap="round" stroke-linejoin="round"/>
<path d="M94.1309 87.5133C94.1309 87.5133 95.5881 73.9769 106.404 70.851C117.22 67.725 123.049 75.431 123.049 75.431" stroke="black" stroke-width="3" stroke-linecap="round" stroke-linejoin="round"/>
<path d="M75.6135 45.0229C75.6135 45.0229 88.5111 1.91291 123.253 1.49612C157.995 1.07933 173.599 27.3186 171.517 41.2718" stroke="black" stroke-width="3" stroke-linecap="round" stroke-linejoin="round"/>
<path d="M113.686 152.486C113.686 152.486 139.481 177.479 162.574 151.652" stroke="black" stroke-width="3" stroke-linecap="round" stroke-linejoin="round"/>
</svg>
