<svg width="268" height="183" viewBox="0 0 268 183" fill="none" xmlns="http://www.w3.org/2000/svg">
<g clip-path="url(#clip0_31_3932)">
<path d="M33.8002 88.0444C33.8002 88.0444 30.4712 72.0507 31.6963 62.508C32.9214 52.9653 32.1784 51.1006 37.8973 44.9749C43.6163 38.8491 45.5523 35.9607 49.9154 32.6435C54.2784 29.3264 58.203 27.0748 61.5829 25.0563C64.9628 23.0378 67.849 21.3649 76.2709 19.921C84.6928 18.4771 95.1848 20.7217 97.1927 21.3565C99.2006 21.9914 107.734 26.9109 113.895 30.135C120.056 33.3592 123.991 35.7358 123.991 35.7358C123.991 35.7358 127.495 30.3893 136.242 23.9491C144.988 17.5088 142.409 16.6587 154.56 13.7289C166.711 10.7991 168.863 10.3598 178.262 12.6591C184.439 14.1553 195.082 17.2865 201.266 23.5682C207.451 29.8499 212.917 39.7958 213.275 40.602C213.634 41.4083 226.461 39.5067 234.91 43.6112C243.359 47.7157 241.873 43.9862 247.629 51.4305C253.385 58.8748 254.148 55.4609 255.5 65.8342C256.853 76.2076 256.637 82.0558 252.463 87.1971C248.29 92.3384 234.292 100.717 232.621 101.44C230.95 102.163 239.988 116.465 237.277 122.278C234.566 128.091 235.265 132.177 229.929 136.89C224.593 141.603 222.226 145.438 214.804 145.935C207.382 146.431 205.433 146.359 196.79 145.865C188.147 145.37 185.415 143.81 185.415 143.81C185.415 143.81 171.662 159.833 164.466 162.503C157.27 165.172 151.537 166.062 144.893 165.929C138.249 165.795 131.536 165.375 125.938 162.092C120.34 158.809 113.099 150.48 111.585 146.479C110.071 142.477 104.342 146.054 104.342 146.054C104.342 146.054 102.021 147.688 95.1989 148.671C88.3768 149.655 67.9769 145.125 66.6711 143.318C65.3654 141.512 60.6896 133.701 60.6896 133.701C60.6896 133.701 65.2749 135.166 50.4808 139.469C35.6867 143.772 24.9993 144.745 19.6019 138.107C14.2046 131.469 12.884 133.862 12.5049 125.682C12.1259 117.503 12.3113 113.247 14.0203 108.361C15.7293 103.476 18.0381 99.0778 21.1375 96.8139C24.2369 94.5499 28.4059 91.2529 31.5615 90.4739C34.7171 89.6949 33.7982 88.025 33.7982 88.025L33.8002 88.0444Z" fill="white"/>
<path d="M15.7456 106.259C15.7456 106.259 31.0407 136.231 73.1982 120.788C73.1982 120.788 80.3159 146.627 117.494 136.684L113.077 142.125C113.077 142.125 149.41 169.362 176.874 135.222C176.874 135.222 222.635 146.533 236.422 124.602C236.422 124.602 233.499 133.851 229.748 136.829C225.997 139.808 225.528 140.583 219.57 141.947C213.611 143.312 206.196 144.631 203.596 144.529C200.997 144.426 202.103 144.311 193.762 144.08L185.421 143.848C185.421 143.848 179.927 153.088 175.207 155.795C170.486 158.502 169.102 161.039 161.782 163.467C154.463 165.895 153.717 169.287 142.955 167.09C132.194 164.894 137.251 167.31 125.838 160.552C114.426 153.793 112.63 150.665 111.181 147.481C109.732 144.297 113.978 145.896 100.298 147.513C86.6175 149.131 89.9405 154.494 77.8078 149.673C65.675 144.853 61.9891 135.997 61.9891 135.997C61.9891 135.997 65.953 133.369 57.2911 137.035C48.6293 140.7 39.2535 142.969 39.2535 142.969C39.2535 142.969 28.7806 141.664 22.9653 138.934C17.1501 136.203 15.9278 136.899 14.12 130.261C12.3122 123.622 11.0438 118.399 12.4506 114.193C13.8574 109.986 15.6894 106.285 15.6894 106.285L15.7456 106.259Z" fill="#A7A7A7" fill-opacity="0.51"/>
<path d="M47.8935 88.6981C47.8935 88.6981 15.4529 89.1067 12.1282 117.522C8.80352 145.937 49.7616 152.744 62.5796 130.365" stroke="black" stroke-width="3" stroke-linecap="round" stroke-linejoin="round"/>
<path d="M61.0002 134.785C87.5564 170.061 119.394 137.035 119.394 137.035" stroke="black" stroke-width="3" stroke-linecap="round" stroke-linejoin="round"/>
<path d="M111.634 144.296C111.634 144.296 112.699 161.722 140.897 166.54C169.094 171.359 185.437 143.827 185.437 143.827C185.437 143.827 220.556 151.261 233.205 134.431C245.855 117.601 230.953 102.182 230.953 102.182C230.953 102.182 264.474 87.244 254.445 61.7071C244.416 36.1701 211.476 42.5348 211.476 42.5348C211.476 42.5348 202.676 14.6538 170.318 12.4645C137.961 10.2752 123.992 35.7358 123.992 35.7358C123.992 35.7358 90.0745 4.18735 54.2795 29.3264C18.4844 54.4654 34.6987 89.6969 34.6987 89.6969" stroke="black" stroke-width="3" stroke-linecap="round" stroke-linejoin="round"/>
<path d="M89.8654 73.3533C91.0718 71.5606 105.405 44.3164 134.304 47.9635C163.204 51.6105 162.972 75.9969 162.972 75.9969" stroke="black" stroke-width="3" stroke-linecap="round" stroke-linejoin="round"/>
<path d="M201.586 87.776C201.586 87.776 207.626 114.002 180.547 111.833" stroke="black" stroke-width="2" stroke-linecap="round" stroke-linejoin="round"/>
</g>
<defs>
<clipPath id="clip0_31_3932">
<rect width="252.367" height="157.663" fill="white" transform="translate(0 26.0798) rotate(-5.93159)"/>
</clipPath>
</defs>
</svg>
