<svg width="1920" height="477" viewBox="0 0 1920 477" fill="none" xmlns="http://www.w3.org/2000/svg">
<path d="M6.57335 31.1367H-2C-5.31371 31.1367 -8 33.823 -8 37.1367V673C-8 676.314 -5.31365 679 -1.99994 679H1922C1925.31 679 1928 676.314 1928 673V149.02C1928 145.526 1925.02 142.754 1921.56 143.228C1895.33 146.816 1877.61 159.13 1868.88 168.156C1866.35 170.76 1862.12 171.244 1859.38 168.862C1840.08 152.046 1806.19 125.403 1792.41 125.403C1777.95 125.403 1742.41 135.876 1724.35 141.782C1722.86 142.268 1721.26 142.163 1719.85 141.486C1700.25 132.067 1663.04 115.119 1655.11 115.119C1644.81 115.119 1636.23 125.403 1624.21 125.403C1614.79 125.403 1544.07 127.6 1507.89 128.763C1506.51 128.807 1505.22 129.319 1504.18 130.22C1495.16 138.041 1479.19 151.958 1476.61 154.539C1473.93 157.215 1443.8 170.986 1427.99 178.021C1427.23 178.362 1426.4 178.534 1425.57 178.534H1381.9C1379.95 178.534 1378.11 177.58 1376.99 175.978L1355.71 145.62C1355.08 144.727 1354.23 144.022 1353.23 143.58L1325.02 131.06C1324.25 130.72 1323.44 130.544 1322.6 130.544H1256.92C1254.66 130.544 1249.93 137.499 1246.73 142.829C1245.58 144.743 1243.52 145.936 1241.29 145.867C1217.77 145.134 1173.84 142.604 1160.81 137.4C1147.39 132.04 1102.28 102.233 1079.94 87.0178C1078.95 86.3377 1077.78 85.9823 1076.57 85.9823H1028.89C1027.62 85.9823 1026.38 85.5814 1025.36 84.837L1009.63 73.4161C1008.61 72.6718 1007.38 72.2697 1006.12 72.2752C991.752 72.3366 964.841 73.0796 958.284 75.6987C952.427 78.0383 942.822 82.2076 936.93 84.8007C935.239 85.5449 933.993 87.0297 933.544 88.8218L926.237 118.01C925.875 119.458 924.985 120.719 923.742 121.547L912.461 129.057C911.04 130.003 910.089 131.511 909.847 133.202L907.531 149.389C907.108 152.344 904.577 154.539 901.592 154.539H829.009C827.188 154.539 825.465 153.712 824.326 152.291L792.938 113.11C792.197 112.185 791.747 111.061 791.644 109.88L788.478 73.5303C788.406 72.6998 788.162 71.8935 787.76 71.1628L760.402 21.3443C759.628 19.9337 759.452 18.2711 759.915 16.7299L764.34 2L743.358 4.99333C741.446 5.26612 739.782 6.44279 738.887 8.15476L720.398 43.5426C719.95 44.4002 719.716 45.3463 719.716 46.3139V101.408C719.716 102.588 714.624 114.024 711.018 121.919C710.047 124.047 707.921 125.403 705.582 125.403H697.59C694.548 125.403 691.987 123.126 691.631 120.105L685.652 69.3525C685.483 67.9185 684.803 66.5936 683.736 65.6208L647.633 32.703C646.528 31.6953 645.094 31.1367 643.598 31.1367H554.95C544.652 31.1367 463.986 44.8481 460.553 49.9899C457.121 55.1316 434.809 80.8405 434.809 84.2684V131.409C434.809 134.722 432.136 137.4 428.822 137.4H331.83C330.113 137.4 306.085 120.261 302.652 118.547C299.22 116.833 221.986 115.119 218.553 113.405C215.121 111.691 208.255 109.977 204.823 108.263C201.39 106.549 192.809 91.1241 187.66 80.8405C182.511 70.557 131.021 55.1316 120.723 51.7038C110.426 48.2759 91.5461 55.1316 89.8298 55.1316C88.4706 55.1316 35.4203 39.4556 8.26732 31.3807C7.7121 31.2156 7.1526 31.1367 6.57335 31.1367Z" fill="#532F1B" stroke="black" stroke-width="3"/>
<path d="M35.3961 260.755L-21.3749 262.408C-24.6872 262.504 -27.2942 265.268 -27.1977 268.58L-22.0501 445.373C-21.9537 448.686 -19.1903 451.293 -15.878 451.196L1993.27 392.696C1996.58 392.6 1999.19 389.836 1999.09 386.524L1992.05 144.626C1991.95 141.314 1989.19 138.707 1985.88 138.804L1950.18 139.843C1949.65 139.858 1949.15 139.936 1948.65 140.087C1912.24 150.982 1834.98 172.825 1811.23 174.787C1781.34 177.255 1710.92 181.969 1701.3 183.315C1693.67 184.38 1623.16 215.536 1587.8 231.45C1587.08 231.775 1586.36 231.943 1585.57 231.965C1516.2 233.975 1369.59 237.274 1328.76 234.649C1287.77 232.012 1070.99 243.736 967.249 249.955C966.924 249.974 966.628 250.016 966.311 250.088C941.823 255.625 892.615 266.526 888.009 266.66C882.215 266.829 746.588 255.861 724.393 257.04C702.198 258.219 574.555 289.105 562.967 289.442C551.379 289.78 546.597 291.517 490.542 291.551C434.733 291.585 297.587 278.889 296.38 278.777C296.343 278.773 296.353 278.775 296.316 278.772L166.116 269.158L35.3961 260.755Z" fill="#B26C27" stroke="black" stroke-width="3"/>
<path d="M800 380C807.833 372.5 848 382.4 904 380M629 368C639.5 368.333 662.2 368.8 669 368M541.5 383C548 382.333 562.5 381.4 568.5 383M1045 380C1066.83 380.333 1112.7 380.8 1121.5 380M1059.5 316.5C1077 314.5 1115 309.1 1127 303.5M1121.5 314.5C1127.67 314.5 1141.3 314.5 1146.5 314.5M779 323.5C780 323.5 796 318.5 810.5 319.5C825 320.5 832.5 322.5 844.5 320.5M26.5 339C27.5 339 55 342 73 340.5C87.4 339.3 102 340 107.5 340.5M99 336C106.667 336.5 123.7 337.8 130.5 339M1076.5 323C1069 323.833 1050.7 325.6 1037.5 326M1815 308.5C1822.17 301.5 1839 284.4 1849 272C1859 259.6 1878.17 264.833 1886.5 269L1925.5 252.5M1791.5 318C1799.5 313 1816.2 301.8 1819 297M1679 339.5C1691.17 339.5 1717.9 339.5 1727.5 339.5M1714.5 336C1721.67 335.833 1736.9 335.2 1740.5 334M1664 211.5C1676.33 207 1702.1 197.2 1706.5 194C1725.83 193.667 1767.2 192.2 1778 189M1718.5 203C1739.67 201.667 1785.3 198 1798.5 194M1865 176.5C1871.8 173.7 1914.5 157.333 1935 149.5" stroke="black" stroke-width="2" stroke-linecap="round" stroke-linejoin="round"/>
<g clip-path="url(#clip0_45_574)">
<path d="M92.478 159.162C92.478 159.162 81.5182 205.026 90.9056 252.138C100.293 299.25 153.299 301.386 159.914 296.261C166.529 291.149 162.38 275.258 156.182 274.218C149.983 273.178 134.169 279.171 120.039 259.281C105.91 239.391 100.236 213.711 101.359 189.054C102.482 164.41 104.504 149.573 97.7627 150.382C91.0209 151.192 92.4776 159.149 92.4776 159.149L92.478 159.162Z" fill="#9FD31D" stroke="black" stroke-width="3" stroke-linecap="round" stroke-linejoin="round"/>
<path d="M156.195 274.218C154.079 273.859 150.845 274.321 146.932 274.3C149.52 280.064 152.319 288.851 151.152 298.148C155.427 297.995 158.599 297.277 159.914 296.261C166.529 291.149 162.38 275.258 156.182 274.218L156.195 274.218Z" fill="black" stroke="black" stroke-linecap="round" stroke-linejoin="round"/>
<path d="M97.7626 150.382C97.7626 150.382 87.6762 208.851 93.9306 238.127C100.185 267.403 107.714 279.025 124.078 285.729C140.442 292.433 152.334 293.523 153.385 292.772" stroke="black" stroke-width="2" stroke-linecap="round" stroke-linejoin="round"/>
<path d="M114.874 265.64C131.704 289.104 152.12 286.697 152.12 286.697" stroke="black" stroke-width="2" stroke-linecap="round" stroke-linejoin="round"/>
<path d="M97.9731 180.175C97.9731 180.175 92.8944 227.373 110.329 258.48" stroke="black" stroke-width="2" stroke-linecap="round" stroke-linejoin="round"/>
<path d="M236.224 96.8414C236.224 96.8414 249.86 141.981 243.257 189.564C236.655 237.146 183.866 242.393 176.961 237.666C170.057 232.952 173.265 216.844 179.392 215.442C185.518 214.039 201.657 219.093 214.594 198.407C227.53 177.721 231.684 151.752 229.115 127.203C226.546 102.668 223.655 87.9752 230.432 88.3871C237.21 88.7989 236.224 96.8279 236.224 96.8279L236.224 96.8414Z" fill="#9FD31D" stroke="black" stroke-width="3" stroke-linecap="round" stroke-linejoin="round"/>
<path d="M198.25 212.785C189.943 217.264 183.01 214.003 179.509 214.459C174.504 215.124 169.747 230.674 174.529 236.174C176.67 238.636 186.332 240.217 197.401 237.069C194.836 231.401 196.337 221.051 198.251 212.772L198.25 212.785Z" fill="black" stroke="black" stroke-linecap="round" stroke-linejoin="round"/>
<path d="M231.44 210.434C221.239 227.128 196.694 232.807 192.609 232.927" stroke="black" stroke-width="2" stroke-linecap="round" stroke-linejoin="round"/>
<path d="M232.334 93.4652C232.334 93.4652 234.788 103.444 236.472 124.229C238.157 145.015 240.986 179.77 234.823 202.579C234.578 203.496 234.292 204.374 233.964 205.239" stroke="black" stroke-width="2" stroke-linecap="round" stroke-linejoin="round"/>
<path d="M231.259 170.997C233.525 154.74 233.324 138.665 232.138 123.284" stroke="black" stroke-width="2" stroke-linecap="round" stroke-linejoin="round"/>
<path d="M193.731 222.11C193.731 222.11 219.117 217.778 226.306 193.852C227.458 190.042 228.432 186.224 229.244 182.411" stroke="black" stroke-width="2" stroke-linecap="round" stroke-linejoin="round"/>
<path d="M158.738 109.826C158.738 109.826 158.792 135.684 158.101 214.767C157.425 293.848 159.929 446.9 160.041 484.913C160.154 522.94 160.536 535.941 160.536 535.941C160.536 535.941 166.683 540.758 171.721 541.615C176.746 542.472 193.783 542.963 200.67 538.767C207.556 534.558 206.317 526.595 206.317 526.595L200.704 403.664C200.704 403.664 196.024 278.71 192.583 263.789C189.142 248.882 183.668 199.006 183.168 182.003C182.668 164.999 184.897 106.842 174.973 76.1125C165.062 45.3823 159.485 72.8736 158.724 109.826L158.738 109.826Z" fill="#9FD31D" stroke="black" stroke-width="3" stroke-linecap="round" stroke-linejoin="round"/>
<path d="M164.343 243.595C164.969 290.747 165.525 333.691 165.525 333.691C165.525 333.691 167.58 515.809 167.645 518.021C167.71 520.233 169.559 526.766 169.559 526.766" stroke="black" stroke-width="2" stroke-linecap="round" stroke-linejoin="round"/>
<path d="M165.472 69.4921C165.472 69.4921 162.328 93.8016 162.821 129.019C163.051 145.61 163.668 192.002 164.254 236.426" stroke="black" stroke-width="2" stroke-linecap="round" stroke-linejoin="round"/>
<path d="M184.046 532.94L177.132 353.71" stroke="black" stroke-width="2" stroke-linecap="round" stroke-linejoin="round"/>
<path d="M168.374 106.255L168.327 73.2655" stroke="black" stroke-width="2" stroke-linecap="round" stroke-linejoin="round"/>
<path d="M176.252 342.72L168.376 112.34" stroke="black" stroke-width="2" stroke-linecap="round" stroke-linejoin="round"/>
<path d="M178.943 214.806L179.304 221.545" stroke="black" stroke-width="2" stroke-linecap="round" stroke-linejoin="round"/>
<path d="M171.998 85.8162L178.473 206.208" stroke="black" stroke-width="2" stroke-linecap="round" stroke-linejoin="round"/>
<path d="M185.611 286.31C185.611 286.31 195.346 505.091 193.907 530.993" stroke="black" stroke-width="2" stroke-linecap="round" stroke-linejoin="round"/>
</g>
<g clip-path="url(#clip1_45_574)">
<path d="M149.809 344.089C149.809 344.089 134.758 304.516 135.771 313.914C136.784 323.311 144.792 347.055 144.792 347.055C144.792 347.055 111.683 323.311 116.7 327.76C121.717 332.209 133.745 345.072 133.745 345.072C133.745 345.072 114.69 337.657 117.191 340.623C119.691 343.589 126.211 346.072 126.211 346.072C126.211 346.072 87.0893 326.277 87.5958 332.225C88.1024 338.173 123.204 351.52 123.204 351.52C123.204 351.52 99.1331 346.571 106.16 351.02C113.187 355.469 121.211 358.435 121.211 358.435C121.211 358.435 92.6291 355.469 96.6328 357.935C100.637 360.402 111.683 363.384 111.683 363.384C111.683 363.384 96.6328 360.917 91.6159 362.4C86.599 363.883 93.1193 366.849 93.1193 366.849C93.1193 366.849 87.1056 367.349 81.0755 369.315C75.0454 371.282 91.5996 371.782 101.633 370.798C111.667 369.815 137.242 369.315 137.242 369.315C137.242 369.315 105.653 374.764 113.171 377.23C120.688 379.696 143.256 374.264 143.256 374.264C143.256 374.264 132.225 379.712 135.738 380.696C139.252 381.679 160.807 376.247 160.807 376.247C160.807 376.247 156.296 382.678 159.81 383.178C163.323 383.678 167.327 375.763 167.327 375.763C167.327 375.763 168.324 383.678 170.334 379.728C172.344 375.763 173.341 372.314 173.341 372.314C173.341 372.314 179.354 383.194 180.368 380.228C181.364 377.262 179.861 372.813 179.861 372.813C179.861 372.813 189.895 382.71 189.388 379.745C188.882 376.779 187.885 373.813 187.885 373.813C187.885 373.813 204.929 387.659 204.439 381.227C203.932 374.796 201.432 371.83 201.432 371.83C201.432 371.83 209.456 374.796 214.979 374.296C220.503 373.797 214.979 369.348 214.979 369.348C214.979 369.348 252.598 375.779 254.101 373.797C255.605 371.814 229.523 367.365 229.523 367.365C229.523 367.365 243.071 367.365 252.091 360.434C261.112 353.503 234.034 358.451 234.034 358.451C234.034 358.451 246.078 352.519 243.561 351.52C241.044 350.52 234.54 353.503 234.54 353.503C234.54 353.503 256.111 333.708 253.104 330.742C250.098 327.776 219.996 356.468 218.493 357.452C216.989 358.435 246.11 302.05 238.577 305.999C231.043 309.949 216.009 338.157 216.009 338.157C216.009 338.157 216.009 315.397 214.505 320.345C213.002 325.294 207.985 345.088 207.985 345.088C207.985 345.088 204.978 318.379 202.968 324.81C200.958 331.242 194.944 348.054 194.944 348.054C194.944 348.054 186.921 331.726 183.914 335.691C180.907 339.656 182.41 351.52 182.41 351.52C182.41 351.52 175.89 328.76 174.387 335.191C172.883 341.623 175.89 360.917 175.89 360.917C175.89 360.917 166.869 322.328 164.859 329.259C162.849 336.191 165.366 348.054 165.366 348.054C165.366 348.054 154.335 326.777 154.335 335.191C154.335 343.605 155.839 350.52 155.839 350.52L149.825 344.089H149.809Z" fill="#573C2C" stroke="black" stroke-linecap="round" stroke-linejoin="round"/>
</g>
<g clip-path="url(#clip2_45_574)">
<path d="M1203.52 133.233C1203.52 133.233 1214.48 179.096 1205.09 226.208C1195.71 273.32 1142.7 275.456 1136.09 270.331C1129.47 265.22 1133.62 249.328 1139.82 248.288C1146.02 247.248 1161.83 253.241 1175.96 233.351C1190.09 213.461 1195.76 187.781 1194.64 163.124C1193.52 138.48 1191.5 123.643 1198.24 124.452C1204.98 125.262 1203.52 133.219 1203.52 133.219L1203.52 133.233Z" fill="#9FD31D" stroke="black" stroke-width="3" stroke-linecap="round" stroke-linejoin="round"/>
<path d="M1139.8 248.288C1141.92 247.929 1145.15 248.391 1149.07 248.37C1146.48 254.134 1143.68 262.921 1144.85 272.218C1140.57 272.066 1137.4 271.348 1136.09 270.331C1129.47 265.22 1133.62 249.328 1139.82 248.288L1139.8 248.288Z" fill="black" stroke="black" stroke-linecap="round" stroke-linejoin="round"/>
<path d="M1198.24 124.452C1198.24 124.452 1208.32 182.921 1202.07 212.197C1195.81 241.473 1188.29 253.095 1171.92 259.799C1155.56 266.503 1143.67 267.593 1142.61 266.842" stroke="black" stroke-width="2" stroke-linecap="round" stroke-linejoin="round"/>
<path d="M1181.13 239.71C1164.3 263.174 1143.88 260.767 1143.88 260.767" stroke="black" stroke-width="2" stroke-linecap="round" stroke-linejoin="round"/>
<path d="M1198.03 154.246C1198.03 154.246 1203.11 201.444 1185.67 232.55" stroke="black" stroke-width="2" stroke-linecap="round" stroke-linejoin="round"/>
<path d="M1059.78 70.9116C1059.78 70.9116 1046.14 116.052 1052.74 163.634C1059.35 211.216 1112.13 216.463 1119.04 211.736C1125.94 207.022 1122.73 190.915 1116.61 189.512C1110.48 188.109 1094.34 193.163 1081.41 172.477C1068.47 151.791 1064.32 125.822 1066.89 101.273C1069.45 76.7377 1072.35 62.0454 1065.57 62.4572C1058.79 62.8691 1059.78 70.898 1059.78 70.898L1059.78 70.9116Z" fill="#9FD31D" stroke="black" stroke-width="3" stroke-linecap="round" stroke-linejoin="round"/>
<path d="M1097.75 186.856C1106.06 191.335 1112.99 188.073 1116.49 188.529C1121.5 189.195 1126.25 204.744 1121.47 210.244C1119.33 212.706 1109.67 214.287 1098.6 211.139C1101.16 205.471 1099.66 195.121 1097.75 186.842L1097.75 186.856Z" fill="black" stroke="black" stroke-linecap="round" stroke-linejoin="round"/>
<path d="M1064.56 184.504C1074.76 201.198 1099.31 206.877 1103.39 206.997" stroke="black" stroke-width="2" stroke-linecap="round" stroke-linejoin="round"/>
<path d="M1063.67 67.5354C1063.67 67.5354 1061.21 77.514 1059.53 98.2996C1057.84 119.085 1055.01 153.84 1061.18 176.649C1061.42 177.567 1061.71 178.444 1062.04 179.31" stroke="black" stroke-width="2" stroke-linecap="round" stroke-linejoin="round"/>
<path d="M1064.74 145.067C1062.48 128.81 1062.68 112.735 1063.86 97.354" stroke="black" stroke-width="2" stroke-linecap="round" stroke-linejoin="round"/>
<path d="M1102.27 196.18C1102.27 196.18 1076.88 191.848 1069.69 167.922C1068.54 164.112 1067.57 160.294 1066.76 156.481" stroke="black" stroke-width="2" stroke-linecap="round" stroke-linejoin="round"/>
<path d="M1137.26 83.8957C1137.26 83.8957 1137.21 109.755 1137.9 188.837C1138.58 267.919 1136.07 420.97 1135.96 458.984C1135.85 497.01 1135.46 510.011 1135.46 510.011C1135.46 510.011 1129.32 514.828 1124.28 515.685C1119.25 516.543 1102.22 517.033 1095.33 512.837C1088.44 508.628 1089.68 500.665 1089.68 500.665L1095.3 377.734C1095.3 377.734 1099.98 252.78 1103.42 237.859C1106.86 222.952 1112.33 173.077 1112.83 156.073C1113.33 139.069 1111.1 80.9125 1121.03 50.1827C1130.94 19.4524 1136.51 46.9438 1137.28 83.8961L1137.26 83.8957Z" fill="#9FD31D" stroke="black" stroke-width="3" stroke-linecap="round" stroke-linejoin="round"/>
<path d="M1131.66 217.665C1131.03 264.817 1130.47 307.761 1130.47 307.761C1130.47 307.761 1128.42 489.879 1128.36 492.091C1128.29 494.303 1126.44 500.836 1126.44 500.836" stroke="black" stroke-width="2" stroke-linecap="round" stroke-linejoin="round"/>
<path d="M1130.53 43.5623C1130.53 43.5623 1133.67 67.8718 1133.18 103.089C1132.95 119.68 1132.33 166.072 1131.75 210.496" stroke="black" stroke-width="2" stroke-linecap="round" stroke-linejoin="round"/>
<path d="M1111.95 507.011L1118.87 327.78" stroke="black" stroke-width="2" stroke-linecap="round" stroke-linejoin="round"/>
<path d="M1127.63 80.3254L1127.67 47.3357" stroke="black" stroke-width="2" stroke-linecap="round" stroke-linejoin="round"/>
<path d="M1119.75 316.79L1127.62 86.4102" stroke="black" stroke-width="2" stroke-linecap="round" stroke-linejoin="round"/>
<path d="M1117.06 188.876L1116.7 195.616" stroke="black" stroke-width="2" stroke-linecap="round" stroke-linejoin="round"/>
<path d="M1124 59.8863L1117.53 180.279" stroke="black" stroke-width="2" stroke-linecap="round" stroke-linejoin="round"/>
<path d="M1110.39 260.38C1110.39 260.38 1100.65 479.161 1102.09 505.064" stroke="black" stroke-width="2" stroke-linecap="round" stroke-linejoin="round"/>
</g>
<g clip-path="url(#clip3_45_574)">
<path d="M1146.19 318.159C1146.19 318.159 1161.24 278.587 1160.23 287.984C1159.22 297.381 1151.21 321.125 1151.21 321.125C1151.21 321.125 1184.32 297.381 1179.3 301.83C1174.28 306.279 1162.26 319.142 1162.26 319.142C1162.26 319.142 1181.31 311.728 1178.81 314.693C1176.31 317.659 1169.79 320.142 1169.79 320.142C1169.79 320.142 1208.91 300.347 1208.4 306.295C1207.9 312.243 1172.8 325.59 1172.8 325.59C1172.8 325.59 1196.87 320.641 1189.84 325.09C1182.81 329.539 1174.79 332.505 1174.79 332.505C1174.79 332.505 1203.37 329.539 1199.37 332.005C1195.36 334.472 1184.32 337.454 1184.32 337.454C1184.32 337.454 1199.37 334.987 1204.38 336.47C1209.4 337.953 1202.88 340.919 1202.88 340.919C1202.88 340.919 1208.89 341.419 1214.92 343.386C1220.95 345.352 1204.4 345.852 1194.37 344.869C1184.33 343.885 1158.76 343.386 1158.76 343.386C1158.76 343.386 1190.35 348.834 1182.83 351.3C1175.31 353.766 1152.74 348.334 1152.74 348.334C1152.74 348.334 1163.78 353.782 1160.26 354.766C1156.75 355.749 1135.19 350.317 1135.19 350.317C1135.19 350.317 1139.7 356.748 1136.19 357.248C1132.68 357.748 1128.67 349.833 1128.67 349.833C1128.67 349.833 1127.68 357.748 1125.67 353.799C1123.66 349.833 1122.66 346.384 1122.66 346.384C1122.66 346.384 1116.65 357.264 1115.63 354.298C1114.64 351.332 1116.14 346.883 1116.14 346.883C1116.14 346.883 1106.11 356.781 1106.61 353.815C1107.12 350.849 1108.12 347.883 1108.12 347.883C1108.12 347.883 1091.07 361.729 1091.56 355.298C1092.07 348.866 1094.57 345.9 1094.57 345.9C1094.57 345.9 1086.54 348.866 1081.02 348.366C1075.5 347.867 1081.02 343.418 1081.02 343.418C1081.02 343.418 1043.4 349.849 1041.9 347.867C1040.4 345.884 1066.48 341.435 1066.48 341.435C1066.48 341.435 1052.93 341.435 1043.91 334.504C1034.89 327.573 1061.97 332.521 1061.97 332.521C1061.97 332.521 1049.92 326.589 1052.44 325.59C1054.96 324.591 1061.46 327.573 1061.46 327.573C1061.46 327.573 1039.89 307.778 1042.9 304.812C1045.9 301.846 1076 330.539 1077.51 331.522C1079.01 332.505 1049.89 276.12 1057.42 280.07C1064.96 284.019 1079.99 312.227 1079.99 312.227C1079.99 312.227 1079.99 289.467 1081.49 294.416C1083 299.364 1088.01 319.158 1088.01 319.158C1088.01 319.158 1091.02 292.449 1093.03 298.881C1095.04 305.312 1101.06 322.124 1101.06 322.124C1101.06 322.124 1109.08 305.796 1112.09 309.761C1115.09 313.726 1113.59 325.59 1113.59 325.59C1113.59 325.59 1120.11 302.83 1121.61 309.261C1123.12 315.693 1120.11 334.987 1120.11 334.987C1120.11 334.987 1129.13 296.398 1131.14 303.329C1133.15 310.261 1130.63 322.124 1130.63 322.124C1130.63 322.124 1141.66 300.847 1141.66 309.261C1141.66 317.676 1140.16 324.591 1140.16 324.591L1146.18 318.159H1146.19Z" fill="#573C2C" stroke="black" stroke-linecap="round" stroke-linejoin="round"/>
</g>
<g clip-path="url(#clip4_45_574)">
<path d="M1975.63 138.717C1975.63 138.717 1982.56 187.54 1968.17 235.672C1953.79 283.805 1898.4 280.844 1892.01 274.861C1885.62 268.893 1891.5 252.753 1898.05 252.277C1904.61 251.8 1920.49 259.586 1937.14 240.26C1953.8 220.934 1962.22 194.752 1963.46 168.97C1964.7 143.202 1964.05 127.557 1970.99 129.059C1977.93 130.561 1975.63 138.703 1975.63 138.703L1975.63 138.717Z" fill="#9FD31D" stroke="black" stroke-width="3" stroke-linecap="round" stroke-linejoin="round"/>
<path d="M1898.04 252.275C1900.28 252.108 1903.6 252.905 1907.67 253.266C1904.42 259.015 1900.64 267.889 1900.95 277.683C1896.51 277.106 1893.28 276.048 1892.01 274.861C1885.62 268.893 1891.5 252.753 1898.05 252.277L1898.04 252.275Z" fill="black" stroke="black" stroke-linecap="round" stroke-linejoin="round"/>
<path d="M1970.99 129.059C1970.99 129.059 1975.77 190.92 1966.4 220.789C1957.02 250.658 1948.05 262.022 1930.35 267.401C1912.66 272.78 1900.17 272.752 1899.15 271.867" stroke="black" stroke-width="2" stroke-linecap="round" stroke-linejoin="round"/>
<path d="M1941.9 247.386C1922.08 270.169 1901.06 265.667 1901.06 265.667" stroke="black" stroke-width="2" stroke-linecap="round" stroke-linejoin="round"/>
<path d="M1832.07 59.7719C1832.07 59.7719 1813.45 105.436 1815.67 155.622C1817.89 205.808 1872.34 216.434 1879.99 212.188C1887.64 207.955 1885.88 190.871 1879.64 188.811C1873.39 186.752 1856.1 190.435 1844.65 167.632C1833.21 144.83 1831.42 117.386 1836.5 92.0782C1841.57 66.7845 1846.02 51.7702 1838.92 51.5361C1831.83 51.302 1832.07 59.7579 1832.07 59.7579L1832.07 59.7719Z" fill="#9FD31D" stroke="black" stroke-width="3" stroke-linecap="round" stroke-linejoin="round"/>
<path d="M1825.94 178.507C1834.92 196.885 1859.92 205.199 1864.17 205.724" stroke="black" stroke-width="2" stroke-linecap="round" stroke-linejoin="round"/>
<path d="M1836.45 56.6372C1836.45 56.6372 1832.92 66.7865 1829.13 88.2626C1825.34 109.739 1819 145.647 1823.18 169.998C1823.35 170.977 1823.56 171.919 1823.82 172.852" stroke="black" stroke-width="2" stroke-linecap="round" stroke-linejoin="round"/>
<path d="M1829.98 137.464C1829.21 120.317 1830.99 103.6 1833.73 87.7021" stroke="black" stroke-width="2" stroke-linecap="round" stroke-linejoin="round"/>
<path d="M1864.06 194.352C1864.06 194.352 1838.05 187.358 1832.9 161.744C1832.08 157.665 1831.44 153.595 1830.96 149.545" stroke="black" stroke-width="2" stroke-linecap="round" stroke-linejoin="round"/>
<path d="M1911.47 80.8692C1911.47 80.8692 1908.89 107.787 1901.87 190.191C1894.84 272.593 1877.26 431.698 1873.43 471.265C1869.59 510.845 1867.92 524.344 1867.92 524.344C1867.92 524.344 1861.05 528.758 1855.72 529.157C1850.4 529.559 1832.62 528.403 1825.86 523.361C1819.1 518.305 1821.17 510.135 1821.17 510.135L1839.04 382.695C1839.04 382.695 1856.13 253.056 1861.17 237.858C1866.21 222.674 1876.79 171.282 1878.98 153.627C1881.16 135.972 1884.53 75.2046 1897.87 44.1809C1911.19 13.1555 1914.31 42.3236 1911.49 80.8709L1911.47 80.8692Z" fill="#9FD31D" stroke="black" stroke-width="3" stroke-linecap="round" stroke-linejoin="round"/>
<path d="M1892.55 219.595C1887.29 268.626 1882.51 313.283 1882.51 313.283C1882.51 313.283 1862.56 502.694 1862.27 504.991C1861.99 507.287 1859.42 513.908 1859.42 513.908" stroke="black" stroke-width="2" stroke-linecap="round" stroke-linejoin="round"/>
<path d="M1908.4 38.2174C1908.4 38.2174 1909.3 63.8347 1905.34 100.453C1903.48 117.704 1898.3 165.945 1893.34 212.14" stroke="black" stroke-width="2" stroke-linecap="round" stroke-linejoin="round"/>
<path d="M1843.74 518.92L1868.47 332.99" stroke="black" stroke-width="2" stroke-linecap="round" stroke-linejoin="round"/>
<path d="M1901.79 76.2095L1905.06 41.8667" stroke="black" stroke-width="2" stroke-linecap="round" stroke-linejoin="round"/>
<path d="M1870.46 321.635L1901.19 82.5444" stroke="black" stroke-width="2" stroke-linecap="round" stroke-linejoin="round"/>
<path d="M1880.17 188.193L1879.13 195.175" stroke="black" stroke-width="2" stroke-linecap="round" stroke-linejoin="round"/>
<path d="M1900.01 54.5749L1881.5 179.288" stroke="black" stroke-width="2" stroke-linecap="round" stroke-linejoin="round"/>
<path d="M1866.23 261.988C1866.23 261.988 1834.7 488.819 1833.66 515.929" stroke="black" stroke-width="2" stroke-linecap="round" stroke-linejoin="round"/>
</g>
<g clip-path="url(#clip5_45_574)">
<path d="M1897.85 325.646C1897.85 325.646 1917.39 285.917 1915.42 295.602C1913.45 305.287 1902.79 329.225 1902.79 329.225C1902.79 329.225 1939.58 307.742 1933.92 311.884C1928.26 316.025 1914.48 328.241 1914.48 328.241C1914.48 328.241 1935.05 322.385 1932.15 325.228C1929.26 328.072 1922.23 330.018 1922.23 330.018C1922.23 330.018 1964.9 313.236 1963.79 319.379C1962.68 325.522 1924.83 335.985 1924.83 335.985C1924.83 335.985 1950.37 333.187 1942.62 337.132C1934.87 341.076 1926.23 343.38 1926.23 343.38C1926.23 343.38 1956.27 343.087 1951.86 345.263C1947.45 347.439 1935.66 349.464 1935.66 349.464C1935.66 349.464 1951.57 348.368 1956.65 350.403C1961.73 352.437 1954.65 354.888 1954.65 354.888C1954.65 354.888 1960.86 355.996 1966.95 358.633C1973.03 361.271 1955.75 360.172 1945.4 358.167C1935.05 356.161 1908.47 353.14 1908.47 353.14C1908.47 353.14 1940.83 361.902 1932.76 363.734C1924.69 365.567 1901.73 357.704 1901.73 357.704C1901.73 357.704 1912.68 364.455 1908.92 365.135C1905.17 365.815 1883.26 358.051 1883.26 358.051C1883.26 358.051 1887.32 365.189 1883.62 365.365C1879.91 365.542 1876.52 356.91 1876.52 356.91C1876.52 356.91 1874.7 365.053 1873 360.745C1871.29 356.419 1870.59 352.731 1870.59 352.731C1870.59 352.731 1863.27 363.47 1862.5 360.283C1861.75 357.098 1863.76 352.613 1863.76 352.613C1863.76 352.613 1852.34 361.936 1853.16 358.898C1853.98 355.859 1855.3 352.869 1855.3 352.869C1855.3 352.869 1836.2 365.618 1837.34 358.97C1838.5 352.323 1841.39 349.479 1841.39 349.479C1841.39 349.479 1832.75 351.783 1827.05 350.722C1821.34 349.662 1827.53 345.57 1827.53 345.57C1827.53 345.57 1787.74 348.587 1786.36 346.375C1784.99 344.164 1812.58 342.083 1812.58 342.083C1812.58 342.083 1798.48 340.758 1789.76 332.659C1781.05 324.561 1808.76 332.361 1808.76 332.361C1808.76 332.361 1796.8 325.007 1799.52 324.213C1802.23 323.419 1808.71 327.16 1808.71 327.16C1808.71 327.16 1788.19 304.441 1791.61 301.647C1795.03 298.853 1823.57 331.67 1825.04 332.841C1826.51 334.012 1801.7 272.458 1809.16 277.307C1816.62 282.155 1829.51 312.995 1829.51 312.995C1829.51 312.995 1831.74 289.298 1832.82 294.598C1833.9 299.897 1837.19 320.996 1837.19 320.996C1837.19 320.996 1842.93 293.482 1844.39 300.375C1845.86 307.268 1850.47 325.36 1850.47 325.36C1850.47 325.36 1860.42 309.144 1863.17 313.567C1865.91 317.989 1863.18 330.194 1863.18 330.194C1863.18 330.194 1872.2 307.135 1873.13 313.978C1874.07 320.821 1869.05 340.616 1869.05 340.616C1869.05 340.616 1882.22 301.321 1883.63 308.734C1885.05 316.147 1881.27 328.253 1881.27 328.253C1881.27 328.253 1894.83 307.179 1894.01 315.939C1893.19 324.7 1890.95 331.752 1890.95 331.752L1897.84 325.644L1897.85 325.646Z" fill="#573C2C" stroke="black" stroke-linecap="round" stroke-linejoin="round"/>
</g>
<path d="M175.861 355.468C121.485 354.701 34.524 365.199 -6.91609 371.201C-9.85663 371.627 -12 374.148 -12 377.119V764C-12 767.314 -9.31371 770 -6 770H1971C1974.31 770 1977 767.314 1977 764V334.844C1977 331.219 1973.82 328.417 1970.23 328.852C1943.57 332.075 1881.11 338.386 1796.23 343.481C1679.76 350.472 1614.44 343.481 1561.27 343.481C1508.11 343.481 1422.53 374.447 1318.73 356.967C1214.92 339.487 1177.45 331.995 1134.41 334.493C1091.37 336.99 1084.28 343.481 991.108 341.983C859.167 333.604 865.343 342.251 849.946 343.438C849.544 343.469 849.125 343.453 848.725 343.396L839.348 342.075C838.912 342.014 838.471 342 838.033 342.035L820.601 343.43C820.173 343.464 819.748 343.453 819.322 343.395C810.46 342.205 792.468 339.985 786.537 339.985C778.941 339.985 771.346 344.979 763.244 343.481C755.142 341.983 753.623 339.985 722.735 343.481C698.203 346.258 612.753 347.295 572.212 347.473C571.613 347.475 571.041 347.388 570.468 347.214L559.018 343.74C558.454 343.568 557.869 343.48 557.279 343.484C548.498 343.538 528.752 344.389 513.1 347.476C496.987 350.655 436.144 350.804 407.248 350.479C406.917 350.475 406.599 350.444 406.273 350.385L390.579 347.571C390.229 347.508 389.875 347.476 389.52 347.477C360.317 347.537 330.272 352.471 325.239 352.471C320.175 352.471 305.491 350.473 304.478 350.473C303.738 350.473 295.06 351.584 289.703 352.283C288.762 352.406 287.81 352.299 286.904 352.018C281.936 350.479 271.714 348.251 261.437 348.975C247.259 349.973 246.752 356.466 175.861 355.468Z" fill="#C77E35"/>
<path d="M145 369.5C152.333 370.316 169.6 371.949 180 371.949C190.4 371.949 234.667 368.316 255.5 366.5M50 395L71.0925 389.166C72.6334 388.74 74.2807 388.946 75.6688 389.739L80.5 392.5M116 399C119 398.5 143.5 395 149 395M323.5 411.5C347.333 413.5 400.9 417.2 424.5 416C448.1 414.8 461 412.5 464.5 411.5M678 356.5C691.5 356.333 721.9 355.6 735.5 354C749.1 352.4 759.663 355 763.244 356.5M662 363L691 361.5M743 440C767.833 440 822.7 439.1 843.5 435.5C849.667 434 863.9 431.9 871.5 435.5M1091.5 367C1113.5 366.011 1160 363.326 1170 360.5M1060 374H1095M1766.5 368.5C1789.33 368.167 1838.7 366.8 1853.5 364M1792.5 378.5C1783.83 376.833 1763.1 374 1749.5 376M1685 389H1721.5M1884 393.5L1937.5 389M175.861 355.468C121.485 354.701 34.524 365.199 -6.91609 371.201C-9.85663 371.627 -12 374.148 -12 377.119V764C-12 767.314 -9.31371 770 -6 770H1971C1974.31 770 1977 767.314 1977 764V334.844C1977 331.219 1973.82 328.417 1970.23 328.852C1943.57 332.075 1881.11 338.386 1796.23 343.481C1679.76 350.472 1614.44 343.481 1561.27 343.481C1508.11 343.481 1422.53 374.447 1318.73 356.967C1214.92 339.487 1177.45 331.995 1134.41 334.493C1091.37 336.99 1084.28 343.481 991.108 341.983C859.167 333.604 865.343 342.251 849.946 343.438C849.544 343.469 849.125 343.453 848.725 343.396L839.348 342.075C838.912 342.014 838.471 342 838.033 342.035L820.6 343.43C820.173 343.464 819.748 343.453 819.322 343.395C810.46 342.205 792.468 339.985 786.537 339.985C778.941 339.985 771.346 344.979 763.244 343.481C755.142 341.983 753.623 339.985 722.735 343.481C698.203 346.258 612.753 347.295 572.212 347.473C571.613 347.475 571.041 347.388 570.468 347.214L559.018 343.74C558.454 343.568 557.869 343.48 557.279 343.484C548.498 343.538 528.752 344.389 513.1 347.476C496.987 350.655 436.144 350.804 407.248 350.479C406.917 350.475 406.599 350.444 406.273 350.385L390.579 347.571C390.229 347.508 389.875 347.476 389.52 347.477C360.317 347.537 330.272 352.471 325.239 352.471C320.175 352.471 305.491 350.473 304.478 350.473C303.738 350.473 295.06 351.584 289.703 352.283C288.762 352.406 287.81 352.299 286.904 352.018C281.936 350.479 271.714 348.251 261.437 348.975C247.259 349.973 246.752 356.466 175.861 355.468Z" stroke="black" stroke-width="3" stroke-linecap="round"/>
<g clip-path="url(#clip6_45_574)">
<path d="M870.153 379.141C870.153 379.141 857.155 344.578 858.03 352.786C858.905 360.993 865.82 381.731 865.82 381.731C865.82 381.731 837.227 360.993 841.559 364.879C845.892 368.765 856.28 380 856.28 380C856.28 380 839.824 373.524 841.983 376.114C844.142 378.705 849.773 380.873 849.773 380.873C849.773 380.873 815.986 363.584 816.424 368.779C816.861 373.974 847.177 385.631 847.177 385.631C847.177 385.631 826.388 381.309 832.456 385.195C838.525 389.081 845.455 391.671 845.455 391.671C845.455 391.671 820.771 389.081 824.228 391.235C827.686 393.389 837.227 395.993 837.227 395.993C837.227 395.993 824.228 393.839 819.896 395.134C815.563 396.43 821.194 399.02 821.194 399.02C821.194 399.02 816 399.457 810.792 401.174C805.585 402.892 819.881 403.328 828.547 402.469C837.213 401.611 859.3 401.174 859.3 401.174C859.3 401.174 832.019 405.933 838.511 408.087C845.003 410.241 864.494 405.496 864.494 405.496C864.494 405.496 854.967 410.255 858.001 411.114C861.036 411.973 879.651 407.228 879.651 407.228C879.651 407.228 875.756 412.846 878.79 413.282C881.825 413.718 885.282 406.806 885.282 406.806C885.282 406.806 886.143 413.718 887.879 410.269C889.615 406.806 890.476 403.793 890.476 403.793C890.476 403.793 895.67 413.296 896.545 410.706C897.406 408.115 896.107 404.229 896.107 404.229C896.107 404.229 904.773 412.874 904.335 410.283C903.898 407.693 903.037 405.102 903.037 405.102C903.037 405.102 917.757 417.196 917.334 411.578C916.896 405.961 914.737 403.371 914.737 403.371C914.737 403.371 921.666 405.961 926.437 405.525C931.207 405.088 926.437 401.202 926.437 401.202C926.437 401.202 958.925 406.82 960.224 405.088C961.522 403.356 938.998 399.471 938.998 399.471C938.998 399.471 950.697 399.471 958.488 393.417C966.278 387.363 942.893 391.685 942.893 391.685C942.893 391.685 953.294 386.504 951.121 385.631C948.947 384.758 943.33 387.363 943.33 387.363C943.33 387.363 961.96 370.074 959.363 367.484C956.766 364.893 930.769 389.953 929.471 390.812C928.173 391.671 953.322 342.424 946.816 345.873C940.31 349.322 927.326 373.96 927.326 373.96C927.326 373.96 927.326 354.081 926.027 358.403C924.729 362.725 920.396 380.014 920.396 380.014C920.396 380.014 917.799 356.685 916.063 362.303C914.328 367.92 909.134 382.604 909.134 382.604C909.134 382.604 902.204 368.343 899.607 371.806C897.011 375.269 898.309 385.631 898.309 385.631C898.309 385.631 892.678 365.752 891.379 371.37C890.081 376.987 892.678 393.839 892.678 393.839C892.678 393.839 884.887 360.135 883.151 366.189C881.415 372.242 883.589 382.604 883.589 382.604C883.589 382.604 874.062 364.02 874.062 371.37C874.062 378.719 875.361 384.758 875.361 384.758L870.167 379.141H870.153Z" fill="#573C2C" stroke="black" stroke-linecap="round" stroke-linejoin="round"/>
</g>
<defs>
<clipPath id="clip0_45_574">
<rect width="161.599" height="378.779" fill="white" transform="translate(82.01 64.6802) rotate(-1.68449)"/>
</clipPath>
<clipPath id="clip1_45_574">
<rect width="176" height="79" fill="white" transform="translate(79 305)"/>
</clipPath>
<clipPath id="clip2_45_574">
<rect width="161.599" height="378.779" fill="white" transform="matrix(-0.999568 -0.0293956 -0.0293956 0.999568 1213.99 38.7503)"/>
</clipPath>
<clipPath id="clip3_45_574">
<rect width="176" height="79" fill="white" transform="matrix(-1 0 0 1 1217 279.07)"/>
</clipPath>
<clipPath id="clip4_45_574">
<rect width="168.989" height="396.103" fill="white" transform="matrix(-0.992437 -0.122758 -0.122758 0.992437 1995.77 41.3707)"/>
</clipPath>
<clipPath id="clip5_45_574">
<rect width="184.049" height="82.6131" fill="white" transform="matrix(-0.995616 -0.0935313 -0.0935313 0.995616 1975.4 291.874)"/>
</clipPath>
<clipPath id="clip6_45_574">
<rect width="152" height="69" fill="white" transform="translate(809 345)"/>
</clipPath>
</defs>
</svg>
