<svg width="1920" height="1005" viewBox="0 0 1920 1005" fill="none" xmlns="http://www.w3.org/2000/svg">
<g clip-path="url(#clip0_45_418)">
<rect width="1920" height="1005" fill="#FFBF00"/>
<path d="M1058.88 1995.98C983.223 1850.85 914.49 1701.31 865.688 1544.82C817.177 1389.27 789.245 1225.1 807.804 1062.14C811.307 1031.38 814.747 998.889 824.003 969.261C833.266 939.609 844.786 910.572 857.284 882.15C883.954 821.482 916.47 763.668 949.61 706.352C944.473 715.255 939.353 724.167 934.271 733.094C937.419 734.9 942.643 737.337 949.61 738.788C953.113 721.959 956.68 705.153 960.27 688.348C960.262 688.206 960.254 688.135 960.246 688.001C960.294 687.977 960.309 687.969 960.357 687.946C960.357 687.93 960.349 687.93 960.341 687.914C960.341 687.914 960.349 687.914 960.357 687.922C960.357 687.914 960.365 687.906 960.373 687.898C960.349 687.882 960.341 687.875 960.317 687.859C960.341 687.859 960.349 687.859 960.365 687.859C960.38 687.804 960.38 687.78 960.396 687.725C960.452 687.677 960.483 687.646 960.538 687.599C960.522 687.583 960.515 687.567 960.499 687.551C960.531 687.551 960.538 687.559 960.57 687.567C960.586 687.551 960.601 687.543 960.617 687.528C960.617 687.551 960.617 687.559 960.617 687.583C960.688 687.599 960.72 687.606 960.791 687.614C960.728 687.575 960.696 687.559 960.625 687.52C960.641 687.504 960.657 687.496 960.672 687.48C960.72 687.535 960.751 687.567 960.799 687.622C960.854 687.638 960.878 687.638 960.933 687.654C960.933 687.677 960.933 687.685 960.933 687.701C960.964 687.685 960.988 687.685 961.02 687.669C961.043 687.717 961.051 687.733 961.067 687.78C961.201 687.764 961.264 687.764 961.398 687.748C962.969 688.08 963.75 688.245 965.32 688.576C979.183 696.502 993.055 704.404 1006.96 712.251C1006.64 712.803 1006.48 713.079 1006.16 713.623C991.098 705.058 976.082 696.431 961.067 687.78C961.114 687.89 961.146 687.945 961.193 688.056C961.43 688.324 961.548 688.458 961.785 688.718C961.619 688.624 961.532 688.576 961.367 688.482C961.367 688.498 961.375 688.513 961.383 688.529C961.564 688.632 961.651 688.687 961.832 688.789C973.131 701.289 984.446 713.781 995.808 726.225C1000.86 721.667 1004.06 717.124 1005.91 714.009C993.71 707.069 981.535 700.09 969.368 693.095C981.551 700.059 993.749 706.998 1005.97 713.899C1006.02 713.812 1006.07 713.733 1006.11 713.647C1006.06 713.749 1006.03 713.796 1005.97 713.899C1062.44 745.68 1119.83 776.081 1180.02 800.284C1237.98 823.588 1295.74 835.693 1357.95 841.095C1516.54 854.864 1675.45 825.953 1826.34 778.321C1978.96 730.144 2124.98 663.151 2266.82 589.526C2266.99 590.827 2267.08 591.474 2267.25 592.775C2285.43 738.504 2259.59 883.704 2202.95 1018.54C2044.43 1040.62 1884.08 1054.45 1723.93 1047.53C1563.29 1040.59 1402.05 1011.66 1256.01 942.314C1137.24 885.912 1048.07 784.724 961.391 688.584C1012.85 804.582 1066.72 929.451 1156.49 1021.89C1203.16 1069.94 1255.25 1113.13 1309.55 1152.26C1380.62 1203.48 1458.72 1241.11 1539.42 1274.82C1670.88 1329.72 1807.22 1372.22 1944.08 1411.35C1855.2 1508.46 1755.34 1593.9 1650.78 1673.61C1541.66 1593.18 1432.79 1511.94 1330.57 1422.79C1214.9 1321.91 1106.34 1210.21 1043.55 1068.16C990.427 947.952 973.802 818.422 960.278 688.908C933.095 815.394 904.351 947.164 924.503 1076.79C948.695 1232.41 1013.09 1377.84 1096.32 1510.64C1177.08 1639.52 1275.48 1754.57 1377.25 1867.19C1330.94 1896.14 1284.79 1925.81 1234.54 1947.59C1178.42 1971.9 1119.28 1987.32 1058.81 1995.98C1058.83 1995.98 1058.84 1995.99 1058.87 1996L1058.88 1995.98ZM961.154 689.751C962.913 706.391 964.689 723.023 966.535 739.655C971.759 739.079 976.856 737.699 981.653 735.546C974.773 720.302 967.955 705.035 961.154 689.751ZM960.988 688.261C960.988 688.261 960.988 688.285 960.988 688.3C961.13 688.387 961.209 688.427 961.351 688.505C961.327 688.474 961.312 688.466 961.288 688.434C961.17 688.364 961.106 688.332 960.988 688.261ZM960.594 687.654C960.578 687.725 960.57 687.756 960.562 687.827C960.625 687.812 960.657 687.804 960.728 687.78C960.68 687.725 960.657 687.701 960.609 687.646C960.609 687.646 960.601 687.646 960.594 687.646V687.654ZM960.941 687.772C960.941 687.772 960.949 687.772 960.957 687.78C961.004 687.78 961.028 687.78 961.075 687.78C961.02 687.748 960.988 687.733 960.925 687.693C960.925 687.725 960.925 687.74 960.941 687.772ZM960.807 687.622C960.807 687.622 960.854 687.677 960.893 687.717C960.909 687.717 960.925 687.709 960.941 687.701C960.885 687.67 960.862 687.654 960.815 687.63L960.807 687.622ZM631.784 1932.8C486.924 1870.52 353.371 1778.41 236.703 1672.94C325.439 1359.26 431.865 999.914 720.622 810.82C781.308 771.081 846.569 739.111 912.58 709.293C914.806 714.088 917.78 718.568 921.433 722.629C867.739 771.492 815.442 822.176 769.938 878.885C688.319 980.593 646.76 1114.26 623.31 1240.91C581.104 1468.83 598.936 1704.98 631.768 1932.8C631.768 1932.8 631.776 1932.8 631.784 1932.8ZM-26.2131 1377.76C-93.6051 1288.37 -159.387 1197.2 -218.526 1102.1C-56.678 956.667 113.092 817.499 313.761 728.969C431.944 676.826 561.56 640.778 691.554 646.496C764.864 649.721 837.314 662.166 909.085 676.842C907.964 682.197 907.657 687.575 908.138 692.843C835.799 701.037 763.507 711.517 693.219 730.901C568.219 765.364 457.824 828.887 362.05 915.879C213.127 1051.15 92.6954 1216.61 -26.2052 1377.75C-26.2052 1377.75 -26.2052 1377.76 -26.2052 1377.76L-26.2131 1377.76ZM-345.964 784.188C-346.075 783.368 -346.13 782.95 -346.24 782.13C-364.365 636.954 -338.784 492.266 -282.596 357.839C-46.1837 324.614 199.997 307.209 435.534 356.869C505.096 371.537 573.356 392.522 638.531 421.007C667.331 433.593 697.598 446.66 723.905 463.994C750.282 481.375 775.035 501.895 798.856 522.573C856.014 572.184 907.081 628.161 957.737 684.239C958.25 684.531 958.503 684.681 959.016 684.972C927.888 614.983 896.373 544.946 856.795 479.222C824.807 426.101 788.235 375.795 743.386 332.816C693.819 285.302 639.998 242.314 583.242 203.688C507.85 152.372 421.694 116.175 337.085 82.9821C219.092 36.6903 97.8163 -0.713745 -24.0354 -35.3735C64.8186 -132.641 164.695 -218.143 269.267 -298.006C438.548 -173.444 614.37 -47.0844 752.594 112.879C838.994 212.867 897.344 330.048 927.107 458.663C944.402 533.416 952.727 609.77 960.759 685.958C960.767 685.958 960.775 685.966 960.783 685.974C976.69 611.608 992.36 536.989 999.217 461.139C1032.7 90.6868 775.847 -234.097 542.765 -491.738C589.042 -520.712 635.169 -550.435 685.36 -572.303C741.382 -596.711 800.466 -612.231 860.867 -621C970.638 -410.944 1070.42 -187.403 1106.17 48.764C1125.62 177.238 1129.46 321.247 1083.18 444.618C1057.42 513.283 1023.07 578.225 986.806 641.835C983.665 640.037 978.481 637.616 971.553 636.165C968.074 652.813 964.523 669.437 960.949 686.069C961.067 686.14 961.13 686.171 961.248 686.242C961.099 686.526 961.02 686.66 960.862 686.944C960.846 686.944 960.846 686.952 960.83 686.96C960.736 687.133 960.688 687.228 960.594 687.401C960.633 687.338 960.649 687.307 960.688 687.236C960.672 687.307 960.665 687.346 960.649 687.417C960.633 687.417 960.625 687.409 960.617 687.401C960.625 687.425 960.633 687.433 960.649 687.449C960.641 687.48 960.633 687.496 960.625 687.528C960.594 687.512 960.578 687.504 960.546 687.48C960.562 687.449 960.57 687.433 960.594 687.401C960.594 687.401 960.586 687.401 960.578 687.393C960.562 687.425 960.554 687.441 960.53 687.472C945.341 678.727 930.144 669.997 914.908 661.33C914.813 661.488 914.774 661.566 914.679 661.724C856.827 629.004 798.09 597.665 736.301 572.957C665.563 544.67 593.074 534.055 517.129 530.538C213.861 518.503 -82.6138 646.622 -346.169 782.682C-346.083 783.289 -346.043 783.589 -345.964 784.196V784.188ZM925.284 648.672C920.566 652.931 917.457 657.166 915.547 660.249C929.474 668.112 943.369 676.03 957.256 683.971C946.628 672.181 935.991 660.399 925.284 648.68V648.672ZM954.605 635.297C949.373 635.865 944.284 637.237 939.479 639.383C946.351 654.642 953.153 669.926 959.939 685.217C958.195 668.569 956.435 651.929 954.605 635.297ZM960.728 687.433C960.783 687.386 960.814 687.354 960.87 687.307C960.885 687.37 960.893 687.401 960.917 687.472C960.846 687.457 960.814 687.457 960.743 687.441C960.743 687.441 960.743 687.441 960.736 687.441L960.728 687.433ZM960.704 687.188C960.728 687.149 960.744 687.125 960.767 687.086C960.767 687.102 960.775 687.102 960.783 687.117C960.751 687.149 960.736 687.157 960.704 687.188ZM960.767 687.078C960.799 687.023 960.814 686.999 960.846 686.944C960.846 686.983 960.846 687.007 960.846 687.054C960.814 687.07 960.791 687.07 960.759 687.086L960.767 687.078ZM961.951 687.677C962.566 687.614 962.874 687.583 963.489 687.512C964.026 687.819 964.294 687.977 964.839 688.285C963.687 688.04 963.111 687.914 961.959 687.669L961.951 687.677ZM960.854 686.92C961.012 686.644 961.091 686.502 961.256 686.226C961.383 686.297 961.446 686.337 961.564 686.408C961.391 686.565 961.304 686.644 961.13 686.802C961.02 686.849 960.964 686.873 960.854 686.92ZM1011.99 698.048C1013.1 692.693 1013.41 687.315 1012.92 682.039C1136.75 667.812 1260.03 645.061 1372.41 588.769C1507.22 521.248 1614.03 412.151 1711.03 298.874C1794.22 201.716 1870.76 99.0699 1946.57 -3.8761C2014 85.5214 2079.81 176.701 2139.03 271.777C2031.02 368.95 1920.95 463.395 1798.24 541.712C1671.57 622.553 1533.28 687.267 1385.06 716.028C1259.85 740.318 1135.76 723.126 1012.01 698.032C1012.01 698.032 1012.01 698.032 1012.01 698.04L1011.99 698.048ZM1008.46 665.58C1006.24 660.786 1003.25 656.314 999.596 652.253C1046.88 609.076 1093.16 564.606 1134.58 515.688C1175.42 467.448 1205.67 416.693 1230.5 358.604C1292.17 214.35 1316.06 57.076 1320.23 -98.928C1324.35 -252.771 1309.89 -406.512 1287.78 -558.613C1432.78 -496.548 1566.48 -404.485 1683.26 -299.095C1646.96 -170.069 1607.54 -41.6351 1557.7 82.8875C1525.78 162.624 1490.8 242.425 1442.15 313.503C1405.39 367.184 1364.72 418.223 1319.94 465.445C1233.86 556.199 1121.14 614.478 1008.47 665.58H1008.46Z" fill="#FFDE4A"/>
<path d="M27.3609 272.855L27.4891 271.864L28.4749 272.031L32.4731 272.71L33.459 272.877L33.3309 273.869L-26.404 736.198L-26.5322 737.19L-27.5181 737.022L-31.5162 736.344L-32.5021 736.176L-32.374 735.184L27.3609 272.855Z" fill="#FFEC95" stroke="black" stroke-width="2"/>
<path d="M-11.4155 430.941L-11.2873 429.95L-10.3015 430.117L29.6298 436.896L30.6157 437.064L30.4876 438.056L12.3869 578.149L12.2588 579.141L11.2729 578.973L-28.6584 572.194L-29.6443 572.026L-29.5161 571.035L-11.4155 430.941Z" fill="#FFEC95" stroke="black" stroke-width="2"/>
<mask id="path-4-outside-1_45_418" maskUnits="userSpaceOnUse" x="-49.6475" y="-24.7948" width="270.598" height="736.023" fill="black">
<rect fill="white" x="-49.6475" y="-24.7948" width="270.598" height="736.023"/>
<path fill-rule="evenodd" clip-rule="evenodd" d="M134.572 -20.3325L130.574 -21.0113L97.787 232.751L79.8251 229.701L51.3153 450.358L69.2772 453.407L36.4923 707.152L40.4904 707.831L73.2753 454.086L91.2466 457.137L119.756 236.481L101.785 233.43L134.572 -20.3325Z"/>
</mask>
<path fill-rule="evenodd" clip-rule="evenodd" d="M134.572 -20.3325L130.574 -21.0113L97.787 232.751L79.8251 229.701L51.3153 450.358L69.2772 453.407L36.4923 707.152L40.4904 707.831L73.2753 454.086L91.2466 457.137L119.756 236.481L101.785 233.43L134.572 -20.3325Z" fill="#FFEC95"/>
<path d="M130.574 -21.0113L128.591 -21.2676L128.857 -23.3314L130.909 -22.9831L130.574 -21.0113ZM134.572 -20.3325L134.907 -22.3043L136.802 -21.9826L136.556 -20.0762L134.572 -20.3325ZM97.787 232.751L99.7705 233.007L99.5038 235.071L97.4522 234.723L97.787 232.751ZM79.8251 229.701L77.8416 229.445L78.1082 227.381L80.1598 227.73L79.8251 229.701ZM51.3153 450.358L50.9805 452.33L49.0855 452.008L49.3318 450.102L51.3153 450.358ZM69.2772 453.407L69.6119 451.436L71.507 451.757L71.2607 453.664L69.2772 453.407ZM36.4923 707.152L36.1575 709.124L34.2625 708.802L34.5088 706.896L36.4923 707.152ZM40.4904 707.831L42.474 708.087L42.2073 710.151L40.1557 709.803L40.4904 707.831ZM73.2753 454.086L71.2918 453.83L71.5585 451.766L73.6101 452.114L73.2753 454.086ZM91.2466 457.137L93.2301 457.394L92.9634 459.457L90.9118 459.109L91.2466 457.137ZM119.756 236.481L120.091 234.509L121.986 234.831L121.74 236.737L119.756 236.481ZM101.785 233.43L101.45 235.401L99.5553 235.08L99.8016 233.173L101.785 233.43ZM130.909 -22.9831L134.907 -22.3043L134.238 -18.3607L130.239 -19.0395L130.909 -22.9831ZM95.8034 232.495L128.591 -21.2676L132.558 -20.755L99.7705 233.007L95.8034 232.495ZM80.1598 227.73L98.1217 230.779L97.4522 234.723L79.4903 231.673L80.1598 227.73ZM49.3318 450.102L77.8416 229.445L81.8086 229.958L53.2988 450.614L49.3318 450.102ZM68.9424 455.379L50.9805 452.33L51.6501 448.386L69.6119 451.436L68.9424 455.379ZM34.5088 706.896L67.2937 453.151L71.2607 453.664L38.4758 707.408L34.5088 706.896ZM40.1557 709.803L36.1575 709.124L36.8271 705.18L40.8252 705.859L40.1557 709.803ZM75.2588 454.343L42.474 708.087L38.5069 707.574L71.2918 453.83L75.2588 454.343ZM90.9118 459.109L72.9406 456.058L73.6101 452.114L91.5814 455.166L90.9118 459.109ZM121.74 236.737L93.2301 457.394L89.2631 456.881L117.773 236.224L121.74 236.737ZM102.12 231.458L120.091 234.509L119.422 238.453L101.45 235.401L102.12 231.458ZM136.556 -20.0762L103.769 233.686L99.8016 233.173L132.589 -20.5888L136.556 -20.0762Z" fill="black" mask="url(#path-4-outside-1_45_418)"/>
<mask id="path-6-outside-2_45_418" maskUnits="userSpaceOnUse" x="134.858" y="128.255" width="68.3311" height="131.44" fill="black">
<rect fill="white" x="134.858" y="128.255" width="68.3311" height="131.44"/>
<path fill-rule="evenodd" clip-rule="evenodd" d="M178.962 133.543L174.964 132.864L169.469 175.397L151.513 172.349L146.741 209.281L164.697 212.33L159.216 254.752L163.214 255.431L168.695 213.008L186.673 216.061L191.444 179.128L173.467 176.076L178.962 133.543Z"/>
</mask>
<path fill-rule="evenodd" clip-rule="evenodd" d="M178.962 133.543L174.964 132.864L169.469 175.397L151.513 172.349L146.741 209.281L164.697 212.33L159.216 254.752L163.214 255.431L168.695 213.008L186.673 216.061L191.444 179.128L173.467 176.076L178.962 133.543Z" fill="#FFEC95"/>
<path d="M174.964 132.864L172.981 132.608L173.247 130.544L175.299 130.892L174.964 132.864ZM178.962 133.543L179.297 131.571L181.192 131.893L180.946 133.799L178.962 133.543ZM169.469 175.397L171.452 175.654L171.186 177.718L169.134 177.369L169.469 175.397ZM151.513 172.349L149.53 172.093L149.796 170.029L151.848 170.377L151.513 172.349ZM146.741 209.281L146.407 211.253L144.512 210.931L144.758 209.025L146.741 209.281ZM164.697 212.33L165.032 210.358L166.927 210.68L166.68 212.586L164.697 212.33ZM159.216 254.752L158.881 256.724L156.986 256.402L157.232 254.496L159.216 254.752ZM163.214 255.431L165.197 255.687L164.931 257.751L162.879 257.403L163.214 255.431ZM168.695 213.008L166.712 212.752L166.978 210.688L169.03 211.037L168.695 213.008ZM186.673 216.061L188.656 216.317L188.39 218.381L186.338 218.032L186.673 216.061ZM191.444 179.128L191.779 177.157L193.674 177.478L193.428 179.385L191.444 179.128ZM173.467 176.076L173.132 178.048L171.237 177.726L171.483 175.82L173.467 176.076ZM175.299 130.892L179.297 131.571L178.628 135.515L174.629 134.836L175.299 130.892ZM167.485 175.141L172.981 132.608L176.948 133.121L171.452 175.654L167.485 175.141ZM151.848 170.377L169.804 173.426L169.134 177.369L151.178 174.321L151.848 170.377ZM144.758 209.025L149.53 172.093L153.497 172.605L148.725 209.537L144.758 209.025ZM164.362 214.301L146.407 211.253L147.076 207.309L165.032 210.358L164.362 214.301ZM157.232 254.496L162.713 212.073L166.68 212.586L161.199 255.008L157.232 254.496ZM162.879 257.403L158.881 256.724L159.551 252.78L163.549 253.459L162.879 257.403ZM170.679 213.265L165.197 255.687L161.23 255.175L166.712 212.752L170.679 213.265ZM186.338 218.032L168.36 214.98L169.03 211.037L187.007 214.089L186.338 218.032ZM193.428 179.385L188.656 216.317L184.689 215.804L189.461 178.872L193.428 179.385ZM173.802 174.104L191.779 177.157L191.11 181.1L173.132 178.048L173.802 174.104ZM180.946 133.799L175.45 176.333L171.483 175.82L176.979 133.287L180.946 133.799Z" fill="black" mask="url(#path-6-outside-2_45_418)"/>
<mask id="path-8-outside-3_45_418" maskUnits="userSpaceOnUse" x="204.146" y="103.589" width="66.1712" height="121.391" fill="black">
<rect fill="white" x="204.146" y="103.589" width="66.1712" height="121.391"/>
<path fill-rule="evenodd" clip-rule="evenodd" d="M246.366 108.982L242.368 108.303L237.358 147.083L219.379 144.031L215.018 177.781L232.997 180.834L227.977 219.683L231.975 220.362L236.995 181.512L254.95 184.561L259.31 150.81L241.356 147.762L246.366 108.982Z"/>
</mask>
<path fill-rule="evenodd" clip-rule="evenodd" d="M246.366 108.982L242.368 108.303L237.358 147.083L219.379 144.031L215.018 177.781L232.997 180.834L227.977 219.683L231.975 220.362L236.995 181.512L254.95 184.561L259.31 150.81L241.356 147.762L246.366 108.982Z" fill="#FFEC95"/>
<path d="M242.368 108.303L240.385 108.047L240.651 105.983L242.703 106.331L242.368 108.303ZM246.366 108.982L246.701 107.01L248.596 107.332L248.35 109.238L246.366 108.982ZM237.358 147.083L239.341 147.339L239.074 149.403L237.023 149.055L237.358 147.083ZM219.379 144.031L217.395 143.774L217.662 141.71L219.714 142.059L219.379 144.031ZM215.018 177.781L214.683 179.753L212.788 179.431L213.035 177.525L215.018 177.781ZM232.997 180.834L233.332 178.862L235.227 179.184L234.98 181.09L232.997 180.834ZM227.977 219.683L227.643 221.655L225.748 221.333L225.994 219.427L227.977 219.683ZM231.975 220.362L233.959 220.618L233.692 222.682L231.641 222.334L231.975 220.362ZM236.995 181.512L235.011 181.256L235.278 179.192L237.33 179.541L236.995 181.512ZM254.95 184.561L256.933 184.817L256.666 186.881L254.615 186.533L254.95 184.561ZM259.31 150.81L259.645 148.838L261.54 149.16L261.294 151.066L259.31 150.81ZM241.356 147.762L241.021 149.733L239.126 149.412L239.372 147.505L241.356 147.762ZM242.703 106.331L246.701 107.01L246.031 110.954L242.033 110.275L242.703 106.331ZM235.374 146.827L240.385 108.047L244.352 108.559L239.341 147.339L235.374 146.827ZM219.714 142.059L237.692 145.111L237.023 149.055L219.044 146.002L219.714 142.059ZM213.035 177.525L217.395 143.774L221.362 144.287L217.002 178.038L213.035 177.525ZM232.662 182.805L214.683 179.753L215.353 175.81L233.332 178.862L232.662 182.805ZM225.994 219.427L231.013 180.577L234.98 181.09L229.961 219.939L225.994 219.427ZM231.641 222.334L227.643 221.655L228.312 217.711L232.31 218.39L231.641 222.334ZM238.978 181.769L233.959 220.618L229.992 220.105L235.011 181.256L238.978 181.769ZM254.615 186.533L236.66 183.484L237.33 179.541L255.284 182.589L254.615 186.533ZM261.294 151.066L256.933 184.817L252.966 184.304L257.327 150.554L261.294 151.066ZM241.69 145.79L259.645 148.838L258.976 152.782L241.021 149.733L241.69 145.79ZM248.35 109.238L243.339 148.018L239.372 147.505L244.383 108.725L248.35 109.238Z" fill="black" mask="url(#path-8-outside-3_45_418)"/>
<mask id="path-10-outside-4_45_418" maskUnits="userSpaceOnUse" x="260.301" y="114.646" width="74.1674" height="164.447" fill="black">
<rect fill="white" x="260.301" y="114.646" width="74.1674" height="164.447"/>
<path fill-rule="evenodd" clip-rule="evenodd" d="M309.252 119.598L305.254 118.92L298.275 172.937L280.251 169.877L274.162 216.999L292.186 220.059L285.162 274.426L289.16 275.104L296.185 220.738L314.094 223.778L320.182 176.656L302.273 173.616L309.252 119.598Z"/>
</mask>
<path fill-rule="evenodd" clip-rule="evenodd" d="M309.252 119.598L305.254 118.92L298.275 172.937L280.251 169.877L274.162 216.999L292.186 220.059L285.162 274.426L289.16 275.104L296.185 220.738L314.094 223.778L320.182 176.656L302.273 173.616L309.252 119.598Z" fill="#FFEC95"/>
<path d="M305.254 118.92L303.271 118.663L303.537 116.599L305.589 116.948L305.254 118.92ZM309.252 119.598L309.587 117.627L311.482 117.948L311.236 119.855L309.252 119.598ZM298.275 172.937L300.258 173.193L299.992 175.257L297.94 174.909L298.275 172.937ZM280.251 169.877L278.267 169.621L278.534 167.557L280.585 167.905L280.251 169.877ZM274.162 216.999L273.827 218.971L271.932 218.649L272.179 216.743L274.162 216.999ZM292.186 220.059L292.521 218.087L294.416 218.409L294.17 220.315L292.186 220.059ZM285.162 274.426L284.827 276.397L282.932 276.076L283.179 274.169L285.162 274.426ZM289.16 275.104L291.144 275.361L290.877 277.424L288.826 277.076L289.16 275.104ZM296.185 220.738L294.201 220.482L294.468 218.418L296.519 218.766L296.185 220.738ZM314.094 223.778L316.077 224.035L315.81 226.098L313.759 225.75L314.094 223.778ZM320.182 176.656L320.517 174.685L322.412 175.006L322.165 176.913L320.182 176.656ZM302.273 173.616L301.938 175.588L300.043 175.266L300.289 173.36L302.273 173.616ZM305.589 116.948L309.587 117.627L308.918 121.57L304.919 120.891L305.589 116.948ZM296.291 172.681L303.271 118.663L307.238 119.176L300.258 173.193L296.291 172.681ZM280.585 167.905L298.61 170.965L297.94 174.909L279.916 171.849L280.585 167.905ZM272.179 216.743L278.267 169.621L282.234 170.133L276.146 217.255L272.179 216.743ZM291.852 222.031L273.827 218.971L274.497 215.027L292.521 218.087L291.852 222.031ZM283.179 274.169L290.203 219.803L294.17 220.315L287.146 274.682L283.179 274.169ZM288.826 277.076L284.827 276.397L285.497 272.454L289.495 273.133L288.826 277.076ZM298.168 220.994L291.144 275.361L287.177 274.848L294.201 220.482L298.168 220.994ZM313.759 225.75L295.85 222.71L296.519 218.766L314.428 221.807L313.759 225.75ZM322.165 176.913L316.077 224.035L312.11 223.522L318.198 176.4L322.165 176.913ZM302.608 171.644L320.517 174.685L319.847 178.628L301.938 175.588L302.608 171.644ZM311.236 119.855L304.257 173.872L300.289 173.36L307.269 119.342L311.236 119.855Z" fill="black" mask="url(#path-10-outside-4_45_418)"/>
<mask id="path-12-outside-5_45_418" maskUnits="userSpaceOnUse" x="301.321" y="193.291" width="91.0391" height="233.033" fill="black">
<rect fill="white" x="301.321" y="193.291" width="91.0391" height="233.033"/>
<path fill-rule="evenodd" clip-rule="evenodd" d="M363.381 197.753L359.383 197.075L349.255 275.461L331.306 272.414L322.502 340.551L340.451 343.599L330.33 421.938L334.328 422.617L344.449 344.277L362.434 347.331L371.238 279.193L353.253 276.14L363.381 197.753Z"/>
</mask>
<path fill-rule="evenodd" clip-rule="evenodd" d="M363.381 197.753L359.383 197.075L349.255 275.461L331.306 272.414L322.502 340.551L340.451 343.599L330.33 421.938L334.328 422.617L344.449 344.277L362.434 347.331L371.238 279.193L353.253 276.14L363.381 197.753Z" fill="#FFEC95"/>
<path d="M359.383 197.075L357.399 196.818L357.666 194.755L359.718 195.103L359.383 197.075ZM363.381 197.753L363.716 195.782L365.611 196.103L365.364 198.01L363.381 197.753ZM349.255 275.461L351.239 275.717L350.972 277.781L348.92 277.433L349.255 275.461ZM331.306 272.414L329.323 272.157L329.589 270.093L331.641 270.442L331.306 272.414ZM322.502 340.551L322.168 342.523L320.273 342.201L320.519 340.295L322.502 340.551ZM340.451 343.599L340.786 341.627L342.681 341.949L342.435 343.855L340.451 343.599ZM330.33 421.938L329.995 423.91L328.1 423.588L328.346 421.682L330.33 421.938ZM334.328 422.617L336.311 422.873L336.044 424.937L333.993 424.589L334.328 422.617ZM344.449 344.277L342.466 344.021L342.732 341.957L344.784 342.306L344.449 344.277ZM362.434 347.331L364.417 347.587L364.151 349.651L362.099 349.303L362.434 347.331ZM371.238 279.193L371.572 277.221L373.467 277.543L373.221 279.449L371.238 279.193ZM353.253 276.14L352.918 278.111L351.023 277.79L351.27 275.883L353.253 276.14ZM359.718 195.103L363.716 195.782L363.046 199.725L359.048 199.046L359.718 195.103ZM347.272 275.205L357.399 196.818L361.366 197.331L351.239 275.717L347.272 275.205ZM331.641 270.442L349.59 273.489L348.92 277.433L330.971 274.385L331.641 270.442ZM320.519 340.295L329.323 272.157L333.29 272.67L324.486 340.808L320.519 340.295ZM340.117 345.57L322.168 342.523L322.837 338.58L340.786 341.627L340.117 345.57ZM328.346 421.682L338.468 343.342L342.435 343.855L332.313 422.194L328.346 421.682ZM333.993 424.589L329.995 423.91L330.664 419.966L334.662 420.645L333.993 424.589ZM346.433 344.534L336.311 422.873L332.344 422.361L342.466 344.021L346.433 344.534ZM362.099 349.303L344.115 346.249L344.784 342.306L362.769 345.359L362.099 349.303ZM373.221 279.449L364.417 347.587L360.45 347.074L369.254 278.937L373.221 279.449ZM353.588 274.168L371.572 277.221L370.903 281.165L352.918 278.111L353.588 274.168ZM365.364 198.01L355.237 276.396L351.27 275.883L361.397 197.497L365.364 198.01Z" fill="black" mask="url(#path-12-outside-5_45_418)"/>
<mask id="path-14-outside-6_45_418" maskUnits="userSpaceOnUse" x="369.721" y="168.756" width="89.696" height="229.937" fill="black">
<rect fill="white" x="369.721" y="168.756" width="89.696" height="229.937"/>
<path fill-rule="evenodd" clip-rule="evenodd" d="M430.788 173.219L426.79 172.54L416.8 249.856L398.859 246.81L390.178 313.993L408.12 317.039L398.144 394.248L402.142 394.927L412.118 317.718L430.11 320.772L438.79 253.589L420.798 250.534L430.788 173.219Z"/>
</mask>
<path fill-rule="evenodd" clip-rule="evenodd" d="M430.788 173.219L426.79 172.54L416.8 249.856L398.859 246.81L390.178 313.993L408.12 317.039L398.144 394.248L402.142 394.927L412.118 317.718L430.11 320.772L438.79 253.589L420.798 250.534L430.788 173.219Z" fill="#FFEC95"/>
<path d="M426.79 172.54L424.806 172.284L425.073 170.22L427.124 170.568L426.79 172.54ZM430.788 173.219L431.123 171.247L433.018 171.569L432.771 173.475L430.788 173.219ZM416.8 249.856L418.784 250.112L418.517 252.176L416.465 251.827L416.8 249.856ZM398.859 246.81L396.875 246.553L397.142 244.49L399.194 244.838L398.859 246.81ZM390.178 313.993L389.844 315.965L387.949 315.643L388.195 313.737L390.178 313.993ZM408.12 317.039L408.455 315.067L410.35 315.389L410.103 317.295L408.12 317.039ZM398.144 394.248L397.809 396.22L395.914 395.898L396.161 393.992L398.144 394.248ZM402.142 394.927L404.126 395.183L403.859 397.247L401.807 396.899L402.142 394.927ZM412.118 317.718L410.134 317.461L410.401 315.398L412.453 315.746L412.118 317.718ZM430.11 320.772L432.093 321.029L431.827 323.092L429.775 322.744L430.11 320.772ZM438.79 253.589L439.125 251.617L441.02 251.939L440.774 253.845L438.79 253.589ZM420.798 250.534L420.464 252.506L418.569 252.185L418.815 250.278L420.798 250.534ZM427.124 170.568L431.123 171.247L430.453 175.191L426.455 174.512L427.124 170.568ZM414.817 249.599L424.806 172.284L428.773 172.796L418.784 250.112L414.817 249.599ZM399.194 244.838L417.135 247.884L416.465 251.827L398.524 248.781L399.194 244.838ZM388.195 313.737L396.875 246.553L400.842 247.066L392.162 314.249L388.195 313.737ZM407.785 319.011L389.844 315.965L390.513 312.021L408.455 315.067L407.785 319.011ZM396.161 393.992L406.136 316.783L410.103 317.295L400.128 394.505L396.161 393.992ZM401.807 396.899L397.809 396.22L398.479 392.277L402.477 392.955L401.807 396.899ZM414.101 317.974L404.126 395.183L400.159 394.671L410.134 317.461L414.101 317.974ZM429.775 322.744L411.783 319.689L412.453 315.746L430.444 318.8L429.775 322.744ZM440.774 253.845L432.093 321.029L428.126 320.516L436.807 253.333L440.774 253.845ZM421.133 248.563L439.125 251.617L438.455 255.561L420.464 252.506L421.133 248.563ZM432.771 173.475L422.782 250.791L418.815 250.278L428.804 172.963L432.771 173.475Z" fill="black" mask="url(#path-14-outside-6_45_418)"/>
<mask id="path-16-outside-7_45_418" maskUnits="userSpaceOnUse" x="414.476" y="173.618" width="117.549" height="308.628" fill="black">
<rect fill="white" x="414.476" y="173.618" width="117.549" height="308.628"/>
<path fill-rule="evenodd" clip-rule="evenodd" d="M494.413 178.08L490.415 177.401L476.879 282.167L458.927 279.12L447.161 370.182L465.113 373.23L451.587 477.914L455.586 478.593L469.111 373.909L487.093 376.961L498.858 285.899L480.877 282.846L494.413 178.08Z"/>
</mask>
<path fill-rule="evenodd" clip-rule="evenodd" d="M494.413 178.08L490.415 177.401L476.879 282.167L458.927 279.12L447.161 370.182L465.113 373.23L451.587 477.914L455.586 478.593L469.111 373.909L487.093 376.961L498.858 285.899L480.877 282.846L494.413 178.08Z" fill="#FFEC95"/>
<path d="M490.415 177.401L488.431 177.145L488.698 175.081L490.75 175.43L490.415 177.401ZM494.413 178.08L494.748 176.108L496.643 176.43L496.397 178.337L494.413 178.08ZM476.879 282.167L478.862 282.424L478.596 284.487L476.544 284.139L476.879 282.167ZM458.927 279.12L456.943 278.863L457.21 276.799L459.262 277.148L458.927 279.12ZM447.161 370.182L446.826 372.154L444.931 371.832L445.178 369.926L447.161 370.182ZM465.113 373.23L465.448 371.258L467.343 371.58L467.097 373.486L465.113 373.23ZM451.587 477.914L451.253 479.886L449.358 479.564L449.604 477.658L451.587 477.914ZM455.586 478.593L457.569 478.85L457.302 480.913L455.251 480.565L455.586 478.593ZM469.111 373.909L467.128 373.652L467.394 371.588L469.446 371.937L469.111 373.909ZM487.093 376.961L489.076 377.218L488.809 379.281L486.758 378.933L487.093 376.961ZM498.858 285.899L499.193 283.927L501.088 284.249L500.842 286.155L498.858 285.899ZM480.877 282.846L480.542 284.818L478.647 284.496L478.893 282.59L480.877 282.846ZM490.75 175.43L494.748 176.108L494.078 180.052L490.08 179.373L490.75 175.43ZM474.895 281.911L488.431 177.145L492.398 177.658L478.862 282.424L474.895 281.911ZM459.262 277.148L477.213 280.196L476.544 284.139L458.592 281.091L459.262 277.148ZM445.178 369.926L456.943 278.863L460.91 279.376L449.145 370.438L445.178 369.926ZM464.778 375.202L446.826 372.154L447.496 368.21L465.448 371.258L464.778 375.202ZM449.604 477.658L463.13 372.974L467.097 373.486L453.571 478.171L449.604 477.658ZM455.251 480.565L451.253 479.886L451.922 475.943L455.92 476.621L455.251 480.565ZM471.095 374.165L457.569 478.85L453.602 478.337L467.128 373.652L471.095 374.165ZM486.758 378.933L468.776 375.88L469.446 371.937L487.427 374.99L486.758 378.933ZM500.842 286.155L489.076 377.218L485.109 376.705L496.875 285.643L500.842 286.155ZM481.212 280.874L499.193 283.927L498.523 287.871L480.542 284.818L481.212 280.874ZM496.397 178.337L482.86 283.102L478.893 282.59L492.43 177.824L496.397 178.337Z" fill="black" mask="url(#path-16-outside-7_45_418)"/>
<mask id="path-18-outside-8_45_418" maskUnits="userSpaceOnUse" x="471.199" y="354.847" width="93.9588" height="241.212" fill="black">
<rect fill="white" x="471.199" y="354.847" width="93.9588" height="241.212"/>
<path fill-rule="evenodd" clip-rule="evenodd" d="M535.245 359.31L531.247 358.631L520.737 439.974L502.805 436.929L493.673 507.612L511.605 510.657L501.108 591.899L505.106 592.578L515.603 511.336L533.604 514.392L542.737 443.709L524.735 440.653L535.245 359.31Z"/>
</mask>
<path fill-rule="evenodd" clip-rule="evenodd" d="M535.245 359.31L531.247 358.631L520.737 439.974L502.805 436.929L493.673 507.612L511.605 510.657L501.108 591.899L505.106 592.578L515.603 511.336L533.604 514.392L542.737 443.709L524.735 440.653L535.245 359.31Z" fill="#FFEC95"/>
<path d="M531.247 358.631L529.264 358.375L529.53 356.311L531.582 356.659L531.247 358.631ZM535.245 359.31L535.58 357.338L537.475 357.66L537.229 359.566L535.245 359.31ZM520.737 439.974L522.721 440.23L522.454 442.294L520.403 441.946L520.737 439.974ZM502.805 436.929L500.822 436.673L501.088 434.609L503.14 434.958L502.805 436.929ZM493.673 507.612L493.338 509.584L491.443 509.262L491.689 507.356L493.673 507.612ZM511.605 510.657L511.94 508.685L513.835 509.007L513.588 510.913L511.605 510.657ZM501.108 591.899L500.773 593.871L498.878 593.549L499.124 591.642L501.108 591.899ZM505.106 592.578L507.089 592.834L506.823 594.898L504.771 594.549L505.106 592.578ZM515.603 511.336L513.619 511.079L513.886 509.015L515.938 509.364L515.603 511.336ZM533.604 514.392L535.588 514.648L535.321 516.712L533.269 516.363L533.604 514.392ZM542.737 443.709L543.071 441.737L544.966 442.059L544.72 443.965L542.737 443.709ZM524.735 440.653L524.401 442.624L522.505 442.303L522.752 440.396L524.735 440.653ZM531.582 356.659L535.58 357.338L534.91 361.281L530.912 360.603L531.582 356.659ZM518.754 439.718L529.264 358.375L533.231 358.887L522.721 440.23L518.754 439.718ZM503.14 434.958L521.072 438.002L520.403 441.946L502.47 438.901L503.14 434.958ZM491.689 507.356L500.822 436.673L504.789 437.186L495.656 507.869L491.689 507.356ZM511.27 512.629L493.338 509.584L494.007 505.64L511.94 508.685L511.27 512.629ZM499.124 591.642L509.621 510.4L513.588 510.913L503.091 592.155L499.124 591.642ZM504.771 594.549L500.773 593.871L501.443 589.927L505.441 590.606L504.771 594.549ZM517.586 511.592L507.089 592.834L503.122 592.321L513.619 511.079L517.586 511.592ZM533.269 516.363L515.268 513.307L515.938 509.364L533.939 512.42L533.269 516.363ZM544.72 443.965L535.588 514.648L531.621 514.135L540.753 443.453L544.72 443.965ZM525.07 438.681L543.071 441.737L542.402 445.681L524.401 442.624L525.07 438.681ZM537.229 359.566L526.719 440.909L522.752 440.396L533.262 359.053L537.229 359.566Z" fill="black" mask="url(#path-18-outside-8_45_418)"/>
<mask id="path-20-outside-9_45_418" maskUnits="userSpaceOnUse" x="532.777" y="441.806" width="81.9301" height="205.518" fill="black">
<rect fill="white" x="532.777" y="441.806" width="81.9301" height="205.518"/>
<path fill-rule="evenodd" clip-rule="evenodd" d="M588.245 446.343L584.247 445.664L575.355 514.482L557.397 511.433L549.668 571.254L567.626 574.303L558.741 643.069L562.739 643.748L571.624 574.982L589.599 578.034L597.328 518.212L579.353 515.16L588.245 446.343Z"/>
</mask>
<path fill-rule="evenodd" clip-rule="evenodd" d="M588.245 446.343L584.247 445.664L575.355 514.482L557.397 511.433L549.668 571.254L567.626 574.303L558.741 643.069L562.739 643.748L571.624 574.982L589.599 578.034L597.328 518.212L579.353 515.16L588.245 446.343Z" fill="#FFEC95"/>
<path d="M584.247 445.664L582.263 445.408L582.53 443.344L584.581 443.692L584.247 445.664ZM588.245 446.343L588.58 444.371L590.475 444.693L590.228 446.599L588.245 446.343ZM575.355 514.482L577.339 514.738L577.072 516.802L575.02 516.453L575.355 514.482ZM557.397 511.433L555.413 511.176L555.68 509.113L557.732 509.461L557.397 511.433ZM549.668 571.254L549.333 573.226L547.438 572.904L547.684 570.998L549.668 571.254ZM567.626 574.303L567.961 572.331L569.856 572.653L569.609 574.559L567.626 574.303ZM558.741 643.069L558.406 645.041L556.511 644.719L556.758 642.813L558.741 643.069ZM562.739 643.748L564.723 644.004L564.456 646.068L562.404 645.72L562.739 643.748ZM571.624 574.982L569.641 574.726L569.907 572.662L571.959 573.01L571.624 574.982ZM589.599 578.034L591.583 578.29L591.316 580.354L589.264 580.006L589.599 578.034ZM597.328 518.212L597.663 516.24L599.558 516.562L599.312 518.468L597.328 518.212ZM579.353 515.16L579.019 517.132L577.123 516.81L577.37 514.904L579.353 515.16ZM584.581 443.692L588.58 444.371L587.91 448.315L583.912 447.636L584.581 443.692ZM573.372 514.225L582.263 445.408L586.23 445.92L577.339 514.738L573.372 514.225ZM557.732 509.461L575.69 512.51L575.02 516.453L557.062 513.404L557.732 509.461ZM547.684 570.998L555.413 511.176L559.38 511.689L551.651 571.511L547.684 570.998ZM567.291 576.275L549.333 573.226L550.002 569.283L567.961 572.331L567.291 576.275ZM556.758 642.813L565.642 574.047L569.609 574.559L560.725 643.325L556.758 642.813ZM562.404 645.72L558.406 645.041L559.076 641.097L563.074 641.776L562.404 645.72ZM573.608 575.238L564.723 644.004L560.756 643.492L569.641 574.726L573.608 575.238ZM589.264 580.006L571.289 576.954L571.959 573.01L589.934 576.062L589.264 580.006ZM599.312 518.468L591.583 578.29L587.615 577.777L595.345 517.956L599.312 518.468ZM579.688 513.189L597.663 516.24L596.993 520.184L579.019 517.132L579.688 513.189ZM590.228 446.599L581.337 515.417L577.37 514.904L586.261 446.087L590.228 446.599Z" fill="black" mask="url(#path-20-outside-9_45_418)"/>
<mask id="path-22-outside-10_45_418" maskUnits="userSpaceOnUse" x="595.716" y="505.496" width="73.584" height="159.482" fill="black">
<rect fill="white" x="595.716" y="505.496" width="73.584" height="159.482"/>
<path fill-rule="evenodd" clip-rule="evenodd" d="M644.196 510.504L640.198 509.825L633.428 562.219L615.483 559.172L609.6 604.703L627.546 607.75L620.784 660.081L624.782 660.76L631.544 608.429L649.531 611.483L655.414 565.952L637.427 562.898L644.196 510.504Z"/>
</mask>
<path fill-rule="evenodd" clip-rule="evenodd" d="M644.196 510.504L640.198 509.825L633.428 562.219L615.483 559.172L609.6 604.703L627.546 607.75L620.784 660.081L624.782 660.76L631.544 608.429L649.531 611.483L655.414 565.952L637.427 562.898L644.196 510.504Z" fill="#FFEC95"/>
<path d="M640.198 509.825L638.214 509.569L638.481 507.505L640.533 507.853L640.198 509.825ZM644.196 510.504L644.531 508.532L646.426 508.854L646.18 510.76L644.196 510.504ZM633.428 562.219L635.412 562.475L635.145 564.539L633.094 564.191L633.428 562.219ZM615.483 559.172L613.499 558.916L613.766 556.852L615.817 557.2L615.483 559.172ZM609.6 604.703L609.265 606.675L607.37 606.353L607.616 604.447L609.6 604.703ZM627.546 607.75L627.88 605.778L629.775 606.1L629.529 608.006L627.546 607.75ZM620.784 660.081L620.449 662.053L618.554 661.731L618.801 659.825L620.784 660.081ZM624.782 660.76L626.766 661.017L626.499 663.08L624.448 662.732L624.782 660.76ZM631.544 608.429L629.56 608.173L629.827 606.109L631.878 606.457L631.544 608.429ZM649.531 611.483L651.515 611.739L651.248 613.803L649.196 613.455L649.531 611.483ZM655.414 565.952L655.749 563.98L657.644 564.302L657.398 566.208L655.414 565.952ZM637.427 562.898L637.092 564.87L635.197 564.548L635.443 562.641L637.427 562.898ZM640.533 507.853L644.531 508.532L643.861 512.476L639.863 511.797L640.533 507.853ZM631.445 561.963L638.214 509.569L642.181 510.081L635.412 562.475L631.445 561.963ZM615.817 557.2L633.763 560.247L633.094 564.191L615.148 561.144L615.817 557.2ZM607.616 604.447L613.499 558.916L617.466 559.428L611.583 604.96L607.616 604.447ZM627.211 609.722L609.265 606.675L609.935 602.732L627.88 605.778L627.211 609.722ZM618.801 659.825L625.562 607.494L629.529 608.006L622.768 660.338L618.801 659.825ZM624.448 662.732L620.449 662.053L621.119 658.11L625.117 658.788L624.448 662.732ZM633.527 608.685L626.766 661.017L622.799 660.504L629.56 608.173L633.527 608.685ZM649.196 613.455L631.209 610.401L631.878 606.457L649.866 609.511L649.196 613.455ZM657.398 566.208L651.515 611.739L647.548 611.227L653.431 565.695L657.398 566.208ZM637.761 560.926L655.749 563.98L655.079 567.923L637.092 564.87L637.761 560.926ZM646.18 510.76L639.41 563.154L635.443 562.641L642.213 510.247L646.18 510.76Z" fill="black" mask="url(#path-22-outside-10_45_418)"/>
<mask id="path-24-outside-11_45_418" maskUnits="userSpaceOnUse" x="649.629" y="521.356" width="83.39" height="209.607" fill="black">
<rect fill="white" x="649.629" y="521.356" width="83.39" height="209.607"/>
<path fill-rule="evenodd" clip-rule="evenodd" d="M706.464 525.848L702.466 525.17L693.386 595.449L675.408 592.397L667.51 653.527L685.487 656.579L676.4 726.914L680.398 727.593L689.486 657.258L707.441 660.306L715.34 599.177L697.384 596.128L706.464 525.848Z"/>
</mask>
<path fill-rule="evenodd" clip-rule="evenodd" d="M706.464 525.848L702.466 525.17L693.386 595.449L675.408 592.397L667.51 653.527L685.487 656.579L676.4 726.914L680.398 727.593L689.486 657.258L707.441 660.306L715.34 599.177L697.384 596.128L706.464 525.848Z" fill="#FFEC95"/>
<path d="M702.466 525.17L700.483 524.913L700.749 522.849L702.801 523.198L702.466 525.17ZM706.464 525.848L706.799 523.877L708.694 524.198L708.448 526.105L706.464 525.848ZM693.386 595.449L695.369 595.706L695.102 597.769L693.051 597.421L693.386 595.449ZM675.408 592.397L673.425 592.141L673.692 590.077L675.743 590.425L675.408 592.397ZM667.51 653.527L667.175 655.498L665.28 655.177L665.527 653.27L667.51 653.527ZM685.487 656.579L685.822 654.607L687.717 654.929L687.471 656.835L685.487 656.579ZM676.4 726.914L676.065 728.886L674.17 728.564L674.416 726.657L676.4 726.914ZM680.398 727.593L682.381 727.849L682.115 729.913L680.063 729.564L680.398 727.593ZM689.486 657.258L687.502 657.001L687.769 654.937L689.82 655.286L689.486 657.258ZM707.441 660.306L709.425 660.562L709.158 662.626L707.107 662.278L707.441 660.306ZM715.34 599.177L715.674 597.205L717.569 597.527L717.323 599.433L715.34 599.177ZM697.384 596.128L697.049 598.1L695.154 597.778L695.4 595.872L697.384 596.128ZM702.801 523.198L706.799 523.877L706.129 527.82L702.131 527.141L702.801 523.198ZM691.402 595.193L700.483 524.913L704.45 525.426L695.369 595.706L691.402 595.193ZM675.743 590.425L693.72 593.477L693.051 597.421L675.074 594.369L675.743 590.425ZM665.527 653.27L673.425 592.141L677.392 592.653L669.494 653.783L665.527 653.27ZM685.153 658.551L667.175 655.498L667.845 651.555L685.822 654.607L685.153 658.551ZM674.416 726.657L683.504 656.322L687.471 656.835L678.383 727.17L674.416 726.657ZM680.063 729.564L676.065 728.886L676.735 724.942L680.733 725.621L680.063 729.564ZM691.469 657.514L682.381 727.849L678.414 727.336L687.502 657.001L691.469 657.514ZM707.107 662.278L689.151 659.229L689.82 655.286L707.776 658.334L707.107 662.278ZM717.323 599.433L709.425 660.562L705.458 660.05L713.356 598.92L717.323 599.433ZM697.718 594.156L715.674 597.205L715.005 601.148L697.049 598.1L697.718 594.156ZM708.448 526.105L699.367 596.384L695.4 595.872L704.481 525.592L708.448 526.105Z" fill="black" mask="url(#path-24-outside-11_45_418)"/>
<mask id="path-26-outside-12_45_418" maskUnits="userSpaceOnUse" x="677.85" y="360.166" width="167.184" height="447.666" fill="black">
<rect fill="white" x="677.85" y="360.166" width="167.184" height="447.666"/>
<path fill-rule="evenodd" clip-rule="evenodd" d="M791.554 364.628L787.556 363.95L767.785 516.978L749.789 513.923L732.593 647.017L750.588 650.072L730.809 803.159L734.807 803.838L754.586 650.751L772.524 653.796L789.721 520.702L771.782 517.657L791.554 364.628Z"/>
</mask>
<path fill-rule="evenodd" clip-rule="evenodd" d="M791.554 364.628L787.556 363.95L767.785 516.978L749.789 513.923L732.593 647.017L750.588 650.072L730.809 803.159L734.807 803.838L754.586 650.751L772.524 653.796L789.721 520.702L771.782 517.657L791.554 364.628Z" fill="#FFEC95"/>
<path d="M787.556 363.95L785.573 363.693L785.84 361.629L787.891 361.978L787.556 363.95ZM791.554 364.628L791.889 362.656L793.784 362.978L793.538 364.885L791.554 364.628ZM767.785 516.978L769.768 517.234L769.501 519.298L767.45 518.95L767.785 516.978ZM749.789 513.923L747.806 513.667L748.072 511.603L750.124 511.951L749.789 513.923ZM732.593 647.017L732.258 648.989L730.363 648.667L730.609 646.761L732.593 647.017ZM750.588 650.072L750.923 648.1L752.818 648.422L752.572 650.328L750.588 650.072ZM730.809 803.159L730.474 805.131L728.579 804.81L728.825 802.903L730.809 803.159ZM734.807 803.838L736.79 804.094L736.523 806.158L734.472 805.81L734.807 803.838ZM754.586 650.751L752.603 650.495L752.869 648.431L754.921 648.779L754.586 650.751ZM772.524 653.796L774.508 654.053L774.241 656.116L772.19 655.768L772.524 653.796ZM789.721 520.702L790.056 518.731L791.951 519.052L791.704 520.959L789.721 520.702ZM771.782 517.657L771.448 519.629L769.553 519.307L769.799 517.401L771.782 517.657ZM787.891 361.978L791.889 362.656L791.22 366.6L787.222 365.921L787.891 361.978ZM765.801 516.722L785.573 363.693L789.54 364.206L769.768 517.234L765.801 516.722ZM750.124 511.951L768.119 515.006L767.45 518.95L749.455 515.895L750.124 511.951ZM730.609 646.761L747.806 513.667L751.773 514.179L734.576 647.273L730.609 646.761ZM750.253 652.044L732.258 648.989L732.928 645.045L750.923 648.1L750.253 652.044ZM728.825 802.903L748.605 649.816L752.572 650.328L732.792 803.416L728.825 802.903ZM734.472 805.81L730.474 805.131L731.143 801.188L735.141 801.866L734.472 805.81ZM756.57 651.007L736.79 804.094L732.823 803.582L752.603 650.495L756.57 651.007ZM772.19 655.768L754.251 652.723L754.921 648.779L772.859 651.825L772.19 655.768ZM791.704 520.959L774.508 654.053L770.541 653.54L787.737 520.446L791.704 520.959ZM772.117 515.685L790.056 518.731L789.386 522.674L771.448 519.629L772.117 515.685ZM793.538 364.885L773.766 517.913L769.799 517.401L789.571 364.372L793.538 364.885Z" fill="black" mask="url(#path-26-outside-12_45_418)"/>
<mask id="path-28-outside-13_45_418" maskUnits="userSpaceOnUse" x="778.703" y="461.059" width="93.9588" height="241.212" fill="black">
<rect fill="white" x="778.703" y="461.059" width="93.9588" height="241.212"/>
<path fill-rule="evenodd" clip-rule="evenodd" d="M842.75 465.521L838.751 464.842L828.247 546.144L810.297 543.097L801.163 613.789L819.113 616.836L808.612 698.11L812.61 698.789L823.111 617.515L841.094 620.568L850.228 549.876L832.245 546.823L842.75 465.521Z"/>
</mask>
<path fill-rule="evenodd" clip-rule="evenodd" d="M842.75 465.521L838.751 464.842L828.247 546.144L810.297 543.097L801.163 613.789L819.113 616.836L808.612 698.11L812.61 698.789L823.111 617.515L841.094 620.568L850.228 549.876L832.245 546.823L842.75 465.521Z" fill="#FFEC95"/>
<path d="M838.751 464.842L836.768 464.586L837.035 462.522L839.086 462.87L838.751 464.842ZM842.75 465.521L843.084 463.549L844.979 463.871L844.733 465.777L842.75 465.521ZM828.247 546.144L830.23 546.401L829.964 548.464L827.912 548.116L828.247 546.144ZM810.297 543.097L808.313 542.841L808.58 540.777L810.632 541.125L810.297 543.097ZM801.163 613.789L800.828 615.76L798.933 615.439L799.18 613.532L801.163 613.789ZM819.113 616.836L819.448 614.864L821.343 615.186L821.097 617.092L819.113 616.836ZM808.612 698.11L808.277 700.082L806.382 699.76L806.629 697.854L808.612 698.11ZM812.61 698.789L814.594 699.045L814.327 701.109L812.276 700.761L812.61 698.789ZM823.111 617.515L821.128 617.259L821.394 615.195L823.446 615.543L823.111 617.515ZM841.094 620.568L843.078 620.824L842.811 622.888L840.76 622.54L841.094 620.568ZM850.228 549.876L850.563 547.904L852.458 548.226L852.212 550.133L850.228 549.876ZM832.245 546.823L831.91 548.795L830.015 548.473L830.261 546.567L832.245 546.823ZM839.086 462.87L843.084 463.549L842.415 467.493L838.417 466.814L839.086 462.87ZM826.263 545.888L836.768 464.586L840.735 465.098L830.23 546.401L826.263 545.888ZM810.632 541.125L828.582 544.173L827.912 548.116L809.962 545.069L810.632 541.125ZM799.18 613.532L808.313 542.841L812.28 543.353L803.147 614.045L799.18 613.532ZM818.778 618.808L800.828 615.76L801.498 611.817L819.448 614.864L818.778 618.808ZM806.629 697.854L817.13 616.58L821.097 617.092L810.596 698.366L806.629 697.854ZM812.276 700.761L808.277 700.082L808.947 696.138L812.945 696.817L812.276 700.761ZM825.095 617.771L814.594 699.045L810.627 698.532L821.128 617.259L825.095 617.771ZM840.76 622.54L822.776 619.487L823.446 615.543L841.429 618.596L840.76 622.54ZM852.212 550.133L843.078 620.824L839.111 620.312L848.245 549.62L852.212 550.133ZM832.58 544.851L850.563 547.904L849.893 551.848L831.91 548.795L832.58 544.851ZM844.733 465.777L834.228 547.079L830.261 546.567L840.766 465.265L844.733 465.777Z" fill="black" mask="url(#path-28-outside-13_45_418)"/>
<mask id="path-30-outside-14_45_418" maskUnits="userSpaceOnUse" x="841.247" y="576.843" width="76.3272" height="174.496" fill="black">
<rect fill="white" x="841.247" y="576.843" width="76.3272" height="174.496"/>
<path fill-rule="evenodd" clip-rule="evenodd" d="M891.987 581.701L887.988 581.023L880.55 638.597L862.598 635.549L856.132 685.596L874.083 688.644L866.648 746.188L870.647 746.867L878.081 689.323L896.063 692.376L902.529 642.328L884.548 639.276L891.987 581.701Z"/>
</mask>
<path fill-rule="evenodd" clip-rule="evenodd" d="M891.987 581.701L887.988 581.023L880.55 638.597L862.598 635.549L856.132 685.596L874.083 688.644L866.648 746.188L870.647 746.867L878.081 689.323L896.063 692.376L902.529 642.328L884.548 639.276L891.987 581.701Z" fill="#FFEC95"/>
<path d="M887.988 581.023L886.005 580.766L886.272 578.703L888.323 579.051L887.988 581.023ZM891.987 581.701L892.321 579.73L894.216 580.051L893.97 581.958L891.987 581.701ZM880.55 638.597L882.533 638.853L882.266 640.917L880.215 640.569L880.55 638.597ZM862.598 635.549L860.615 635.293L860.881 633.229L862.933 633.577L862.598 635.549ZM856.132 685.596L855.797 687.568L853.902 687.246L854.148 685.34L856.132 685.596ZM874.083 688.644L874.418 686.672L876.313 686.994L876.067 688.9L874.083 688.644ZM866.648 746.188L866.314 748.16L864.419 747.838L864.665 745.932L866.648 746.188ZM870.647 746.867L872.63 747.123L872.363 749.187L870.312 748.839L870.647 746.867ZM878.081 689.323L876.098 689.066L876.365 687.003L878.416 687.351L878.081 689.323ZM896.063 692.376L898.047 692.632L897.78 694.696L895.728 694.347L896.063 692.376ZM902.529 642.328L902.864 640.357L904.759 640.678L904.513 642.585L902.529 642.328ZM884.548 639.276L884.213 641.247L882.318 640.926L882.564 639.019L884.548 639.276ZM888.323 579.051L892.321 579.73L891.652 583.673L887.654 582.994L888.323 579.051ZM878.566 638.34L886.005 580.766L889.972 581.279L882.533 638.853L878.566 638.34ZM862.933 633.577L880.884 636.625L880.215 640.569L862.263 637.521L862.933 633.577ZM854.148 685.34L860.615 635.293L864.582 635.805L858.115 685.852L854.148 685.34ZM873.749 690.616L855.797 687.568L856.466 683.624L874.418 686.672L873.749 690.616ZM864.665 745.932L872.1 688.388L876.067 688.9L868.632 746.444L864.665 745.932ZM870.312 748.839L866.314 748.16L866.983 744.216L870.981 744.895L870.312 748.839ZM880.065 689.579L872.63 747.123L868.663 746.611L876.098 689.066L880.065 689.579ZM895.728 694.347L877.747 691.295L878.416 687.351L896.398 690.404L895.728 694.347ZM904.513 642.585L898.047 692.632L894.08 692.119L900.546 642.072L904.513 642.585ZM884.883 637.304L902.864 640.357L902.195 644.3L884.213 641.247L884.883 637.304ZM893.97 581.958L886.531 639.532L882.564 639.019L890.003 581.445L893.97 581.958Z" fill="black" mask="url(#path-30-outside-14_45_418)"/>
<mask id="path-32-outside-15_45_418" maskUnits="userSpaceOnUse" x="895.53" y="620.158" width="81.5801" height="202.538" fill="black">
<rect fill="white" x="895.53" y="620.158" width="81.5801" height="202.538"/>
<path fill-rule="evenodd" clip-rule="evenodd" d="M950.684 624.731L946.686 624.053L937.963 691.562L920.001 688.513L912.415 747.221L930.378 750.27L921.655 817.781L925.653 818.46L934.376 750.949L952.347 754L959.932 695.292L941.961 692.241L950.684 624.731Z"/>
</mask>
<path fill-rule="evenodd" clip-rule="evenodd" d="M950.684 624.731L946.686 624.053L937.963 691.562L920.001 688.513L912.415 747.221L930.378 750.27L921.655 817.781L925.653 818.46L934.376 750.949L952.347 754L959.932 695.292L941.961 692.241L950.684 624.731Z" fill="#FFEC95"/>
<path d="M946.686 624.053L944.702 623.796L944.969 621.733L947.021 622.081L946.686 624.053ZM950.684 624.731L951.019 622.76L952.914 623.081L952.667 624.988L950.684 624.731ZM937.963 691.562L939.947 691.819L939.68 693.882L937.629 693.534L937.963 691.562ZM920.001 688.513L918.017 688.256L918.284 686.193L920.336 686.541L920.001 688.513ZM912.415 747.221L912.081 749.193L910.186 748.871L910.432 746.965L912.415 747.221ZM930.378 750.27L930.713 748.299L932.608 748.62L932.362 750.527L930.378 750.27ZM921.655 817.781L921.321 819.753L919.426 819.431L919.672 817.525L921.655 817.781ZM925.653 818.46L927.637 818.716L927.37 820.78L925.319 820.432L925.653 818.46ZM934.376 750.949L932.393 750.693L932.659 748.629L934.711 748.977L934.376 750.949ZM952.347 754L954.33 754.257L954.064 756.32L952.012 755.972L952.347 754ZM959.932 695.292L960.267 693.32L962.162 693.642L961.916 695.548L959.932 695.292ZM941.961 692.241L941.627 694.213L939.732 693.891L939.978 691.985L941.961 692.241ZM947.021 622.081L951.019 622.76L950.349 626.703L946.351 626.024L947.021 622.081ZM935.98 691.306L944.702 623.796L948.669 624.309L939.947 691.819L935.98 691.306ZM920.336 686.541L938.298 689.591L937.629 693.534L919.666 690.485L920.336 686.541ZM910.432 746.965L918.017 688.256L921.984 688.769L914.399 747.477L910.432 746.965ZM930.043 752.242L912.081 749.193L912.75 745.249L930.713 748.299L930.043 752.242ZM919.672 817.525L928.395 750.014L932.362 750.527L923.639 818.037L919.672 817.525ZM925.319 820.432L921.321 819.753L921.99 815.809L925.988 816.488L925.319 820.432ZM936.36 751.205L927.637 818.716L923.67 818.204L932.393 750.693L936.36 751.205ZM952.012 755.972L934.041 752.921L934.711 748.977L952.682 752.028L952.012 755.972ZM961.916 695.548L954.33 754.257L950.363 753.744L957.949 695.036L961.916 695.548ZM942.296 690.269L960.267 693.32L959.598 697.264L941.627 694.213L942.296 690.269ZM952.667 624.988L943.945 692.497L939.978 691.985L948.7 624.475L952.667 624.988Z" fill="black" mask="url(#path-32-outside-15_45_418)"/>
<mask id="path-34-outside-16_45_418" maskUnits="userSpaceOnUse" x="905.897" y="553.285" width="172.906" height="463.03" fill="black">
<rect fill="white" x="905.897" y="553.285" width="172.906" height="463.03"/>
<path fill-rule="evenodd" clip-rule="evenodd" d="M1023.57 557.747L1019.58 557.068L999.078 715.72L981.117 712.671L963.293 850.625L981.253 853.675L960.758 1012.3L964.756 1012.98L985.251 854.353L1003.22 857.405L1021.05 719.45L1003.08 716.399L1023.57 557.747Z"/>
</mask>
<path fill-rule="evenodd" clip-rule="evenodd" d="M1023.57 557.747L1019.58 557.068L999.078 715.72L981.117 712.671L963.293 850.625L981.253 853.675L960.758 1012.3L964.756 1012.98L985.251 854.353L1003.22 857.405L1021.05 719.45L1003.08 716.399L1023.57 557.747Z" fill="#FFEC95"/>
<path d="M1019.58 557.068L1017.59 556.812L1017.86 554.748L1019.91 555.096L1019.58 557.068ZM1023.57 557.747L1023.91 555.775L1025.8 556.097L1025.56 558.003L1023.57 557.747ZM999.078 715.72L1001.06 715.976L1000.79 718.04L998.743 717.692L999.078 715.72ZM981.117 712.671L979.134 712.415L979.4 710.351L981.452 710.699L981.117 712.671ZM963.293 850.625L962.958 852.597L961.063 852.275L961.309 850.369L963.293 850.625ZM981.253 853.675L981.588 851.703L983.483 852.025L983.237 853.931L981.253 853.675ZM960.758 1012.3L960.423 1014.27L958.528 1013.95L958.775 1012.04L960.758 1012.3ZM964.756 1012.98L966.74 1013.24L966.473 1015.3L964.421 1014.95L964.756 1012.98ZM985.251 854.353L983.268 854.097L983.534 852.033L985.586 852.382L985.251 854.353ZM1003.22 857.405L1005.21 857.661L1004.94 859.725L1002.89 859.377L1003.22 857.405ZM1021.05 719.45L1021.38 717.479L1023.28 717.8L1023.03 719.707L1021.05 719.45ZM1003.08 716.399L1002.74 718.371L1000.85 718.049L1001.09 716.143L1003.08 716.399ZM1019.91 555.096L1023.91 555.775L1023.24 559.719L1019.24 559.04L1019.91 555.096ZM997.094 715.464L1017.59 556.812L1021.56 557.324L1001.06 715.976L997.094 715.464ZM981.452 710.699L999.412 713.748L998.743 717.692L980.782 714.643L981.452 710.699ZM961.309 850.369L979.134 712.415L983.101 712.927L965.276 850.882L961.309 850.369ZM980.918 855.646L962.958 852.597L963.627 848.654L981.588 851.703L980.918 855.646ZM958.775 1012.04L979.27 853.418L983.237 853.931L962.742 1012.56L958.775 1012.04ZM964.421 1014.95L960.423 1014.27L961.093 1010.33L965.091 1011.01L964.421 1014.95ZM987.235 854.61L966.74 1013.24L962.772 1012.72L983.268 854.097L987.235 854.61ZM1002.89 859.377L984.916 856.325L985.586 852.382L1003.56 855.433L1002.89 859.377ZM1023.03 719.707L1005.21 857.661L1001.24 857.149L1019.07 719.194L1023.03 719.707ZM1003.41 714.427L1021.38 717.479L1020.71 721.422L1002.74 718.371L1003.41 714.427ZM1025.56 558.003L1005.06 716.655L1001.09 716.143L1021.59 557.491L1025.56 558.003Z" fill="black" mask="url(#path-34-outside-16_45_418)"/>
<mask id="path-36-outside-17_45_418" maskUnits="userSpaceOnUse" x="1016.46" y="640.712" width="88.3528" height="226.841" fill="black">
<rect fill="white" x="1016.46" y="640.712" width="88.3528" height="226.841"/>
<path fill-rule="evenodd" clip-rule="evenodd" d="M1076.53 645.174L1072.54 644.495L1062.7 720.643L1044.71 717.59L1036.16 783.818L1054.14 786.872L1044.3 863.048L1048.3 863.727L1058.14 787.55L1076.09 790.598L1084.65 724.369L1066.7 721.321L1076.53 645.174Z"/>
</mask>
<path fill-rule="evenodd" clip-rule="evenodd" d="M1076.53 645.174L1072.54 644.495L1062.7 720.643L1044.71 717.59L1036.16 783.818L1054.14 786.872L1044.3 863.048L1048.3 863.727L1058.14 787.55L1076.09 790.598L1084.65 724.369L1066.7 721.321L1076.53 645.174Z" fill="#FFEC95"/>
<path d="M1072.54 644.495L1070.55 644.239L1070.82 642.175L1072.87 642.523L1072.54 644.495ZM1076.53 645.174L1076.87 643.202L1078.76 643.524L1078.52 645.43L1076.53 645.174ZM1062.7 720.643L1064.68 720.899L1064.41 722.963L1062.36 722.615L1062.7 720.643ZM1044.71 717.59L1042.73 717.333L1043 715.27L1045.05 715.618L1044.71 717.59ZM1036.16 783.818L1035.82 785.79L1033.93 785.469L1034.17 783.562L1036.16 783.818ZM1054.14 786.872L1054.48 784.9L1056.37 785.222L1056.12 787.128L1054.14 786.872ZM1044.3 863.048L1043.96 865.02L1042.07 864.698L1042.31 862.792L1044.3 863.048ZM1048.3 863.727L1050.28 863.983L1050.01 866.047L1047.96 865.699L1048.3 863.727ZM1058.14 787.55L1056.15 787.294L1056.42 785.23L1058.47 785.579L1058.14 787.55ZM1076.09 790.598L1078.07 790.854L1077.81 792.918L1075.75 792.57L1076.09 790.598ZM1084.65 724.369L1084.98 722.397L1086.88 722.719L1086.63 724.625L1084.65 724.369ZM1066.7 721.321L1066.36 723.293L1064.47 722.972L1064.71 721.065L1066.7 721.321ZM1072.87 642.523L1076.87 643.202L1076.2 647.146L1072.2 646.467L1072.87 642.523ZM1060.71 720.386L1070.55 644.239L1074.52 644.751L1064.68 720.899L1060.71 720.386ZM1045.05 715.618L1063.03 718.671L1062.36 722.615L1044.38 719.561L1045.05 715.618ZM1034.17 783.562L1042.73 717.333L1046.7 717.846L1038.14 784.075L1034.17 783.562ZM1053.81 788.843L1035.82 785.79L1036.49 781.847L1054.48 784.9L1053.81 788.843ZM1042.31 862.792L1052.16 786.615L1056.12 787.128L1046.28 863.305L1042.31 862.792ZM1047.96 865.699L1043.96 865.02L1044.63 861.077L1048.63 861.755L1047.96 865.699ZM1060.12 787.807L1050.28 863.983L1046.31 863.471L1056.15 787.294L1060.12 787.807ZM1075.75 792.57L1057.8 789.522L1058.47 785.579L1076.42 788.626L1075.75 792.57ZM1086.63 724.625L1078.07 790.854L1074.11 790.342L1082.66 724.113L1086.63 724.625ZM1067.03 719.35L1084.98 722.397L1084.31 726.341L1066.36 723.293L1067.03 719.35ZM1078.52 645.43L1068.68 721.578L1064.71 721.065L1074.55 644.918L1078.52 645.43Z" fill="black" mask="url(#path-36-outside-17_45_418)"/>
<mask id="path-38-outside-18_45_418" maskUnits="userSpaceOnUse" x="1056.73" y="680.048" width="115.74" height="301.559" fill="black">
<rect fill="white" x="1056.73" y="680.048" width="115.74" height="301.559"/>
<path fill-rule="evenodd" clip-rule="evenodd" d="M1135.68 684.51L1131.68 683.832L1118.47 786.073L1100.5 783.023L1089.02 871.938L1106.98 874.988L1093.77 977.248L1097.77 977.927L1110.98 875.667L1128.95 878.718L1140.44 789.803L1122.47 786.752L1135.68 684.51Z"/>
</mask>
<path fill-rule="evenodd" clip-rule="evenodd" d="M1135.68 684.51L1131.68 683.832L1118.47 786.073L1100.5 783.023L1089.02 871.938L1106.98 874.988L1093.77 977.248L1097.77 977.927L1110.98 875.667L1128.95 878.718L1140.44 789.803L1122.47 786.752L1135.68 684.51Z" fill="#FFEC95"/>
<path d="M1131.68 683.832L1129.7 683.575L1129.96 681.511L1132.01 681.86L1131.68 683.832ZM1135.68 684.51L1136.01 682.538L1137.91 682.86L1137.66 684.767L1135.68 684.51ZM1118.47 786.073L1120.45 786.33L1120.19 788.394L1118.13 788.045L1118.47 786.073ZM1100.5 783.023L1098.52 782.767L1098.79 780.703L1100.84 781.052L1100.5 783.023ZM1089.02 871.938L1088.68 873.91L1086.79 873.588L1087.03 871.682L1089.02 871.938ZM1106.98 874.988L1107.32 873.017L1109.21 873.338L1108.97 875.245L1106.98 874.988ZM1093.77 977.248L1093.43 979.22L1091.54 978.898L1091.79 976.992L1093.77 977.248ZM1097.77 977.927L1099.75 978.183L1099.48 980.247L1097.43 979.898L1097.77 977.927ZM1110.98 875.667L1109 875.411L1109.26 873.347L1111.31 873.695L1110.98 875.667ZM1128.95 878.718L1130.93 878.974L1130.67 881.038L1128.61 880.69L1128.95 878.718ZM1140.44 789.803L1140.77 787.831L1142.67 788.153L1142.42 790.059L1140.44 789.803ZM1122.47 786.752L1122.13 788.724L1120.24 788.402L1120.48 786.496L1122.47 786.752ZM1132.01 681.86L1136.01 682.538L1135.34 686.482L1131.35 685.803L1132.01 681.86ZM1116.49 785.817L1129.7 683.575L1133.66 684.088L1120.45 786.33L1116.49 785.817ZM1100.84 781.052L1118.8 784.102L1118.13 788.045L1100.17 784.995L1100.84 781.052ZM1087.03 871.682L1098.52 782.767L1102.49 783.28L1091 872.195L1087.03 871.682ZM1106.65 876.96L1088.68 873.91L1089.35 869.967L1107.32 873.017L1106.65 876.96ZM1091.79 976.992L1105 874.732L1108.97 875.245L1095.75 977.504L1091.79 976.992ZM1097.43 979.898L1093.43 979.22L1094.1 975.276L1098.1 975.955L1097.43 979.898ZM1112.96 875.923L1099.75 978.183L1095.78 977.67L1109 875.411L1112.96 875.923ZM1128.61 880.69L1110.64 877.639L1111.31 873.695L1129.28 876.746L1128.61 880.69ZM1142.42 790.059L1130.93 878.974L1126.96 878.461L1138.45 789.547L1142.42 790.059ZM1122.8 784.78L1140.77 787.831L1140.1 791.775L1122.13 788.724L1122.8 784.78ZM1137.66 684.767L1124.45 787.008L1120.48 786.496L1133.69 684.254L1137.66 684.767Z" fill="black" mask="url(#path-38-outside-18_45_418)"/>
<mask id="path-40-outside-19_45_418" maskUnits="userSpaceOnUse" x="1105.42" y="708.338" width="133.491" height="352.617" fill="black">
<rect fill="white" x="1105.42" y="708.338" width="133.491" height="352.617"/>
<path fill-rule="evenodd" clip-rule="evenodd" d="M1196.28 712.801L1192.28 712.122L1176.79 832.016L1158.85 828.97L1145.39 933.209L1163.33 936.255L1147.84 1056.11L1151.84 1056.79L1167.32 936.934L1185.32 939.989L1198.78 835.749L1180.79 832.695L1196.28 712.801Z"/>
</mask>
<path fill-rule="evenodd" clip-rule="evenodd" d="M1196.28 712.801L1192.28 712.122L1176.79 832.016L1158.85 828.97L1145.39 933.209L1163.33 936.255L1147.84 1056.11L1151.84 1056.79L1167.32 936.934L1185.32 939.989L1198.78 835.749L1180.79 832.695L1196.28 712.801Z" fill="#FFEC95"/>
<path d="M1192.28 712.122L1190.3 711.866L1190.57 709.802L1192.62 710.15L1192.28 712.122ZM1196.28 712.801L1196.62 710.829L1198.51 711.151L1198.27 713.057L1196.28 712.801ZM1176.79 832.016L1178.78 832.272L1178.51 834.336L1176.46 833.988L1176.79 832.016ZM1158.85 828.97L1156.87 828.714L1157.14 826.65L1159.19 826.998L1158.85 828.97ZM1145.39 933.209L1145.05 935.181L1143.16 934.859L1143.4 932.953L1145.39 933.209ZM1163.33 936.255L1163.66 934.283L1165.56 934.605L1165.31 936.511L1163.33 936.255ZM1147.84 1056.11L1147.51 1058.08L1145.61 1057.76L1145.86 1055.85L1147.84 1056.11ZM1151.84 1056.79L1153.82 1057.04L1153.55 1059.11L1151.5 1058.76L1151.84 1056.79ZM1167.32 936.934L1165.34 936.678L1165.61 934.614L1167.66 934.962L1167.32 936.934ZM1185.32 939.989L1187.3 940.245L1187.03 942.309L1184.98 941.96L1185.32 939.989ZM1198.78 835.749L1199.12 833.778L1201.01 834.099L1200.77 836.006L1198.78 835.749ZM1180.79 832.695L1180.46 834.666L1178.56 834.345L1178.81 832.438L1180.79 832.695ZM1192.62 710.15L1196.62 710.829L1195.95 714.772L1191.95 714.094L1192.62 710.15ZM1174.81 831.759L1190.3 711.866L1194.27 712.378L1178.78 832.272L1174.81 831.759ZM1159.19 826.998L1177.13 830.044L1176.46 833.988L1158.52 830.942L1159.19 826.998ZM1143.4 932.953L1156.87 828.714L1160.84 829.226L1147.37 933.466L1143.4 932.953ZM1162.99 938.227L1145.05 935.181L1145.72 931.237L1163.66 934.283L1162.99 938.227ZM1145.86 1055.85L1161.34 935.999L1165.31 936.511L1149.82 1056.36L1145.86 1055.85ZM1151.5 1058.76L1147.51 1058.08L1148.17 1054.14L1152.17 1054.81L1151.5 1058.76ZM1169.31 937.19L1153.82 1057.04L1149.85 1056.53L1165.34 936.678L1169.31 937.19ZM1184.98 941.96L1166.99 938.906L1167.66 934.962L1185.65 938.017L1184.98 941.96ZM1200.77 836.006L1187.3 940.245L1183.33 939.732L1196.8 835.493L1200.77 836.006ZM1181.13 830.723L1199.12 833.778L1198.45 837.721L1180.46 834.666L1181.13 830.723ZM1198.27 713.057L1182.77 832.951L1178.81 832.438L1194.3 712.544L1198.27 713.057Z" fill="black" mask="url(#path-40-outside-19_45_418)"/>
<mask id="path-42-outside-20_45_418" maskUnits="userSpaceOnUse" x="1172.72" y="661.708" width="137.637" height="362.899" fill="black">
<rect fill="white" x="1172.72" y="661.708" width="137.637" height="362.899"/>
<path fill-rule="evenodd" clip-rule="evenodd" d="M1266.56 666.17L1262.56 665.491L1246.61 788.958L1228.62 785.904L1214.75 893.29L1232.73 896.343L1216.78 1019.85L1220.77 1020.53L1236.73 897.022L1254.68 900.069L1268.55 792.684L1250.61 789.637L1266.56 666.17Z"/>
</mask>
<path fill-rule="evenodd" clip-rule="evenodd" d="M1266.56 666.17L1262.56 665.491L1246.61 788.958L1228.62 785.904L1214.75 893.29L1232.73 896.343L1216.78 1019.85L1220.77 1020.53L1236.73 897.022L1254.68 900.069L1268.55 792.684L1250.61 789.637L1266.56 666.17Z" fill="#FFEC95"/>
<path d="M1262.56 665.491L1260.58 665.235L1260.84 663.171L1262.9 663.52L1262.56 665.491ZM1266.56 666.17L1266.89 664.198L1268.79 664.52L1268.54 666.427L1266.56 666.17ZM1246.61 788.958L1248.59 789.214L1248.33 791.278L1246.27 790.93L1246.61 788.958ZM1228.62 785.904L1226.64 785.648L1226.9 783.584L1228.96 783.932L1228.62 785.904ZM1214.75 893.29L1214.41 895.261L1212.52 894.94L1212.76 893.033L1214.75 893.29ZM1232.73 896.343L1233.07 894.372L1234.96 894.693L1234.72 896.6L1232.73 896.343ZM1216.78 1019.85L1216.44 1021.82L1214.55 1021.5L1214.79 1019.6L1216.78 1019.85ZM1220.77 1020.53L1222.76 1020.79L1222.49 1022.85L1220.44 1022.5L1220.77 1020.53ZM1236.73 897.022L1234.75 896.766L1235.01 894.702L1237.07 895.05L1236.73 897.022ZM1254.68 900.069L1256.66 900.325L1256.39 902.389L1254.34 902.041L1254.68 900.069ZM1268.55 792.684L1268.89 790.712L1270.78 791.033L1270.54 792.94L1268.55 792.684ZM1250.61 789.637L1250.27 791.608L1248.38 791.287L1248.62 789.38L1250.61 789.637ZM1262.9 663.52L1266.89 664.198L1266.22 668.142L1262.23 667.463L1262.9 663.52ZM1244.62 788.702L1260.58 665.235L1264.54 665.748L1248.59 789.214L1244.62 788.702ZM1228.96 783.932L1246.94 786.986L1246.27 790.93L1228.29 787.876L1228.96 783.932ZM1212.76 893.033L1226.64 785.648L1230.6 786.16L1216.73 893.546L1212.76 893.033ZM1232.4 898.315L1214.41 895.261L1215.08 891.318L1233.07 894.372L1232.4 898.315ZM1214.79 1019.6L1230.75 896.087L1234.72 896.6L1218.76 1020.11L1214.79 1019.6ZM1220.44 1022.5L1216.44 1021.82L1217.11 1017.88L1221.11 1018.56L1220.44 1022.5ZM1238.72 897.278L1222.76 1020.79L1218.79 1020.27L1234.75 896.766L1238.72 897.278ZM1254.34 902.041L1236.4 898.994L1237.07 895.05L1255.01 898.097L1254.34 902.041ZM1270.54 792.94L1256.66 900.325L1252.69 899.813L1266.57 792.427L1270.54 792.94ZM1250.94 787.665L1268.89 790.712L1268.22 794.655L1250.27 791.608L1250.94 787.665ZM1268.54 666.427L1252.59 789.893L1248.62 789.38L1264.58 665.914L1268.54 666.427Z" fill="black" mask="url(#path-42-outside-20_45_418)"/>
<mask id="path-44-outside-21_45_418" maskUnits="userSpaceOnUse" x="1246.96" y="484.409" width="156.965" height="419.04" fill="black">
<rect fill="white" x="1246.96" y="484.409" width="156.965" height="419.04"/>
<path fill-rule="evenodd" clip-rule="evenodd" d="M1353.72 488.871L1349.72 488.192L1331.24 631.22L1313.27 628.168L1297.2 752.548L1315.17 755.6L1296.69 898.636L1300.69 899.315L1319.17 756.279L1337.13 759.328L1353.2 634.948L1335.24 631.898L1353.72 488.871Z"/>
</mask>
<path fill-rule="evenodd" clip-rule="evenodd" d="M1353.72 488.871L1349.72 488.192L1331.24 631.22L1313.27 628.168L1297.2 752.548L1315.17 755.6L1296.69 898.636L1300.69 899.315L1319.17 756.279L1337.13 759.328L1353.2 634.948L1335.24 631.898L1353.72 488.871Z" fill="#FFEC95"/>
<path d="M1349.72 488.192L1347.74 487.936L1348 485.872L1350.05 486.221L1349.72 488.192ZM1353.72 488.871L1354.05 486.899L1355.95 487.221L1355.7 489.127L1353.72 488.871ZM1331.24 631.22L1333.22 631.476L1332.96 633.54L1330.9 633.191L1331.24 631.22ZM1313.27 628.168L1311.28 627.912L1311.55 625.848L1313.6 626.197L1313.27 628.168ZM1297.2 752.548L1296.86 754.52L1294.97 754.198L1295.21 752.292L1297.2 752.548ZM1315.17 755.6L1315.5 753.628L1317.4 753.95L1317.15 755.856L1315.17 755.6ZM1296.69 898.636L1296.35 900.608L1294.46 900.286L1294.7 898.38L1296.69 898.636ZM1300.69 899.315L1302.67 899.571L1302.4 901.635L1300.35 901.286L1300.69 899.315ZM1319.17 756.279L1317.18 756.022L1317.45 753.958L1319.5 754.307L1319.17 756.279ZM1337.13 759.328L1339.11 759.584L1338.84 761.648L1336.79 761.3L1337.13 759.328ZM1353.2 634.948L1353.53 632.976L1355.43 633.298L1355.18 635.204L1353.2 634.948ZM1335.24 631.898L1334.9 633.87L1333.01 633.548L1333.25 631.642L1335.24 631.898ZM1350.05 486.221L1354.05 486.899L1353.38 490.843L1349.38 490.164L1350.05 486.221ZM1329.26 630.963L1347.74 487.936L1351.7 488.449L1333.22 631.476L1329.26 630.963ZM1313.6 626.197L1331.57 629.248L1330.9 633.191L1312.93 630.14L1313.6 626.197ZM1295.21 752.292L1311.28 627.912L1315.25 628.425L1299.18 752.805L1295.21 752.292ZM1314.83 757.572L1296.86 754.52L1297.53 750.577L1315.5 753.628L1314.83 757.572ZM1294.7 898.38L1313.19 755.343L1317.15 755.856L1298.67 898.892L1294.7 898.38ZM1300.35 901.286L1296.35 900.608L1297.02 896.664L1301.02 897.343L1300.35 901.286ZM1321.15 756.535L1302.67 899.571L1298.7 899.058L1317.18 756.022L1321.15 756.535ZM1336.79 761.3L1318.83 758.25L1319.5 754.307L1337.46 757.356L1336.79 761.3ZM1355.18 635.204L1339.11 759.584L1335.14 759.072L1351.21 634.691L1355.18 635.204ZM1335.57 629.927L1353.53 632.976L1352.86 636.92L1334.9 633.87L1335.57 629.927ZM1355.7 489.127L1337.22 632.155L1333.25 631.642L1351.73 488.615L1355.7 489.127Z" fill="black" mask="url(#path-44-outside-21_45_418)"/>
<mask id="path-46-outside-22_45_418" maskUnits="userSpaceOnUse" x="1300.45" y="606.15" width="149.316" height="395.614" fill="black">
<rect fill="white" x="1300.45" y="606.15" width="149.316" height="395.614"/>
<path fill-rule="evenodd" clip-rule="evenodd" d="M1402.23 610.613L1398.24 609.934L1380.78 745.033L1362.79 741.978L1347.61 859.473L1365.6 862.528L1348.14 997.665L1352.14 998.344L1369.6 863.207L1387.54 866.253L1402.72 748.757L1384.78 745.711L1402.23 610.613Z"/>
</mask>
<path fill-rule="evenodd" clip-rule="evenodd" d="M1402.23 610.613L1398.24 609.934L1380.78 745.033L1362.79 741.978L1347.61 859.473L1365.6 862.528L1348.14 997.665L1352.14 998.344L1369.6 863.207L1387.54 866.253L1402.72 748.757L1384.78 745.711L1402.23 610.613Z" fill="#FFEC95"/>
<path d="M1398.24 609.934L1396.25 609.678L1396.52 607.614L1398.57 607.962L1398.24 609.934ZM1402.23 610.613L1402.57 608.641L1404.46 608.963L1404.22 610.869L1402.23 610.613ZM1380.78 745.033L1382.76 745.289L1382.5 747.353L1380.45 747.004L1380.78 745.033ZM1362.79 741.978L1360.8 741.721L1361.07 739.658L1363.12 740.006L1362.79 741.978ZM1347.61 859.473L1347.27 861.445L1345.38 861.123L1345.62 859.217L1347.61 859.473ZM1365.6 862.528L1365.93 860.556L1367.83 860.878L1367.58 862.784L1365.6 862.528ZM1348.14 997.665L1347.8 999.637L1345.91 999.315L1346.16 997.409L1348.14 997.665ZM1352.14 998.344L1354.12 998.6L1353.85 1000.66L1351.8 1000.32L1352.14 998.344ZM1369.6 863.207L1367.61 862.951L1367.88 860.887L1369.93 861.235L1369.6 863.207ZM1387.54 866.253L1389.52 866.509L1389.25 868.573L1387.2 868.225L1387.54 866.253ZM1402.72 748.757L1403.05 746.785L1404.95 747.107L1404.7 749.013L1402.72 748.757ZM1384.78 745.711L1384.44 747.683L1382.55 747.361L1382.79 745.455L1384.78 745.711ZM1398.57 607.962L1402.57 608.641L1401.9 612.584L1397.9 611.906L1398.57 607.962ZM1378.8 744.776L1396.25 609.678L1400.22 610.19L1382.76 745.289L1378.8 744.776ZM1363.12 740.006L1381.11 743.061L1380.45 747.004L1362.45 743.95L1363.12 740.006ZM1345.62 859.217L1360.8 741.721L1364.77 742.234L1349.59 859.73L1345.62 859.217ZM1365.26 864.5L1347.27 861.445L1347.94 857.502L1365.93 860.556L1365.26 864.5ZM1346.16 997.409L1363.62 862.272L1367.58 862.784L1350.12 997.921L1346.16 997.409ZM1351.8 1000.32L1347.8 999.637L1348.47 995.693L1352.47 996.372L1351.8 1000.32ZM1371.58 863.463L1354.12 998.6L1350.15 998.087L1367.61 862.951L1371.58 863.463ZM1387.2 868.225L1369.26 865.179L1369.93 861.235L1387.87 864.281L1387.2 868.225ZM1404.7 749.013L1389.52 866.509L1385.55 865.997L1400.73 748.501L1404.7 749.013ZM1385.11 743.74L1403.05 746.785L1402.38 750.729L1384.44 747.683L1385.11 743.74ZM1404.22 610.869L1386.76 745.968L1382.79 745.455L1400.25 610.356L1404.22 610.869Z" fill="black" mask="url(#path-46-outside-22_45_418)"/>
<mask id="path-48-outside-23_45_418" maskUnits="userSpaceOnUse" x="1354.39" y="755.142" width="136.061" height="357.817" fill="black">
<rect fill="white" x="1354.39" y="755.142" width="136.061" height="357.817"/>
<path fill-rule="evenodd" clip-rule="evenodd" d="M1447.24 759.604L1443.24 758.925L1427.48 880.85L1409.51 877.799L1395.81 983.832L1413.78 986.884L1398.03 1108.82L1402.03 1109.5L1417.78 987.563L1435.74 990.612L1449.44 884.579L1431.48 881.529L1447.24 759.604Z"/>
</mask>
<path fill-rule="evenodd" clip-rule="evenodd" d="M1447.24 759.604L1443.24 758.925L1427.48 880.85L1409.51 877.799L1395.81 983.832L1413.78 986.884L1398.03 1108.82L1402.03 1109.5L1417.78 987.563L1435.74 990.612L1449.44 884.579L1431.48 881.529L1447.24 759.604Z" fill="#FFEC95"/>
<path d="M1443.24 758.925L1441.25 758.669L1441.52 756.605L1443.57 756.954L1443.24 758.925ZM1447.24 759.604L1447.57 757.632L1449.47 757.954L1449.22 759.86L1447.24 759.604ZM1427.48 880.85L1429.47 881.107L1429.2 883.171L1427.15 882.822L1427.48 880.85ZM1409.51 877.799L1407.53 877.543L1407.79 875.479L1409.85 875.827L1409.51 877.799ZM1395.81 983.832L1395.48 985.804L1393.58 985.482L1393.83 983.576L1395.81 983.832ZM1413.78 986.884L1414.12 984.912L1416.01 985.234L1415.77 987.14L1413.78 986.884ZM1398.03 1108.82L1397.7 1110.79L1395.8 1110.47L1396.05 1108.57L1398.03 1108.82ZM1402.03 1109.5L1404.01 1109.76L1403.74 1111.82L1401.69 1111.47L1402.03 1109.5ZM1417.78 987.563L1415.8 987.306L1416.07 985.242L1418.12 985.591L1417.78 987.563ZM1435.74 990.612L1437.73 990.868L1437.46 992.932L1435.41 992.584L1435.74 990.612ZM1449.44 884.579L1449.78 882.607L1451.67 882.928L1451.43 884.835L1449.44 884.579ZM1431.48 881.529L1431.15 883.501L1429.25 883.179L1429.5 881.273L1431.48 881.529ZM1443.57 756.954L1447.57 757.632L1446.9 761.576L1442.9 760.897L1443.57 756.954ZM1425.5 880.594L1441.25 758.669L1445.22 759.182L1429.47 881.107L1425.5 880.594ZM1409.85 875.827L1427.82 878.879L1427.15 882.822L1409.18 879.771L1409.85 875.827ZM1393.83 983.576L1407.53 877.543L1411.5 878.055L1397.8 984.089L1393.83 983.576ZM1413.45 988.856L1395.48 985.804L1396.15 981.861L1414.12 984.912L1413.45 988.856ZM1396.05 1108.57L1411.8 986.627L1415.77 987.14L1400.01 1109.08L1396.05 1108.57ZM1401.69 1111.47L1397.7 1110.79L1398.36 1106.85L1402.36 1107.53L1401.69 1111.47ZM1419.77 987.819L1404.01 1109.76L1400.04 1109.25L1415.8 987.306L1419.77 987.819ZM1435.41 992.584L1417.45 989.534L1418.12 985.591L1436.08 988.64L1435.41 992.584ZM1451.43 884.835L1437.73 990.868L1433.76 990.355L1447.46 884.322L1451.43 884.835ZM1431.82 879.557L1449.78 882.607L1449.11 886.55L1431.15 883.501L1431.82 879.557ZM1449.22 759.86L1433.47 881.786L1429.5 881.273L1445.25 759.348L1449.22 759.86Z" fill="black" mask="url(#path-48-outside-23_45_418)"/>
<mask id="path-50-outside-24_45_418" maskUnits="userSpaceOnUse" x="1429.83" y="959.291" width="81.6968" height="203.531" fill="black">
<rect fill="white" x="1429.83" y="959.291" width="81.6968" height="203.531"/>
<path fill-rule="evenodd" clip-rule="evenodd" d="M1485.09 963.851L1481.09 963.173L1472.33 1030.97L1454.33 1027.91L1446.71 1086.89L1464.71 1089.95L1455.94 1157.82L1459.94 1158.5L1468.71 1090.63L1486.64 1093.67L1494.26 1034.69L1476.33 1031.65L1485.09 963.851Z"/>
</mask>
<path fill-rule="evenodd" clip-rule="evenodd" d="M1485.09 963.851L1481.09 963.173L1472.33 1030.97L1454.33 1027.91L1446.71 1086.89L1464.71 1089.95L1455.94 1157.82L1459.94 1158.5L1468.71 1090.63L1486.64 1093.67L1494.26 1034.69L1476.33 1031.65L1485.09 963.851Z" fill="#FFEC95"/>
<path d="M1481.09 963.173L1479.11 962.916L1479.38 960.852L1481.43 961.201L1481.09 963.173ZM1485.09 963.851L1485.43 961.88L1487.32 962.201L1487.07 964.108L1485.09 963.851ZM1472.33 1030.97L1474.32 1031.22L1474.05 1033.29L1472 1032.94L1472.33 1030.97ZM1454.33 1027.91L1452.34 1027.65L1452.61 1025.59L1454.66 1025.94L1454.33 1027.91ZM1446.71 1086.89L1446.37 1088.86L1444.48 1088.54L1444.72 1086.64L1446.71 1086.89ZM1464.71 1089.95L1465.05 1087.98L1466.94 1088.3L1466.7 1090.21L1464.71 1089.95ZM1455.94 1157.82L1455.61 1159.79L1453.71 1159.47L1453.96 1157.56L1455.94 1157.82ZM1459.94 1158.5L1461.92 1158.76L1461.66 1160.82L1459.61 1160.47L1459.94 1158.5ZM1468.71 1090.63L1466.73 1090.37L1466.99 1088.31L1469.05 1088.66L1468.71 1090.63ZM1486.64 1093.67L1488.62 1093.93L1488.36 1095.99L1486.3 1095.64L1486.64 1093.67ZM1494.26 1034.69L1494.59 1032.72L1496.49 1033.04L1496.24 1034.95L1494.26 1034.69ZM1476.33 1031.65L1476 1033.62L1474.1 1033.3L1474.35 1031.39L1476.33 1031.65ZM1481.43 961.201L1485.43 961.88L1484.76 965.823L1480.76 965.144L1481.43 961.201ZM1470.35 1030.71L1479.11 962.916L1483.08 963.429L1474.32 1031.22L1470.35 1030.71ZM1454.66 1025.94L1472.67 1029L1472 1032.94L1453.99 1029.88L1454.66 1025.94ZM1444.72 1086.64L1452.34 1027.65L1456.31 1028.17L1448.69 1087.15L1444.72 1086.64ZM1464.38 1091.92L1446.37 1088.86L1447.04 1084.92L1465.05 1087.98L1464.38 1091.92ZM1453.96 1157.56L1462.73 1089.69L1466.7 1090.21L1457.93 1158.08L1453.96 1157.56ZM1459.61 1160.47L1455.61 1159.79L1456.28 1155.85L1460.28 1156.53L1459.61 1160.47ZM1470.69 1090.88L1461.92 1158.76L1457.96 1158.24L1466.73 1090.37L1470.69 1090.88ZM1486.3 1095.64L1468.38 1092.6L1469.05 1088.66L1486.97 1091.7L1486.3 1095.64ZM1496.24 1034.95L1488.62 1093.93L1484.66 1093.42L1492.28 1034.43L1496.24 1034.95ZM1476.67 1029.67L1494.59 1032.72L1493.92 1036.66L1476 1033.62L1476.67 1029.67ZM1487.07 964.108L1478.31 1031.9L1474.35 1031.39L1483.11 963.595L1487.07 964.108Z" fill="black" mask="url(#path-50-outside-24_45_418)"/>
<mask id="path-52-outside-25_45_418" maskUnits="userSpaceOnUse" x="1416.78" y="491.458" width="285.08" height="775.924" fill="black">
<rect fill="white" x="1416.78" y="491.458" width="285.08" height="775.924"/>
<path fill-rule="evenodd" clip-rule="evenodd" d="M1610.94 495.92L1606.94 495.242L1572.04 765.326L1552.95 762.086L1522.9 994.682L1541.99 997.923L1507.76 1262.81L1511.76 1263.49L1545.99 998.601L1562.83 1001.46L1592.88 768.865L1576.04 766.005L1610.94 495.92Z"/>
</mask>
<path fill-rule="evenodd" clip-rule="evenodd" d="M1610.94 495.92L1606.94 495.242L1572.04 765.326L1552.95 762.086L1522.9 994.682L1541.99 997.923L1507.76 1262.81L1511.76 1263.49L1545.99 998.601L1562.83 1001.46L1592.88 768.865L1576.04 766.005L1610.94 495.92Z" fill="#FFEC95"/>
<path d="M1606.94 495.242L1604.95 494.985L1605.22 492.921L1607.27 493.27L1606.94 495.242ZM1610.94 495.92L1611.27 493.949L1613.17 494.27L1612.92 496.177L1610.94 495.92ZM1572.04 765.326L1574.03 765.583L1573.76 767.647L1571.71 767.298L1572.04 765.326ZM1552.95 762.086L1550.97 761.829L1551.24 759.766L1553.29 760.114L1552.95 762.086ZM1522.9 994.682L1522.57 996.654L1520.67 996.332L1520.92 994.426L1522.9 994.682ZM1541.99 997.923L1542.32 995.951L1544.22 996.273L1543.97 998.179L1541.99 997.923ZM1507.76 1262.81L1507.43 1264.78L1505.53 1264.46L1505.78 1262.56L1507.76 1262.81ZM1511.76 1263.49L1513.75 1263.75L1513.48 1265.81L1511.43 1265.46L1511.76 1263.49ZM1545.99 998.601L1544 998.345L1544.27 996.281L1546.32 996.63L1545.99 998.601ZM1562.83 1001.46L1564.82 1001.72L1564.55 1003.78L1562.5 1003.43L1562.83 1001.46ZM1592.88 768.865L1593.22 766.893L1595.11 767.215L1594.87 769.121L1592.88 768.865ZM1576.04 766.005L1575.71 767.977L1573.81 767.655L1574.06 765.749L1576.04 766.005ZM1607.27 493.27L1611.27 493.949L1610.6 497.892L1606.6 497.213L1607.27 493.27ZM1570.06 765.07L1604.95 494.985L1608.92 495.498L1574.03 765.583L1570.06 765.07ZM1553.29 760.114L1572.38 763.355L1571.71 767.298L1552.62 764.057L1553.29 760.114ZM1520.92 994.426L1550.97 761.829L1554.94 762.342L1524.88 994.938L1520.92 994.426ZM1541.65 999.894L1522.57 996.654L1523.24 992.71L1542.32 995.951L1541.65 999.894ZM1505.78 1262.56L1540.01 997.666L1543.97 998.179L1509.75 1263.07L1505.78 1262.56ZM1511.43 1265.46L1507.43 1264.78L1508.1 1260.84L1512.1 1261.52L1511.43 1265.46ZM1547.97 998.858L1513.75 1263.75L1509.78 1263.23L1544 998.345L1547.97 998.858ZM1562.5 1003.43L1545.65 1000.57L1546.32 996.63L1563.17 999.49L1562.5 1003.43ZM1594.87 769.121L1564.82 1001.72L1560.85 1001.21L1590.9 768.609L1594.87 769.121ZM1576.37 764.033L1593.22 766.893L1592.55 770.837L1575.71 767.977L1576.37 764.033ZM1612.92 496.177L1578.02 766.261L1574.06 765.749L1608.95 495.664L1612.92 496.177Z" fill="black" mask="url(#path-52-outside-25_45_418)"/>
<mask id="path-54-outside-26_45_418" maskUnits="userSpaceOnUse" x="1517.3" y="278.718" width="270.482" height="735.03" fill="black">
<rect fill="white" x="1517.3" y="278.718" width="270.482" height="735.03"/>
<path fill-rule="evenodd" clip-rule="evenodd" d="M1701.52 283.18L1697.52 282.502L1664.79 535.884L1646.82 532.834L1618.35 753.173L1636.32 756.223L1603.58 1009.62L1607.58 1010.3L1640.32 756.901L1658.28 759.952L1686.75 539.613L1668.78 536.563L1701.52 283.18Z"/>
</mask>
<path fill-rule="evenodd" clip-rule="evenodd" d="M1701.52 283.18L1697.52 282.502L1664.79 535.884L1646.82 532.834L1618.35 753.173L1636.32 756.223L1603.58 1009.62L1607.58 1010.3L1640.32 756.901L1658.28 759.952L1686.75 539.613L1668.78 536.563L1701.52 283.18Z" fill="#FFEC95"/>
<path d="M1697.52 282.502L1695.54 282.245L1695.81 280.181L1697.86 280.53L1697.52 282.502ZM1701.52 283.18L1701.86 281.209L1703.75 281.53L1703.51 283.437L1701.52 283.18ZM1664.79 535.884L1666.77 536.14L1666.5 538.204L1664.45 537.856L1664.79 535.884ZM1646.82 532.834L1644.84 532.578L1645.1 530.514L1647.16 530.862L1646.82 532.834ZM1618.35 753.173L1618.02 755.144L1616.12 754.823L1616.37 752.916L1618.35 753.173ZM1636.32 756.223L1636.65 754.251L1638.55 754.573L1638.3 756.479L1636.32 756.223ZM1603.58 1009.62L1603.24 1011.59L1601.35 1011.27L1601.59 1009.37L1603.58 1009.62ZM1607.58 1010.3L1609.56 1010.56L1609.29 1012.62L1607.24 1012.27L1607.58 1010.3ZM1640.32 756.901L1638.33 756.645L1638.6 754.581L1640.65 754.93L1640.32 756.901ZM1658.28 759.952L1660.27 760.208L1660 762.272L1657.95 761.924L1658.28 759.952ZM1686.75 539.613L1687.09 537.642L1688.98 537.963L1688.74 539.87L1686.75 539.613ZM1668.78 536.563L1668.45 538.535L1666.55 538.213L1666.8 536.307L1668.78 536.563ZM1697.86 280.53L1701.86 281.209L1701.19 285.152L1697.19 284.473L1697.86 280.53ZM1662.8 535.628L1695.54 282.245L1699.51 282.758L1666.77 536.14L1662.8 535.628ZM1647.16 530.862L1665.12 533.912L1664.45 537.856L1646.49 534.806L1647.16 530.862ZM1616.37 752.916L1644.84 532.578L1648.8 533.09L1620.34 753.429L1616.37 752.916ZM1635.98 758.194L1618.02 755.144L1618.69 751.201L1636.65 754.251L1635.98 758.194ZM1601.59 1009.37L1634.33 755.966L1638.3 756.479L1605.56 1009.88L1601.59 1009.37ZM1607.24 1012.27L1603.24 1011.59L1603.91 1007.65L1607.91 1008.33L1607.24 1012.27ZM1642.3 757.158L1609.56 1010.56L1605.59 1010.04L1638.33 756.645L1642.3 757.158ZM1657.95 761.924L1639.98 758.873L1640.65 754.93L1658.62 757.98L1657.95 761.924ZM1688.74 539.87L1660.27 760.208L1656.3 759.696L1684.77 539.357L1688.74 539.87ZM1669.12 534.591L1687.09 537.642L1686.42 541.585L1668.45 538.535L1669.12 534.591ZM1703.51 283.437L1670.77 536.819L1666.8 536.307L1699.54 282.924L1703.51 283.437Z" fill="black" mask="url(#path-54-outside-26_45_418)"/>
<mask id="path-56-outside-27_45_418" maskUnits="userSpaceOnUse" x="1690.81" y="477.834" width="74.4007" height="166.434" fill="black">
<rect fill="white" x="1690.81" y="477.834" width="74.4007" height="166.434"/>
<path fill-rule="evenodd" clip-rule="evenodd" d="M1739.98 482.759L1735.99 482.08L1728.9 536.945L1710.85 533.882L1704.68 581.64L1722.73 584.704L1715.62 639.69L1719.62 640.369L1726.72 585.383L1744.61 588.419L1750.78 540.661L1732.89 537.624L1739.98 482.759Z"/>
</mask>
<path fill-rule="evenodd" clip-rule="evenodd" d="M1739.98 482.759L1735.99 482.08L1728.9 536.945L1710.85 533.882L1704.68 581.64L1722.73 584.704L1715.62 639.69L1719.62 640.369L1726.72 585.383L1744.61 588.419L1750.78 540.661L1732.89 537.624L1739.98 482.759Z" fill="#FFEC95"/>
<path d="M1735.99 482.08L1734 481.824L1734.27 479.76L1736.32 480.109L1735.99 482.08ZM1739.98 482.759L1740.32 480.787L1742.21 481.109L1741.97 483.016L1739.98 482.759ZM1728.9 536.945L1730.88 537.202L1730.61 539.266L1728.56 538.917L1728.9 536.945ZM1710.85 533.882L1708.87 533.625L1709.13 531.562L1711.19 531.91L1710.85 533.882ZM1704.68 581.64L1704.35 583.612L1702.45 583.29L1702.7 581.384L1704.68 581.64ZM1722.73 584.704L1723.06 582.732L1724.96 583.054L1724.71 584.96L1722.73 584.704ZM1715.62 639.69L1715.29 641.662L1713.39 641.34L1713.64 639.434L1715.62 639.69ZM1719.62 640.369L1721.6 640.625L1721.34 642.689L1719.29 642.34L1719.62 640.369ZM1726.72 585.383L1724.74 585.126L1725.01 583.062L1727.06 583.411L1726.72 585.383ZM1744.61 588.419L1746.6 588.676L1746.33 590.74L1744.28 590.391L1744.61 588.419ZM1750.78 540.661L1751.12 538.689L1753.01 539.011L1752.77 540.917L1750.78 540.661ZM1732.89 537.624L1732.56 539.596L1730.67 539.274L1730.91 537.368L1732.89 537.624ZM1736.32 480.109L1740.32 480.787L1739.65 484.731L1735.65 484.052L1736.32 480.109ZM1726.91 536.689L1734 481.824L1737.97 482.337L1730.88 537.202L1726.91 536.689ZM1711.19 531.91L1729.23 534.974L1728.56 538.917L1710.52 535.854L1711.19 531.91ZM1702.7 581.384L1708.87 533.625L1712.83 534.138L1706.66 581.896L1702.7 581.384ZM1722.39 586.676L1704.35 583.612L1705.02 579.668L1723.06 582.732L1722.39 586.676ZM1713.64 639.434L1720.74 584.448L1724.71 584.96L1717.61 639.946L1713.64 639.434ZM1719.29 642.34L1715.29 641.662L1715.96 637.718L1719.95 638.397L1719.29 642.34ZM1728.71 585.639L1721.6 640.625L1717.64 640.112L1724.74 585.126L1728.71 585.639ZM1744.28 590.391L1726.39 587.354L1727.06 583.411L1744.95 586.448L1744.28 590.391ZM1752.77 540.917L1746.6 588.676L1742.63 588.163L1748.8 540.405L1752.77 540.917ZM1733.23 535.652L1751.12 538.689L1750.45 542.633L1732.56 539.596L1733.23 535.652ZM1741.97 483.016L1734.88 537.881L1730.91 537.368L1738 482.503L1741.97 483.016Z" fill="black" mask="url(#path-56-outside-27_45_418)"/>
<mask id="path-58-outside-28_45_418" maskUnits="userSpaceOnUse" x="1718.69" y="460.115" width="128.878" height="338.363" fill="black">
<rect fill="white" x="1718.69" y="460.115" width="128.878" height="338.363"/>
<path fill-rule="evenodd" clip-rule="evenodd" d="M1806.58 464.577L1802.58 463.898L1787.72 578.877L1769.75 575.826L1756.83 675.806L1774.8 678.857L1759.95 793.831L1763.95 794.51L1778.8 679.536L1796.76 682.585L1809.68 582.606L1791.72 579.556L1806.58 464.577Z"/>
</mask>
<path fill-rule="evenodd" clip-rule="evenodd" d="M1806.58 464.577L1802.58 463.898L1787.72 578.877L1769.75 575.826L1756.83 675.806L1774.8 678.857L1759.95 793.831L1763.95 794.51L1778.8 679.536L1796.76 682.585L1809.68 582.606L1791.72 579.556L1806.58 464.577Z" fill="#FFEC95"/>
<path d="M1802.58 463.898L1800.59 463.642L1800.86 461.578L1802.91 461.926L1802.58 463.898ZM1806.58 464.577L1806.91 462.605L1808.81 462.927L1808.56 464.833L1806.58 464.577ZM1787.72 578.877L1789.71 579.134L1789.44 581.198L1787.39 580.849L1787.72 578.877ZM1769.75 575.826L1767.77 575.57L1768.03 573.506L1770.09 573.854L1769.75 575.826ZM1756.83 675.806L1756.5 677.778L1754.6 677.456L1754.85 675.549L1756.83 675.806ZM1774.8 678.857L1775.14 676.885L1777.03 677.207L1776.79 679.113L1774.8 678.857ZM1759.95 793.831L1759.61 795.803L1757.72 795.482L1757.97 793.575L1759.95 793.831ZM1763.95 794.51L1765.93 794.766L1765.66 796.83L1763.61 796.482L1763.95 794.51ZM1778.8 679.536L1776.82 679.279L1777.09 677.216L1779.14 677.564L1778.8 679.536ZM1796.76 682.585L1798.75 682.841L1798.48 684.905L1796.43 684.557L1796.76 682.585ZM1809.68 582.606L1810.02 580.634L1811.91 580.956L1811.67 582.862L1809.68 582.606ZM1791.72 579.556L1791.39 581.528L1789.49 581.206L1789.74 579.3L1791.72 579.556ZM1802.91 461.926L1806.91 462.605L1806.24 466.549L1802.24 465.87L1802.91 461.926ZM1785.74 578.621L1800.59 463.642L1804.56 464.155L1789.71 579.134L1785.74 578.621ZM1770.09 573.854L1788.06 576.906L1787.39 580.849L1769.42 577.798L1770.09 573.854ZM1754.85 675.549L1767.77 575.57L1771.73 576.083L1758.82 676.062L1754.85 675.549ZM1774.47 680.829L1756.5 677.778L1757.17 673.834L1775.14 676.885L1774.47 680.829ZM1757.97 793.575L1772.82 678.601L1776.79 679.113L1761.93 794.088L1757.97 793.575ZM1763.61 796.482L1759.61 795.803L1760.28 791.86L1764.28 792.538L1763.61 796.482ZM1780.79 679.792L1765.93 794.766L1761.96 794.254L1776.82 679.279L1780.79 679.792ZM1796.43 684.557L1778.47 681.508L1779.14 677.564L1797.1 680.613L1796.43 684.557ZM1811.67 582.862L1798.75 682.841L1794.78 682.329L1807.7 582.349L1811.67 582.862ZM1792.06 577.584L1810.02 580.634L1809.35 584.577L1791.39 581.528L1792.06 577.584ZM1808.56 464.833L1793.7 579.813L1789.74 579.3L1804.59 464.321L1808.56 464.833Z" fill="black" mask="url(#path-58-outside-28_45_418)"/>
<mask id="path-60-outside-29_45_418" maskUnits="userSpaceOnUse" x="1779.53" y="417.398" width="142.367" height="378.147" fill="black">
<rect fill="white" x="1779.53" y="417.398" width="142.367" height="378.147"/>
<path fill-rule="evenodd" clip-rule="evenodd" d="M1876.35 421.86L1872.35 421.182L1855.7 550.066L1837.72 547.012L1823.24 659.091L1841.22 662.144L1824.57 791.043L1828.56 791.722L1845.22 662.822L1863.17 665.87L1877.65 553.792L1859.7 550.744L1876.35 421.86Z"/>
</mask>
<path fill-rule="evenodd" clip-rule="evenodd" d="M1876.35 421.86L1872.35 421.182L1855.7 550.066L1837.72 547.012L1823.24 659.091L1841.22 662.144L1824.57 791.043L1828.56 791.722L1845.22 662.822L1863.17 665.87L1877.65 553.792L1859.7 550.744L1876.35 421.86Z" fill="#FFEC95"/>
<path d="M1872.35 421.182L1870.37 420.925L1870.64 418.862L1872.69 419.21L1872.35 421.182ZM1876.35 421.86L1876.69 419.889L1878.58 420.21L1878.34 422.117L1876.35 421.86ZM1855.7 550.066L1857.69 550.322L1857.42 552.386L1855.37 552.037L1855.7 550.066ZM1837.72 547.012L1835.74 546.756L1836 544.692L1838.05 545.041L1837.72 547.012ZM1823.24 659.091L1822.9 661.062L1821.01 660.741L1821.25 658.834L1823.24 659.091ZM1841.22 662.144L1841.56 660.172L1843.45 660.494L1843.2 662.4L1841.22 662.144ZM1824.57 791.043L1824.23 793.015L1822.34 792.693L1822.58 790.787L1824.57 791.043ZM1828.56 791.722L1830.55 791.978L1830.28 794.042L1828.23 793.694L1828.56 791.722ZM1845.22 662.822L1843.24 662.566L1843.5 660.502L1845.55 660.851L1845.22 662.822ZM1863.17 665.87L1865.15 666.126L1864.89 668.19L1862.83 667.842L1863.17 665.87ZM1877.65 553.792L1877.99 551.82L1879.88 552.142L1879.63 554.048L1877.65 553.792ZM1859.7 550.744L1859.37 552.716L1857.47 552.394L1857.72 550.488L1859.7 550.744ZM1872.69 419.21L1876.69 419.889L1876.02 423.832L1872.02 423.153L1872.69 419.21ZM1853.72 549.809L1870.37 420.925L1874.34 421.438L1857.69 550.322L1853.72 549.809ZM1838.05 545.041L1856.04 548.094L1855.37 552.037L1837.38 548.984L1838.05 545.041ZM1821.25 658.834L1835.74 546.756L1839.7 547.269L1825.22 659.347L1821.25 658.834ZM1840.89 664.115L1822.9 661.062L1823.57 657.119L1841.56 660.172L1840.89 664.115ZM1822.58 790.787L1839.24 661.887L1843.2 662.4L1826.55 791.299L1822.58 790.787ZM1828.23 793.694L1824.23 793.015L1824.9 789.071L1828.9 789.75L1828.23 793.694ZM1847.2 663.079L1830.55 791.978L1826.58 791.466L1843.24 662.566L1847.2 663.079ZM1862.83 667.842L1844.88 664.794L1845.55 660.851L1863.5 663.898L1862.83 667.842ZM1879.63 554.048L1865.15 666.126L1861.19 665.614L1875.67 553.536L1879.63 554.048ZM1860.03 548.773L1877.99 551.82L1877.32 555.764L1859.37 552.716L1860.03 548.773ZM1878.34 422.117L1861.68 551.001L1857.72 550.488L1874.37 421.604L1878.34 422.117Z" fill="black" mask="url(#path-60-outside-29_45_418)"/>
<mask id="path-62-outside-30_45_418" maskUnits="userSpaceOnUse" x="1888.66" y="429.532" width="75.6272" height="168.537" fill="black">
<rect fill="white" x="1888.66" y="429.532" width="75.6272" height="168.537"/>
<path fill-rule="evenodd" clip-rule="evenodd" d="M1938.96 434.442L1934.97 433.763L1927.78 489.409L1909.79 486.355L1903.53 534.75L1921.52 537.804L1914.33 593.475L1918.33 594.154L1925.52 538.483L1943.47 541.529L1949.72 493.135L1931.77 490.088L1938.96 434.442Z"/>
</mask>
<path fill-rule="evenodd" clip-rule="evenodd" d="M1938.96 434.442L1934.97 433.763L1927.78 489.409L1909.79 486.355L1903.53 534.75L1921.52 537.804L1914.33 593.475L1918.33 594.154L1925.52 538.483L1943.47 541.529L1949.72 493.135L1931.77 490.088L1938.96 434.442Z" fill="#FFEC95"/>
<path d="M1934.97 433.763L1932.98 433.507L1933.25 431.443L1935.3 431.791L1934.97 433.763ZM1938.96 434.442L1939.3 432.47L1941.19 432.792L1940.95 434.698L1938.96 434.442ZM1927.78 489.409L1929.76 489.666L1929.49 491.729L1927.44 491.381L1927.78 489.409ZM1909.79 486.355L1907.8 486.099L1908.07 484.035L1910.12 484.383L1909.79 486.355ZM1903.53 534.75L1903.2 536.722L1901.3 536.4L1901.55 534.494L1903.53 534.75ZM1921.52 537.804L1921.86 535.832L1923.75 536.154L1923.51 538.06L1921.52 537.804ZM1914.33 593.475L1914 595.447L1912.1 595.126L1912.35 593.219L1914.33 593.475ZM1918.33 594.154L1920.31 594.411L1920.05 596.474L1917.99 596.126L1918.33 594.154ZM1925.52 538.483L1923.54 538.226L1923.81 536.163L1925.86 536.511L1925.52 538.483ZM1943.47 541.529L1945.45 541.785L1945.18 543.849L1943.13 543.501L1943.47 541.529ZM1949.72 493.135L1950.05 491.163L1951.95 491.485L1951.7 493.391L1949.72 493.135ZM1931.77 490.088L1931.44 492.06L1929.54 491.738L1929.79 489.832L1931.77 490.088ZM1935.3 431.791L1939.3 432.47L1938.63 436.413L1934.63 435.735L1935.3 431.791ZM1925.79 489.153L1932.98 433.507L1936.95 434.019L1929.76 489.666L1925.79 489.153ZM1910.12 484.383L1928.11 487.438L1927.44 491.381L1909.45 488.327L1910.12 484.383ZM1901.55 534.494L1907.8 486.099L1911.77 486.611L1905.52 535.006L1901.55 534.494ZM1921.19 539.776L1903.2 536.722L1903.87 532.778L1921.86 535.832L1921.19 539.776ZM1912.35 593.219L1919.54 537.548L1923.51 538.06L1916.31 593.732L1912.35 593.219ZM1917.99 596.126L1914 595.447L1914.67 591.504L1918.66 592.182L1917.99 596.126ZM1927.51 538.739L1920.31 594.411L1916.35 593.898L1923.54 538.226L1927.51 538.739ZM1943.13 543.501L1925.19 540.455L1925.86 536.511L1943.8 539.557L1943.13 543.501ZM1951.7 493.391L1945.45 541.785L1941.48 541.273L1947.74 492.878L1951.7 493.391ZM1932.11 488.116L1950.05 491.163L1949.38 495.106L1931.44 492.06L1932.11 488.116ZM1940.95 434.698L1933.76 490.344L1929.79 489.832L1936.98 434.185L1940.95 434.698Z" fill="black" mask="url(#path-62-outside-30_45_418)"/>
</g>
<defs>
<clipPath id="clip0_45_418">
<rect width="1920" height="1005" fill="white"/>
</clipPath>
</defs>
</svg>
