<svg width="1920" height="1394" viewBox="0 0 1920 1394" fill="none" xmlns="http://www.w3.org/2000/svg">
<g filter="url(#filter0_d_2033_3)">
<path d="M2746.72 370.554C2830.52 319.425 2919.3 334.808 2953.3 348.817L2991 758.516L-1037.42 829.788L-980.742 395.302C-863.621 337.381 -787.962 408.298 -764.772 450.996C-714.07 411.205 -658.151 430.019 -632.686 448.057C-568.289 384.276 -504.502 379.177 -465.339 391.396C-417.021 287.47 -346.149 304.115 -316.753 325.428C-198.307 253.649 -84.0323 309.446 -41.7006 346.317C66.0872 309.347 144.081 361.63 169.604 392.392C209.78 362.977 254.25 373.583 271.463 382.563C318.744 305.453 398.234 330.217 432.07 352.238C477.368 296.122 544.565 315.798 572.5 332.65C672.731 286.341 736.939 321.6 756.515 345.019C799.383 333.488 827.047 355.412 834.65 370.031C880.357 295.55 963.307 310.63 999.068 327.48C1059.97 275.131 1100.78 311.172 1113.58 335.735C1131.85 337.867 1143.23 347.047 1149.81 356.536C1231.1 340.035 1276.53 380.006 1288.59 402.065C1373.72 337.941 1474.38 372.002 1514.07 397.047C1527.85 356.119 1575.82 358.581 1598.07 364.928C1649.39 322.3 1723.25 332.613 1753.77 343.097C1765.08 330.577 1776.74 329.538 1785.97 332.532C1834.22 262.315 1929.3 295.257 1970.7 320.984C2061.87 308.059 2121.21 326.862 2152.79 346.539C2199.14 337.729 2259.29 353.816 2282.99 363.732C2314.67 350.423 2392.61 326.721 2450.85 338.39C2488.28 345.888 2510.18 361.615 2521.86 375.703C2545.53 375.176 2567.46 379.73 2575.34 382.075C2640.33 362.541 2701.01 363.318 2746.72 370.554Z" fill="#F0F4F6"/>
<path d="M2953.3 348.817C2919.3 334.808 2830.36 319.574 2746.57 370.703M2815.39 389.698C2780.66 373.545 2684.04 349.407 2575.34 382.075C2567.46 379.73 2545.78 375.17 2522.11 375.697M2910.94 417.822C2886.89 407.194 2822.25 395.595 2756.15 434.231M2532.77 395.987C2529.73 381.65 2509.09 350.058 2450.85 338.39C2392.61 326.721 2314.67 350.423 2282.99 363.732C2259.29 353.816 2200.3 336.186 2153.95 344.996M2175.86 366.116C2158.69 343.81 2093.62 303.556 1970.7 320.984C1929.3 295.257 1834.43 261.356 1786.18 331.573M1800.7 342.053C1793.02 333.581 1772.89 321.929 1753.77 343.097C1723.25 332.613 1649.39 322.3 1598.07 364.928C1575.82 358.581 1527.85 356.119 1514.06 397.047C1474.38 372.002 1373.72 337.941 1288.59 402.065C1276.53 380.006 1232.08 340.013 1150.79 356.515M1157.32 374.735C1155.7 363.248 1144.69 339.364 1113.58 335.735C1100.78 311.172 1059.97 275.131 999.068 327.48C963.307 310.63 880.356 295.55 834.65 370.031M831.589 370.099C823.986 355.48 799.382 333.488 756.515 345.019M733.235 353.922C741.52 349.867 749.277 346.965 756.515 345.019M756.515 345.019C736.939 321.6 672.731 286.341 572.5 332.65C544.565 315.798 477.368 296.122 432.07 352.238C398.234 330.217 318.744 305.454 271.462 382.563C254.25 373.583 209.78 362.977 169.604 392.392C144.08 361.63 66.087 309.347 -41.7006 346.317C-84.0324 309.446 -198.308 253.649 -316.753 325.428C-346.149 304.115 -417.021 287.47 -465.339 391.396M-440.516 405.968C-472.202 384.759 -551.184 367.335 -632.686 448.057M-657.412 475.616C-649.175 465.364 -640.918 456.21 -632.686 448.057M-632.686 448.057C-658.151 430.019 -714.07 411.205 -764.772 450.996M-797.02 486.285C-786.773 471.282 -775.898 459.728 -764.772 450.996M-764.772 450.996C-787.962 408.298 -863.621 337.381 -980.742 395.302M2666.12 470.806C2639.6 441.146 2563.37 394.874 2470.62 447.067M2443.63 564.346C2438.27 556.457 2430.54 547.588 2420.57 538.931M2201.76 521.112C2305.18 473.196 2380.76 504.378 2420.57 538.931M2319.25 387.774C2306.14 379.783 2269.63 368.999 2228.44 389.794M1974.04 471.081C1933.65 444.97 1831.54 406.837 1746.23 463.185C1729.33 452.758 1685.46 438.609 1645.22 465.433M1350.52 433.097C1326.26 413.11 1264.87 382.282 1213.42 418.862M833.247 444.608C818.595 428.368 778.31 397.862 734.388 405.754M491.663 507.307C439.156 487.228 311.994 470.035 223.393 561.893M-223.09 451.907C-261.618 449.832 -343.265 457.737 -388.357 502.177M-401.288 517.453C-397.444 511.936 -393.103 506.854 -388.357 502.177M-388.357 502.177C-446.678 480.741 -580.426 458.13 -648.852 539.167M-590.54 590.808C-636.905 556.187 -758.612 515.033 -874.522 627.377M-270.174 675.51C-290 656.144 -350.767 622.637 -435.23 643.531M-40.002 652.022C-67.8056 641.117 -137.461 630.207 -193.654 673.807M836.971 611.981C805.111 602.246 724.593 589.417 657.404 615.977C649.114 610.399 623.02 602.913 584.965 617.589M1728.17 614.838C1672.06 600.962 1535.73 590.815 1439.3 661.239M2420.57 538.931C2438.37 528.091 2488.51 507.817 2546.61 513.438" stroke="black" stroke-width="3" stroke-linecap="round"/>
</g>
<path d="M-658.544 475.407C-736.321 432.779 -817.321 447.8 -848.171 460.576L-874.346 815.809L2816.35 799.917L2755.58 425.052C2647.14 377.189 2579.3 440.01 2558.93 477.403C2511.69 443.948 2460.86 461.304 2437.91 477.403C2377.63 423.453 2319.11 420.269 2283.49 431.596C2237.13 342.601 2172.56 358.368 2146.08 377.376C2036.14 317.547 1932.62 368.028 1894.61 400.747C1795.14 370.832 1724.78 417.574 1702.03 444.684C1664.64 420.004 1624.13 430.038 1608.55 438.14C1563.68 372.328 1491.39 395.287 1460.85 414.992C1418.22 367.308 1357.08 385.627 1331.84 400.747C1239.11 362.606 1181.02 394.352 1163.57 414.992C1124.08 405.84 1099.19 425.343 1092.53 438.14C1049.15 374.572 973.493 389.217 941.085 404.486C884.248 360.362 847.603 392.333 836.385 413.834C819.696 416.03 809.458 424.194 803.63 432.531C728.844 419.817 688.059 455.278 677.465 474.598C598.191 420.752 506.703 452.162 470.868 474.598C457.407 439.449 413.532 442.502 393.278 448.423C345.415 412.526 277.983 422.871 250.249 432.531C239.634 421.915 228.931 421.241 220.54 424.009C174.92 364.18 88.5245 394.515 51.1315 417.574C-32.6223 408.144 -86.5859 425.557 -115.107 443.192C-157.735 436.461 -212.489 451.539 -233.99 460.576C-263.281 449.669 -335.138 430.661 -388.236 441.879C-422.36 449.088 -442.095 463.118 -452.504 475.533C-474.192 475.533 -494.183 479.895 -501.35 482.077C-561.273 466.425 -616.829 468.266 -658.544 475.407Z" fill="#EEF3F7"/>
<path d="M-848.171 460.576C-817.321 447.8 -736.179 432.905 -658.401 475.533M-721.034 493.295C-689.562 478.649 -601.564 455.902 -501.35 482.077C-494.183 479.895 -474.427 475.533 -452.74 475.533M-807.973 519.47C-786.161 509.81 -727.204 498.53 -665.88 530.688M-462.088 493.295C-459.595 480.83 -441.335 453.097 -388.237 441.879C-335.138 430.661 -263.282 449.669 -233.99 460.576C-212.489 451.539 -158.83 435.149 -116.202 441.879M-135.834 460.576C-120.565 440.944 -61.7956 404.86 51.1313 417.574C88.5243 394.515 174.715 363.354 220.335 423.183M207.247 432.531C214.103 425.052 232.3 414.582 250.249 432.531C277.982 422.871 345.414 412.526 393.277 448.423C413.532 442.502 457.406 439.449 470.868 474.598C506.703 452.162 598.191 420.752 677.464 474.598C688.059 455.278 727.945 419.817 802.731 432.531M797.122 448.423C798.368 438.452 807.966 417.574 836.385 413.835C847.603 392.334 884.248 360.362 941.085 404.486C973.492 389.217 1049.15 374.572 1092.53 438.14M1095.33 438.14C1102 425.343 1124.08 405.841 1163.57 414.992M1185.07 422.248C1177.4 418.899 1170.24 416.537 1163.57 414.992M1163.57 414.992C1181.02 394.352 1239.11 362.606 1331.84 400.747C1357.08 385.627 1418.22 367.308 1460.85 414.992C1491.39 395.287 1563.68 372.328 1608.55 438.14C1624.13 430.038 1664.64 420.004 1702.03 444.684C1724.78 417.574 1795.14 370.833 1894.61 400.747C1932.62 368.028 2036.14 317.547 2146.08 377.376C2172.56 358.368 2237.13 342.601 2283.49 431.596M2261.06 444.684C2289.64 425.721 2361.62 409.124 2437.91 477.403M2461.11 500.773C2453.36 492.061 2445.61 484.299 2437.91 477.403M2437.91 477.403C2460.86 461.304 2511.69 443.948 2558.93 477.403M2589.18 507.317C2579.49 494.532 2569.3 484.744 2558.93 477.403M2558.93 477.403C2579.3 440.01 2647.14 377.189 2755.58 425.052M-582.68 560.602C-558.998 534.427 -490.133 492.921 -404.129 536.297M-377.019 637.258C-372.274 630.328 -365.378 622.505 -356.42 614.822M-156.4 595.191C-252.084 555.721 -320.67 584.157 -356.42 614.822M-266.709 482.077C-254.868 474.91 -221.651 464.876 -183.51 482.077M621.375 502.643C643.187 484.881 698.778 457.023 746.641 487.686M1095.33 502.643C1108.42 488.309 1144.69 461.137 1185.07 467.12M1409.43 550.319C1457.11 531.934 1573.21 514.609 1656.23 592.386M2062.88 488.621C2098.12 486.083 2173.05 491.351 2215.25 528.936M2227.4 541.906C2223.77 537.205 2219.69 532.892 2215.25 528.936M2215.25 528.936C2268.23 509.265 2390.25 487.125 2454.57 555.928M2402.22 601.734C2443.97 570.885 2554.59 532.931 2663.03 627.91M2110.55 681.195C2128.31 664.056 2183.28 633.892 2261.06 650.345M1899.28 665.303C1924.52 655.331 1988.09 644.549 2040.44 681.195M1095.33 647.541C1124.31 638.504 1197.79 625.853 1259.86 647.541C1267.34 642.555 1291.08 635.575 1326.23 647.541M279.229 667.172C330.333 654.085 454.976 642.68 544.719 701.761M-356.42 614.822C-372.946 605.785 -419.273 589.208 -472.371 595.191" stroke="black" stroke-width="3" stroke-linecap="round"/>
<path d="M-216.048 558.692C-272.706 527.639 -331.711 538.581 -354.183 547.888L-373.25 806.659L2315.25 795.083L2270.99 522.011C2191.99 487.145 2142.57 532.906 2127.74 560.145C2093.32 535.775 2056.3 548.418 2039.57 560.145C1995.67 520.846 1953.04 518.526 1927.09 526.777C1893.32 461.948 1846.28 473.434 1826.99 487.281C1746.91 443.698 1671.5 480.471 1643.81 504.305C1571.35 482.514 1520.1 516.563 1503.52 536.311C1476.29 518.333 1446.78 525.643 1435.43 531.544C1402.74 483.603 1350.08 500.328 1327.83 514.682C1296.78 479.946 1252.24 493.291 1233.86 504.305C1166.3 476.521 1123.99 499.647 1111.28 514.682C1082.51 508.016 1064.38 522.222 1059.53 531.544C1027.93 485.238 972.816 495.906 949.209 507.029C907.805 474.887 881.111 498.176 872.939 513.839C860.782 515.439 853.324 521.385 849.079 527.458C794.601 518.197 764.891 544.029 757.173 558.102C699.426 518.878 632.781 541.759 606.677 558.102C596.871 532.498 564.91 534.722 550.156 539.035C515.29 512.886 466.168 520.422 445.966 527.458C438.233 519.726 430.437 519.234 424.324 521.25C391.092 477.668 328.157 499.765 300.918 516.563C239.907 509.694 200.597 522.378 179.82 535.225C148.768 530.322 108.882 541.305 93.2195 547.888C71.8821 539.943 19.5376 526.096 -19.1419 534.268C-43.9992 539.52 -58.3755 549.74 -65.9581 558.783C-81.7568 558.783 -96.3194 561.961 -101.54 563.55C-145.192 552.149 -185.661 553.49 -216.048 558.692Z" fill="white"/>
<path d="M-354.183 547.888C-331.711 538.581 -272.602 527.731 -215.944 558.784M-261.57 571.722C-238.644 561.054 -174.541 544.483 -101.54 563.55C-96.3193 561.962 -81.928 558.784 -66.1293 558.784M-324.901 590.79C-309.011 583.753 -266.064 575.536 -221.392 598.961M-72.939 571.722C-71.1231 562.643 -57.8213 542.44 -19.1418 534.268C19.5378 526.097 71.8823 539.943 93.2196 547.888C108.882 541.305 147.97 529.365 179.023 534.268M164.722 547.888C175.845 533.587 218.656 507.302 300.918 516.563C328.157 499.766 390.943 477.066 424.175 520.649M414.641 527.459C419.635 522.011 432.891 514.384 445.966 527.459C466.169 520.422 515.29 512.886 550.156 539.035C564.91 534.722 596.871 532.498 606.677 558.103C632.781 541.759 699.426 518.878 757.173 558.103C764.891 544.029 793.946 518.197 848.424 527.459M844.338 539.035C845.246 531.772 852.238 516.563 872.939 513.839C881.111 498.177 907.806 474.887 949.209 507.029C972.816 495.907 1027.93 485.238 1059.53 531.545M1061.57 531.545C1066.43 522.223 1082.51 508.016 1111.28 514.683M1126.94 519.968C1121.36 517.529 1116.14 515.808 1111.28 514.683M1111.28 514.683C1123.99 499.647 1166.3 476.522 1233.86 504.305C1252.24 493.291 1296.78 479.946 1327.83 514.683C1350.08 500.328 1402.74 483.604 1435.43 531.545C1446.78 525.643 1476.29 518.334 1503.53 536.311C1520.1 516.563 1571.35 482.514 1643.81 504.305C1671.5 480.471 1746.91 443.698 1826.99 487.281C1846.28 473.434 1893.32 461.949 1927.09 526.778M1910.75 536.311C1931.57 522.498 1984.01 510.407 2039.58 560.146M2056.48 577.17C2050.83 570.823 2045.19 565.169 2039.58 560.146M2039.58 560.146C2056.3 548.418 2093.32 535.775 2127.74 560.146M2149.77 581.937C2142.71 572.624 2135.29 565.493 2127.74 560.146M2127.74 560.146C2142.57 532.906 2191.99 487.145 2270.99 522.011M-160.785 620.753C-143.534 601.685 -93.3684 571.45 -30.7184 603.047M-10.97 676.593C-7.5137 671.545 -2.49014 665.846 4.03488 660.249M149.741 645.949C80.0392 617.197 30.0778 637.911 4.03488 660.249M69.3854 563.55C78.0111 558.33 102.209 551.02 129.992 563.55M300.918 611.219C327.476 594.195 395.029 568.726 452.776 603.047C463.899 596.237 492.954 586.704 520.193 603.047M716.315 578.532C732.204 565.593 772.7 545.3 807.566 567.636M1061.57 578.532C1071.1 568.09 1097.53 548.297 1126.94 552.655M1290.38 613.262C1325.11 599.869 1409.69 587.249 1470.16 643.906M1766.38 568.317C1792.05 566.469 1846.64 570.307 1877.38 597.685M1886.23 607.133C1883.59 603.709 1880.62 600.567 1877.38 597.685M1877.38 597.685C1915.97 583.356 2004.86 567.228 2051.71 617.348M2013.58 650.716C2043.99 628.243 2124.58 600.596 2203.57 669.783M1801.11 708.599C1814.05 696.114 1854.09 674.141 1910.75 686.127M1647.21 697.022C1665.6 689.758 1711.9 681.904 1750.04 708.599M1061.57 684.084C1082.68 677.501 1136.21 668.285 1181.42 684.084C1186.87 680.452 1204.17 675.367 1229.77 684.084M467.077 698.384C504.303 688.85 595.1 680.543 660.474 723.58M4.03488 660.249C-8.00354 653.667 -41.7503 641.591 -80.4298 645.949" stroke="black" stroke-width="3" stroke-linecap="round"/>
<mask id="path-7-outside-1_2033_3" maskUnits="userSpaceOnUse" x="-427.711" y="67.8319" width="465.326" height="817" fill="black">
<rect fill="white" x="-427.711" y="67.8319" width="465.326" height="817"/>
<path fill-rule="evenodd" clip-rule="evenodd" d="M-234.484 72.8591L-238.953 73.1404L-210.034 354.216L-230.114 355.48L-204.968 599.887L-184.888 598.623L-155.971 879.679L-151.502 879.398L-180.419 598.342L-160.329 597.078L-185.475 352.671L-205.565 353.935L-234.484 72.8591Z"/>
</mask>
<path fill-rule="evenodd" clip-rule="evenodd" d="M-234.484 72.8591L-238.953 73.1404L-210.034 354.216L-230.114 355.48L-204.968 599.887L-184.888 598.623L-155.971 879.679L-151.502 879.398L-180.419 598.342L-160.329 597.078L-185.475 352.671L-205.565 353.935L-234.484 72.8591Z" fill="#AEFF00"/>
<path d="M-238.953 73.1404L-240.943 73.3451L-241.156 71.275L-239.079 71.1443L-238.953 73.1404ZM-234.484 72.8591L-234.609 70.8631L-232.691 70.7424L-232.494 72.6544L-234.484 72.8591ZM-210.034 354.216L-208.045 354.012L-207.832 356.082L-209.909 356.212L-210.034 354.216ZM-230.114 355.48L-232.104 355.684L-232.317 353.614L-230.24 353.484L-230.114 355.48ZM-204.968 599.887L-204.842 601.883L-206.761 602.003L-206.957 600.091L-204.968 599.887ZM-184.888 598.623L-185.014 596.627L-183.095 596.506L-182.899 598.418L-184.888 598.623ZM-155.971 879.679L-155.846 881.675L-157.764 881.796L-157.961 879.884L-155.971 879.679ZM-151.502 879.398L-149.512 879.193L-149.299 881.263L-151.376 881.394L-151.502 879.398ZM-180.419 598.342L-182.408 598.546L-182.621 596.476L-180.544 596.346L-180.419 598.342ZM-160.329 597.078L-158.339 596.873L-158.126 598.943L-160.203 599.074L-160.329 597.078ZM-185.475 352.671L-185.601 350.675L-183.682 350.554L-183.486 352.466L-185.475 352.671ZM-205.565 353.935L-205.439 355.931L-207.358 356.052L-207.554 354.14L-205.565 353.935ZM-239.079 71.1443L-234.609 70.8631L-234.358 74.8552L-238.828 75.1365L-239.079 71.1443ZM-212.024 354.421L-240.943 73.3451L-236.964 72.9357L-208.045 354.012L-212.024 354.421ZM-230.24 353.484L-210.16 352.22L-209.909 356.212L-229.988 357.476L-230.24 353.484ZM-206.957 600.091L-232.104 355.684L-228.125 355.275L-202.978 599.682L-206.957 600.091ZM-184.763 600.619L-204.842 601.883L-205.093 597.891L-185.014 596.627L-184.763 600.619ZM-157.961 879.884L-186.878 598.828L-182.899 598.418L-153.982 879.475L-157.961 879.884ZM-151.376 881.394L-155.846 881.675L-156.097 877.683L-151.627 877.402L-151.376 881.394ZM-178.429 598.137L-149.512 879.193L-153.491 879.603L-182.408 598.546L-178.429 598.137ZM-160.203 599.074L-180.293 600.338L-180.544 596.346L-160.455 595.081L-160.203 599.074ZM-183.486 352.466L-158.339 596.873L-162.318 597.282L-187.465 352.875L-183.486 352.466ZM-205.691 351.939L-185.601 350.675L-185.35 354.667L-205.439 355.931L-205.691 351.939ZM-232.494 72.6544L-203.575 353.73L-207.554 354.14L-236.473 73.0638L-232.494 72.6544Z" fill="black" mask="url(#path-7-outside-1_2033_3)"/>
<mask id="path-9-outside-2_2033_3" maskUnits="userSpaceOnUse" x="-63.8862" y="172.504" width="117.955" height="185.653" fill="black">
<rect fill="white" x="-63.8862" y="172.504" width="117.955" height="185.653"/>
<path fill-rule="evenodd" clip-rule="evenodd" d="M-11.3278 179.112L-15.7973 179.393L-9.64144 239.225L-29.7906 240.493L-24.4205 292.687L-4.27139 291.419L1.92425 351.637L6.39377 351.356L0.198131 291.138L20.2184 289.878L14.8484 237.684L-5.17192 238.944L-11.3278 179.112Z"/>
</mask>
<path fill-rule="evenodd" clip-rule="evenodd" d="M-11.3278 179.112L-15.7973 179.393L-9.64144 239.225L-29.7906 240.493L-24.4205 292.687L-4.27139 291.419L1.92425 351.637L6.39377 351.356L0.198131 291.138L20.2184 289.878L14.8484 237.684L-5.17192 238.944L-11.3278 179.112Z" fill="#AEFF00"/>
<path d="M-15.7973 179.393L-17.7868 179.598L-17.9998 177.528L-15.9229 177.397L-15.7973 179.393ZM-11.3278 179.112L-11.4534 177.116L-9.53504 176.995L-9.33831 178.907L-11.3278 179.112ZM-9.64144 239.225L-7.65194 239.02L-7.43896 241.09L-9.51583 241.221L-9.64144 239.225ZM-29.7906 240.493L-31.7801 240.698L-31.993 238.628L-29.9162 238.497L-29.7906 240.493ZM-24.4205 292.687L-24.2949 294.683L-26.2133 294.804L-26.41 292.892L-24.4205 292.687ZM-4.27139 291.419L-4.39699 289.423L-2.47862 289.302L-2.28189 291.214L-4.27139 291.419ZM1.92425 351.637L2.04986 353.633L0.131481 353.754L-0.0652456 351.842L1.92425 351.637ZM6.39377 351.356L8.38327 351.151L8.59625 353.221L6.51938 353.352L6.39377 351.356ZM0.198131 291.138L-1.79137 291.342L-2.00435 289.272L0.0725235 289.142L0.198131 291.138ZM20.2184 289.878L22.2079 289.673L22.4209 291.743L20.344 291.874L20.2184 289.878ZM14.8484 237.684L14.7228 235.688L16.6411 235.567L16.8379 237.479L14.8484 237.684ZM-5.17192 238.944L-5.04631 240.94L-6.96469 241.061L-7.16141 239.149L-5.17192 238.944ZM-15.9229 177.397L-11.4534 177.116L-11.2022 181.108L-15.6717 181.389L-15.9229 177.397ZM-11.6309 239.43L-17.7868 179.598L-13.8078 179.189L-7.65194 239.02L-11.6309 239.43ZM-29.9162 238.497L-9.76704 237.229L-9.51583 241.221L-29.6649 242.489L-29.9162 238.497ZM-26.41 292.892L-31.7801 240.698L-27.8011 240.288L-22.431 292.482L-26.41 292.892ZM-4.14578 293.415L-24.2949 294.683L-24.5461 290.691L-4.39699 289.423L-4.14578 293.415ZM-0.0652456 351.842L-6.26088 291.624L-2.28189 291.214L3.91375 351.432L-0.0652456 351.842ZM6.51938 353.352L2.04986 353.633L1.79865 349.641L6.26817 349.36L6.51938 353.352ZM2.18763 290.933L8.38327 351.151L4.40428 351.561L-1.79137 291.342L2.18763 290.933ZM20.344 291.874L0.323739 293.134L0.0725235 289.142L20.0928 287.882L20.344 291.874ZM16.8379 237.479L22.2079 289.673L18.2289 290.083L12.8589 237.889L16.8379 237.479ZM-5.29752 236.948L14.7228 235.688L14.974 239.68L-5.04631 240.94L-5.29752 236.948ZM-9.33831 178.907L-3.18242 238.739L-7.16141 239.149L-13.3173 179.317L-9.33831 178.907Z" fill="black" mask="url(#path-9-outside-2_2033_3)"/>
<mask id="path-11-outside-3_2033_3" maskUnits="userSpaceOnUse" x="1.24299" y="244.412" width="151.988" height="259.227" fill="black">
<rect fill="white" x="1.24299" y="244.412" width="151.988" height="259.227"/>
<path fill-rule="evenodd" clip-rule="evenodd" d="M66.6204 249.439L62.1511 249.721L71.084 336.544L51.019 337.807L58.784 413.278L78.8491 412.016L87.7767 498.787L92.246 498.506L83.3183 411.734L103.423 410.469L95.6581 334.997L75.5533 336.263L66.6204 249.439Z"/>
</mask>
<path fill-rule="evenodd" clip-rule="evenodd" d="M66.6204 249.439L62.1511 249.721L71.084 336.544L51.019 337.807L58.784 413.278L78.8491 412.016L87.7767 498.787L92.246 498.506L83.3183 411.734L103.423 410.469L95.6581 334.997L75.5533 336.263L66.6204 249.439Z" fill="#AEFF00"/>
<path d="M62.1511 249.721L60.1616 249.925L59.9486 247.855L62.0255 247.725L62.1511 249.721ZM66.6204 249.439L66.4948 247.443L68.4131 247.323L68.6099 249.235L66.6204 249.439ZM71.084 336.544L73.0735 336.339L73.2865 338.409L71.2096 338.54L71.084 336.544ZM51.019 337.807L49.0295 338.011L48.8165 335.941L50.8934 335.811L51.019 337.807ZM58.784 413.278L58.9096 415.274L56.9912 415.395L56.7945 413.483L58.784 413.278ZM78.8491 412.016L78.7234 410.02L80.6418 409.899L80.8385 411.811L78.8491 412.016ZM87.7767 498.787L87.9023 500.783L85.9839 500.904L85.7872 498.992L87.7767 498.787ZM92.246 498.506L94.2355 498.301L94.4484 500.371L92.3716 500.502L92.246 498.506ZM83.3183 411.734L81.3288 411.939L81.1159 409.869L83.1927 409.738L83.3183 411.734ZM103.423 410.469L105.413 410.264L105.626 412.335L103.549 412.465L103.423 410.469ZM95.6581 334.997L95.5325 333.001L97.4509 332.881L97.6476 334.793L95.6581 334.997ZM75.5533 336.263L75.6789 338.259L73.7606 338.379L73.5638 336.467L75.5533 336.263ZM62.0255 247.725L66.4948 247.443L66.746 251.435L62.2767 251.717L62.0255 247.725ZM69.0945 336.749L60.1616 249.925L64.1406 249.516L73.0735 336.339L69.0945 336.749ZM50.8934 335.811L70.9584 334.548L71.2096 338.54L51.1446 339.803L50.8934 335.811ZM56.7945 413.483L49.0295 338.011L53.0085 337.602L60.7735 413.074L56.7945 413.483ZM78.9747 414.012L58.9096 415.274L58.6584 411.282L78.7234 410.02L78.9747 414.012ZM85.7872 498.992L76.8596 412.22L80.8385 411.811L89.7662 498.582L85.7872 498.992ZM92.3716 500.502L87.9023 500.783L87.6511 496.791L92.1204 496.51L92.3716 500.502ZM85.3078 411.53L94.2355 498.301L90.2565 498.711L81.3288 411.939L85.3078 411.53ZM103.549 412.465L83.4439 413.73L83.1927 409.738L103.298 408.473L103.549 412.465ZM97.6476 334.793L105.413 410.264L101.434 410.674L93.6686 335.202L97.6476 334.793ZM75.4277 334.267L95.5325 333.001L95.7837 336.994L75.6789 338.259L75.4277 334.267ZM68.6099 249.235L77.5428 336.058L73.5638 336.467L64.6309 249.644L68.6099 249.235Z" fill="black" mask="url(#path-11-outside-3_2033_3)"/>
<mask id="path-13-outside-4_2033_3" maskUnits="userSpaceOnUse" x="68.4404" y="200.994" width="150.025" height="256.066" fill="black">
<rect fill="white" x="68.4404" y="200.994" width="150.025" height="256.066"/>
<path fill-rule="evenodd" clip-rule="evenodd" d="M132.878 206.022L128.408 206.303L137.219 291.94L117.162 293.202L124.819 367.617L144.875 366.355L153.674 451.875L158.144 451.593L149.345 366.074L169.458 364.808L161.801 290.393L141.689 291.659L132.878 206.022Z"/>
</mask>
<path fill-rule="evenodd" clip-rule="evenodd" d="M132.878 206.022L128.408 206.303L137.219 291.94L117.162 293.202L124.819 367.617L144.875 366.355L153.674 451.875L158.144 451.593L149.345 366.074L169.458 364.808L161.801 290.393L141.689 291.659L132.878 206.022Z" fill="#AEFF00"/>
<path d="M128.408 206.303L126.419 206.508L126.206 204.438L128.283 204.307L128.408 206.303ZM132.878 206.022L132.752 204.026L134.67 203.905L134.867 205.817L132.878 206.022ZM137.219 291.94L139.209 291.736L139.422 293.806L137.345 293.936L137.219 291.94ZM117.162 293.202L115.173 293.407L114.96 291.337L117.037 291.206L117.162 293.202ZM124.819 367.617L124.944 369.613L123.026 369.734L122.829 367.822L124.819 367.617ZM144.875 366.355L144.75 364.359L146.668 364.238L146.865 366.15L144.875 366.355ZM153.674 451.875L153.8 453.871L151.881 453.991L151.685 452.079L153.674 451.875ZM158.144 451.593L160.133 451.389L160.346 453.459L158.269 453.589L158.144 451.593ZM149.345 366.074L147.355 366.278L147.142 364.208L149.219 364.077L149.345 366.074ZM169.458 364.808L171.447 364.603L171.66 366.673L169.583 366.804L169.458 364.808ZM161.801 290.393L161.676 288.397L163.594 288.277L163.791 290.189L161.801 290.393ZM141.689 291.659L141.814 293.655L139.896 293.776L139.699 291.864L141.689 291.659ZM128.283 204.307L132.752 204.026L133.003 208.018L128.534 208.299L128.283 204.307ZM135.23 292.145L126.419 206.508L130.398 206.098L139.209 291.736L135.23 292.145ZM117.037 291.206L137.094 289.944L137.345 293.936L117.288 295.199L117.037 291.206ZM122.829 367.822L115.173 293.407L119.152 292.998L126.808 367.412L122.829 367.822ZM145.001 368.351L124.944 369.613L124.693 365.621L144.75 364.359L145.001 368.351ZM151.685 452.079L142.886 366.559L146.865 366.15L155.664 451.67L151.685 452.079ZM158.269 453.589L153.8 453.871L153.549 449.879L158.018 449.597L158.269 453.589ZM151.334 365.869L160.133 451.389L156.154 451.798L147.355 366.278L151.334 365.869ZM169.583 366.804L149.471 368.07L149.219 364.077L169.332 362.812L169.583 366.804ZM163.791 290.189L171.447 364.603L167.468 365.013L159.812 290.598L163.791 290.189ZM141.563 289.663L161.676 288.397L161.927 292.389L141.814 293.655L141.563 289.663ZM134.867 205.817L143.678 291.454L139.699 291.864L130.888 206.226L134.867 205.817Z" fill="black" mask="url(#path-13-outside-4_2033_3)"/>
<mask id="path-15-outside-5_2033_3" maskUnits="userSpaceOnUse" x="117.383" y="190.133" width="199.689" height="343.474" fill="black">
<rect fill="white" x="117.383" y="190.133" width="199.689" height="343.474"/>
<path fill-rule="evenodd" clip-rule="evenodd" d="M202.501 195.16L198.032 195.441L209.971 311.483L189.903 312.746L200.28 413.61L220.349 412.347L232.279 528.3L236.748 528.018L224.818 412.066L244.919 410.801L234.542 309.937L214.441 311.202L202.501 195.16Z"/>
</mask>
<path fill-rule="evenodd" clip-rule="evenodd" d="M202.501 195.16L198.032 195.441L209.971 311.483L189.903 312.746L200.28 413.61L220.349 412.347L232.279 528.3L236.748 528.018L224.818 412.066L244.919 410.801L234.542 309.937L214.441 311.202L202.501 195.16Z" fill="#AEFF00"/>
<path d="M198.032 195.441L196.042 195.646L195.83 193.576L197.906 193.445L198.032 195.441ZM202.501 195.16L202.376 193.164L204.294 193.043L204.491 194.955L202.501 195.16ZM209.971 311.483L211.961 311.279L212.174 313.349L210.097 313.479L209.971 311.483ZM189.903 312.746L187.913 312.951L187.7 310.881L189.777 310.75L189.903 312.746ZM200.28 413.61L200.406 415.606L198.488 415.727L198.291 413.815L200.28 413.61ZM220.349 412.347L220.223 410.351L222.141 410.23L222.338 412.142L220.349 412.347ZM232.279 528.3L232.404 530.296L230.486 530.416L230.289 528.504L232.279 528.3ZM236.748 528.018L238.738 527.814L238.951 529.884L236.874 530.014L236.748 528.018ZM224.818 412.066L222.829 412.271L222.616 410.2L224.693 410.07L224.818 412.066ZM244.919 410.801L246.909 410.596L247.122 412.666L245.045 412.797L244.919 410.801ZM234.542 309.937L234.416 307.941L236.334 307.82L236.531 309.732L234.542 309.937ZM214.441 311.202L214.566 313.198L212.648 313.319L212.451 311.407L214.441 311.202ZM197.906 193.445L202.376 193.164L202.627 197.156L198.158 197.437L197.906 193.445ZM207.982 311.688L196.042 195.646L200.021 195.236L211.961 311.279L207.982 311.688ZM189.777 310.75L209.846 309.487L210.097 313.479L190.028 314.742L189.777 310.75ZM198.291 413.815L187.913 312.951L191.892 312.541L202.27 413.405L198.291 413.815ZM220.474 414.343L200.406 415.606L200.155 411.614L220.223 410.351L220.474 414.343ZM230.289 528.504L218.359 412.552L222.338 412.142L234.268 528.095L230.289 528.504ZM236.874 530.014L232.404 530.296L232.153 526.304L236.623 526.022L236.874 530.014ZM226.808 411.861L238.738 527.814L234.759 528.223L222.829 412.271L226.808 411.861ZM245.045 412.797L224.944 414.062L224.693 410.07L244.794 408.805L245.045 412.797ZM236.531 309.732L246.909 410.596L242.93 411.006L232.552 310.142L236.531 309.732ZM214.315 309.206L234.416 307.941L234.667 311.933L214.566 313.198L214.315 309.206ZM204.491 194.955L216.43 310.997L212.451 311.407L200.512 195.364L204.491 194.955Z" fill="black" mask="url(#path-15-outside-5_2033_3)"/>
<mask id="path-17-outside-6_2033_3" maskUnits="userSpaceOnUse" x="30.7793" y="440.157" width="199.689" height="343.474" fill="black">
<rect fill="white" x="30.7793" y="440.157" width="199.689" height="343.474"/>
<path fill-rule="evenodd" clip-rule="evenodd" d="M115.898 445.184L111.429 445.465L123.368 561.508L103.299 562.77L113.677 663.634L133.745 662.371L145.675 778.324L150.145 778.043L138.215 662.09L158.316 660.825L147.938 559.961L127.837 561.226L115.898 445.184Z"/>
</mask>
<path fill-rule="evenodd" clip-rule="evenodd" d="M115.898 445.184L111.429 445.465L123.368 561.508L103.299 562.77L113.677 663.634L133.745 662.371L145.675 778.324L150.145 778.043L138.215 662.09L158.316 660.825L147.938 559.961L127.837 561.226L115.898 445.184Z" fill="#AEFF00"/>
<path d="M111.429 445.465L109.439 445.67L109.226 443.6L111.303 443.469L111.429 445.465ZM115.898 445.184L115.773 443.188L117.691 443.067L117.888 444.979L115.898 445.184ZM123.368 561.508L125.357 561.303L125.57 563.373L123.494 563.504L123.368 561.508ZM103.299 562.77L101.31 562.975L101.097 560.905L103.174 560.774L103.299 562.77ZM113.677 663.634L113.803 665.63L111.884 665.751L111.688 663.839L113.677 663.634ZM133.745 662.371L133.62 660.375L135.538 660.255L135.735 662.167L133.745 662.371ZM145.675 778.324L145.801 780.32L143.883 780.441L143.686 778.529L145.675 778.324ZM150.145 778.043L152.134 777.838L152.347 779.908L150.271 780.039L150.145 778.043ZM138.215 662.09L136.225 662.295L136.012 660.225L138.089 660.094L138.215 662.09ZM158.316 660.825L160.305 660.621L160.518 662.691L158.442 662.821L158.316 660.825ZM147.938 559.961L147.813 557.965L149.731 557.845L149.928 559.757L147.938 559.961ZM127.837 561.226L127.963 563.222L126.045 563.343L125.848 561.431L127.837 561.226ZM111.303 443.469L115.773 443.188L116.024 447.18L111.554 447.461L111.303 443.469ZM121.378 561.712L109.439 445.67L113.418 445.261L125.357 561.303L121.378 561.712ZM103.174 560.774L123.242 559.511L123.494 563.504L103.425 564.766L103.174 560.774ZM111.688 663.839L101.31 562.975L105.289 562.566L115.667 663.43L111.688 663.839ZM133.871 664.367L113.803 665.63L113.551 661.638L133.62 660.375L133.871 664.367ZM143.686 778.529L131.756 662.576L135.735 662.167L147.665 778.119L143.686 778.529ZM150.271 780.039L145.801 780.32L145.55 776.328L150.019 776.047L150.271 780.039ZM140.204 661.885L152.134 777.838L148.155 778.247L136.225 662.295L140.204 661.885ZM158.442 662.821L138.341 664.086L138.089 660.094L158.19 658.829L158.442 662.821ZM149.928 559.757L160.305 660.621L156.326 661.03L145.949 560.166L149.928 559.757ZM127.712 559.23L147.813 557.965L148.064 561.957L127.963 563.222L127.712 559.23ZM117.888 444.979L129.827 561.022L125.848 561.431L113.909 445.389L117.888 444.979Z" fill="black" mask="url(#path-17-outside-6_2033_3)"/>
<mask id="path-19-outside-7_2033_3" maskUnits="userSpaceOnUse" x="1667.78" y="475.157" width="199.689" height="343.474" fill="black">
<rect fill="white" x="1667.78" y="475.157" width="199.689" height="343.474"/>
<path fill-rule="evenodd" clip-rule="evenodd" d="M1752.9 480.184L1748.43 480.465L1760.37 596.508L1740.3 597.77L1750.68 698.634L1770.75 697.371L1782.68 813.324L1787.14 813.043L1775.21 697.09L1795.32 695.825L1784.94 594.961L1764.84 596.226L1752.9 480.184Z"/>
</mask>
<path fill-rule="evenodd" clip-rule="evenodd" d="M1752.9 480.184L1748.43 480.465L1760.37 596.508L1740.3 597.77L1750.68 698.634L1770.75 697.371L1782.68 813.324L1787.14 813.043L1775.21 697.09L1795.32 695.825L1784.94 594.961L1764.84 596.226L1752.9 480.184Z" fill="#AEFF00"/>
<path d="M1748.43 480.465L1746.44 480.67L1746.23 478.6L1748.3 478.469L1748.43 480.465ZM1752.9 480.184L1752.77 478.188L1754.69 478.067L1754.89 479.979L1752.9 480.184ZM1760.37 596.508L1762.36 596.303L1762.57 598.373L1760.49 598.504L1760.37 596.508ZM1740.3 597.77L1738.31 597.975L1738.1 595.905L1740.17 595.774L1740.3 597.77ZM1750.68 698.634L1750.8 700.63L1748.88 700.751L1748.69 698.839L1750.68 698.634ZM1770.75 697.371L1770.62 695.375L1772.54 695.255L1772.73 697.167L1770.75 697.371ZM1782.68 813.324L1782.8 815.32L1780.88 815.441L1780.69 813.529L1782.68 813.324ZM1787.14 813.043L1789.13 812.838L1789.35 814.908L1787.27 815.039L1787.14 813.043ZM1775.21 697.09L1773.23 697.295L1773.01 695.225L1775.09 695.094L1775.21 697.09ZM1795.32 695.825L1797.31 695.621L1797.52 697.691L1795.44 697.821L1795.32 695.825ZM1784.94 594.961L1784.81 592.965L1786.73 592.845L1786.93 594.757L1784.94 594.961ZM1764.84 596.226L1764.96 598.222L1763.04 598.343L1762.85 596.431L1764.84 596.226ZM1748.3 478.469L1752.77 478.188L1753.02 482.18L1748.55 482.461L1748.3 478.469ZM1758.38 596.712L1746.44 480.67L1750.42 480.261L1762.36 596.303L1758.38 596.712ZM1740.17 595.774L1760.24 594.511L1760.49 598.504L1740.43 599.766L1740.17 595.774ZM1748.69 698.839L1738.31 597.975L1742.29 597.566L1752.67 698.43L1748.69 698.839ZM1770.87 699.367L1750.8 700.63L1750.55 696.638L1770.62 695.375L1770.87 699.367ZM1780.69 813.529L1768.76 697.576L1772.73 697.167L1784.66 813.119L1780.69 813.529ZM1787.27 815.039L1782.8 815.32L1782.55 811.328L1787.02 811.047L1787.27 815.039ZM1777.2 696.885L1789.13 812.838L1785.16 813.247L1773.23 697.295L1777.2 696.885ZM1795.44 697.821L1775.34 699.086L1775.09 695.094L1795.19 693.829L1795.44 697.821ZM1786.93 594.757L1797.31 695.621L1793.33 696.03L1782.95 595.166L1786.93 594.757ZM1764.71 594.23L1784.81 592.965L1785.06 596.957L1764.96 598.222L1764.71 594.23ZM1754.89 479.979L1766.83 596.022L1762.85 596.431L1750.91 480.389L1754.89 479.979Z" fill="black" mask="url(#path-19-outside-7_2033_3)"/>
<mask id="path-21-outside-8_2033_3" maskUnits="userSpaceOnUse" x="1806.77" y="410.358" width="149.085" height="255.725" fill="black">
<rect fill="white" x="1806.77" y="410.358" width="149.085" height="255.725"/>
<path fill-rule="evenodd" clip-rule="evenodd" d="M1870.16 415.078L1866.85 415.286L1875.69 501.243L1860.83 502.179L1868.52 576.892L1883.38 575.957L1892.22 661.847L1895.53 661.639L1886.69 575.749L1901.58 574.812L1893.89 500.098L1879 501.035L1870.16 415.078Z"/>
</mask>
<path fill-rule="evenodd" clip-rule="evenodd" d="M1870.16 415.078L1866.85 415.286L1875.69 501.243L1860.83 502.179L1868.52 576.892L1883.38 575.957L1892.22 661.847L1895.53 661.639L1886.69 575.749L1901.58 574.812L1893.89 500.098L1879 501.035L1870.16 415.078Z" fill="#AEFF00"/>
<path d="M1866.85 415.286L1864.86 415.491L1864.65 413.421L1866.72 413.29L1866.85 415.286ZM1870.16 415.078L1870.04 413.082L1871.95 412.961L1872.15 414.873L1870.16 415.078ZM1875.69 501.243L1877.68 501.038L1877.9 503.108L1875.82 503.239L1875.69 501.243ZM1860.83 502.179L1858.84 502.383L1858.63 500.313L1860.7 500.183L1860.83 502.179ZM1868.52 576.892L1868.64 578.888L1866.72 579.009L1866.53 577.097L1868.52 576.892ZM1883.38 575.957L1883.26 573.961L1885.17 573.84L1885.37 575.752L1883.38 575.957ZM1892.22 661.847L1892.34 663.843L1890.43 663.964L1890.23 662.052L1892.22 661.847ZM1895.53 661.639L1897.52 661.434L1897.73 663.504L1895.65 663.635L1895.53 661.639ZM1886.69 575.749L1884.7 575.953L1884.49 573.883L1886.57 573.753L1886.69 575.749ZM1901.58 574.812L1903.57 574.607L1903.78 576.677L1901.71 576.808L1901.58 574.812ZM1893.89 500.098L1893.77 498.102L1895.69 497.981L1895.88 499.893L1893.89 500.098ZM1879 501.035L1879.13 503.031L1877.21 503.152L1877.02 501.239L1879 501.035ZM1866.72 413.29L1870.04 413.082L1870.29 417.074L1866.98 417.282L1866.72 413.29ZM1873.7 501.448L1864.86 415.491L1868.84 415.081L1877.68 501.038L1873.7 501.448ZM1860.7 500.183L1875.57 499.247L1875.82 503.239L1860.95 504.175L1860.7 500.183ZM1866.53 577.097L1858.84 502.383L1862.82 501.974L1870.5 576.688L1866.53 577.097ZM1883.51 577.953L1868.64 578.888L1868.39 574.896L1883.26 573.961L1883.51 577.953ZM1890.23 662.052L1881.39 576.162L1885.37 575.752L1894.21 661.643L1890.23 662.052ZM1895.65 663.635L1892.34 663.843L1892.09 659.851L1895.4 659.643L1895.65 663.635ZM1888.68 575.544L1897.52 661.434L1893.54 661.844L1884.7 575.953L1888.68 575.544ZM1901.71 576.808L1886.82 577.745L1886.57 573.753L1901.46 572.816L1901.71 576.808ZM1895.88 499.893L1903.57 574.607L1899.59 575.016L1891.9 500.303L1895.88 499.893ZM1878.88 499.039L1893.77 498.102L1894.02 502.094L1879.13 503.031L1878.88 499.039ZM1872.15 414.873L1880.99 500.83L1877.02 501.239L1868.17 415.282L1872.15 414.873Z" fill="black" mask="url(#path-21-outside-8_2033_3)"/>
<mask id="path-23-outside-9_2033_3" maskUnits="userSpaceOnUse" x="224.961" y="374.624" width="156.937" height="268.37" fill="black">
<rect fill="white" x="224.961" y="374.624" width="156.937" height="268.37"/>
<path fill-rule="evenodd" clip-rule="evenodd" d="M292.219 379.651L287.749 379.932L297.019 470.03L276.973 471.292L285.028 549.582L305.074 548.321L314.333 638.307L318.802 638.026L309.543 548.04L329.667 546.773L321.612 468.483L301.488 469.749L292.219 379.651Z"/>
</mask>
<path fill-rule="evenodd" clip-rule="evenodd" d="M292.219 379.651L287.749 379.932L297.019 470.03L276.973 471.292L285.028 549.582L305.074 548.321L314.333 638.307L318.802 638.026L309.543 548.04L329.667 546.773L321.612 468.483L301.488 469.749L292.219 379.651Z" fill="#AEFF00"/>
<path d="M287.749 379.932L285.76 380.137L285.547 378.067L287.624 377.936L287.749 379.932ZM292.219 379.651L292.093 377.655L294.011 377.534L294.208 379.446L292.219 379.651ZM297.019 470.03L299.009 469.825L299.222 471.895L297.145 472.026L297.019 470.03ZM276.973 471.292L274.983 471.496L274.771 469.426L276.847 469.296L276.973 471.292ZM285.028 549.582L285.154 551.578L283.235 551.699L283.039 549.787L285.028 549.582ZM305.074 548.321L304.949 546.325L306.867 546.204L307.064 548.116L305.074 548.321ZM314.333 638.307L314.458 640.303L312.54 640.424L312.343 638.512L314.333 638.307ZM318.802 638.026L320.791 637.821L321.004 639.892L318.927 640.022L318.802 638.026ZM309.543 548.04L307.554 548.244L307.341 546.174L309.418 546.044L309.543 548.04ZM329.667 546.773L331.657 546.569L331.87 548.639L329.793 548.769L329.667 546.773ZM321.612 468.483L321.487 466.486L323.405 466.366L323.602 468.278L321.612 468.483ZM301.488 469.749L301.614 471.745L299.696 471.866L299.499 469.954L301.488 469.749ZM287.624 377.936L292.093 377.655L292.344 381.647L287.875 381.928L287.624 377.936ZM295.03 470.235L285.76 380.137L289.739 379.727L299.009 469.825L295.03 470.235ZM276.847 469.296L296.894 468.034L297.145 472.026L277.099 473.288L276.847 469.296ZM283.039 549.787L274.983 471.496L278.962 471.087L287.018 549.378L283.039 549.787ZM305.2 550.317L285.154 551.578L284.902 547.586L304.949 546.325L305.2 550.317ZM312.343 638.512L303.085 548.526L307.064 548.116L316.322 638.103L312.343 638.512ZM318.927 640.022L314.458 640.303L314.207 636.311L318.676 636.03L318.927 640.022ZM311.533 547.835L320.791 637.821L316.812 638.231L307.554 548.244L311.533 547.835ZM329.793 548.769L309.669 550.036L309.418 546.044L329.542 544.777L329.793 548.769ZM323.602 468.278L331.657 546.569L327.678 546.978L319.623 468.687L323.602 468.278ZM301.363 467.753L321.487 466.486L321.738 470.479L301.614 471.745L301.363 467.753ZM294.208 379.446L303.478 469.544L299.499 469.954L290.229 379.855L294.208 379.446Z" fill="black" mask="url(#path-23-outside-9_2033_3)"/>
<mask id="path-25-outside-10_2033_3" maskUnits="userSpaceOnUse" x="312.122" y="454.54" width="136.118" height="228.979" fill="black">
<rect fill="white" x="312.122" y="454.54" width="136.118" height="228.979"/>
<path fill-rule="evenodd" clip-rule="evenodd" d="M371.198 459.807L366.728 460.089L374.571 536.313L354.496 537.577L361.313 603.837L381.388 602.574L389.225 678.741L393.694 678.46L385.858 602.293L405.952 601.028L399.134 534.768L379.04 536.032L371.198 459.807Z"/>
</mask>
<path fill-rule="evenodd" clip-rule="evenodd" d="M371.198 459.807L366.728 460.089L374.571 536.313L354.496 537.577L361.313 603.837L381.388 602.574L389.225 678.741L393.694 678.46L385.858 602.293L405.952 601.028L399.134 534.768L379.04 536.032L371.198 459.807Z" fill="#AEFF00"/>
<path d="M366.728 460.089L364.739 460.293L364.526 458.223L366.603 458.093L366.728 460.089ZM371.198 459.807L371.072 457.811L372.991 457.691L373.187 459.603L371.198 459.807ZM374.571 536.313L376.56 536.109L376.773 538.179L374.696 538.309L374.571 536.313ZM354.496 537.577L352.506 537.781L352.293 535.711L354.37 535.581L354.496 537.577ZM361.313 603.837L361.438 605.833L359.52 605.954L359.323 604.042L361.313 603.837ZM381.388 602.574L381.262 600.578L383.181 600.457L383.378 602.369L381.388 602.574ZM389.225 678.741L389.35 680.737L387.432 680.858L387.235 678.946L389.225 678.741ZM393.694 678.46L395.684 678.255L395.897 680.325L393.82 680.456L393.694 678.46ZM385.858 602.293L383.868 602.497L383.655 600.427L385.732 600.297L385.858 602.293ZM405.952 601.028L407.941 600.823L408.154 602.893L406.077 603.024L405.952 601.028ZM399.134 534.768L399.009 532.772L400.927 532.651L401.124 534.563L399.134 534.768ZM379.04 536.032L379.166 538.028L377.248 538.149L377.051 536.237L379.04 536.032ZM366.603 458.093L371.072 457.811L371.323 461.803L366.854 462.085L366.603 458.093ZM372.581 536.518L364.739 460.293L368.718 459.884L376.56 536.109L372.581 536.518ZM354.37 535.581L374.445 534.317L374.696 538.309L354.621 539.573L354.37 535.581ZM359.323 604.042L352.506 537.781L356.485 537.372L363.302 603.632L359.323 604.042ZM381.514 604.57L361.438 605.833L361.187 601.841L381.262 600.578L381.514 604.57ZM387.235 678.946L379.399 602.779L383.378 602.369L391.214 678.537L387.235 678.946ZM393.82 680.456L389.35 680.737L389.099 676.745L393.569 676.464L393.82 680.456ZM387.847 602.088L395.684 678.255L391.705 678.665L383.868 602.497L387.847 602.088ZM406.077 603.024L385.983 604.289L385.732 600.297L405.826 599.032L406.077 603.024ZM401.124 534.563L407.941 600.823L403.962 601.233L397.145 534.972L401.124 534.563ZM378.915 534.036L399.009 532.772L399.26 536.764L379.166 538.028L378.915 534.036ZM373.187 459.603L381.03 535.827L377.051 536.237L369.208 460.012L373.187 459.603Z" fill="black" mask="url(#path-25-outside-10_2033_3)"/>
<mask id="path-27-outside-11_2033_3" maskUnits="userSpaceOnUse" x="396.441" y="507.844" width="115.31" height="180.612" fill="black">
<rect fill="white" x="396.441" y="507.844" width="115.31" height="180.612"/>
<path fill-rule="evenodd" clip-rule="evenodd" d="M447.567 514.631L443.097 514.912L449.068 572.945L429.007 574.208L434.196 624.64L454.257 623.377L460.221 681.341L464.69 681.06L458.726 623.096L478.835 621.831L473.646 571.399L453.538 572.664L447.567 514.631Z"/>
</mask>
<path fill-rule="evenodd" clip-rule="evenodd" d="M447.567 514.631L443.097 514.912L449.068 572.945L429.007 574.208L434.196 624.64L454.257 623.377L460.221 681.341L464.69 681.06L458.726 623.096L478.835 621.831L473.646 571.399L453.538 572.664L447.567 514.631Z" fill="#AEFF00"/>
<path d="M443.097 514.912L441.108 515.117L440.895 513.047L442.972 512.916L443.097 514.912ZM447.567 514.631L447.441 512.635L449.36 512.514L449.556 514.426L447.567 514.631ZM449.068 572.945L451.058 572.741L451.271 574.811L449.194 574.941L449.068 572.945ZM429.007 574.208L427.017 574.413L426.804 572.342L428.881 572.212L429.007 574.208ZM434.196 624.64L434.321 626.636L432.403 626.757L432.206 624.844L434.196 624.64ZM454.257 623.377L454.131 621.381L456.05 621.261L456.246 623.173L454.257 623.377ZM460.221 681.341L460.346 683.337L458.428 683.458L458.231 681.546L460.221 681.341ZM464.69 681.06L466.68 680.855L466.893 682.925L464.816 683.056L464.69 681.06ZM458.726 623.096L456.737 623.301L456.524 621.231L458.601 621.1L458.726 623.096ZM478.835 621.831L480.824 621.626L481.037 623.696L478.96 623.827L478.835 621.831ZM473.646 571.399L473.52 569.403L475.439 569.282L475.635 571.194L473.646 571.399ZM453.538 572.664L453.663 574.66L451.745 574.781L451.548 572.869L453.538 572.664ZM442.972 512.916L447.441 512.635L447.692 516.627L443.223 516.908L442.972 512.916ZM447.079 573.15L441.108 515.117L445.087 514.707L451.058 572.741L447.079 573.15ZM428.881 572.212L448.943 570.949L449.194 574.941L429.132 576.204L428.881 572.212ZM432.206 624.844L427.017 574.413L430.996 574.003L436.185 624.435L432.206 624.844ZM454.383 625.373L434.321 626.636L434.07 622.644L454.131 621.381L454.383 625.373ZM458.231 681.546L452.267 623.582L456.246 623.173L462.21 681.137L458.231 681.546ZM464.816 683.056L460.346 683.337L460.095 679.345L464.565 679.064L464.816 683.056ZM460.716 622.891L466.68 680.855L462.701 681.265L456.737 623.301L460.716 622.891ZM478.96 623.827L458.852 625.092L458.601 621.1L478.709 619.835L478.96 623.827ZM475.635 571.194L480.824 621.626L476.845 622.035L471.656 571.603L475.635 571.194ZM453.412 570.668L473.52 569.403L473.771 573.395L453.663 574.66L453.412 570.668ZM449.556 514.426L455.527 572.459L451.548 572.869L445.577 514.835L449.556 514.426Z" fill="black" mask="url(#path-27-outside-11_2033_3)"/>
<mask id="path-29-outside-12_2033_3" maskUnits="userSpaceOnUse" x="458.916" y="510.256" width="137.823" height="233.68" fill="black">
<rect fill="white" x="458.916" y="510.256" width="137.823" height="233.68"/>
<path fill-rule="evenodd" clip-rule="evenodd" d="M518.383 515.381L513.913 515.662L521.922 593.507L501.826 594.771L508.792 662.48L528.889 661.216L536.904 739.121L541.374 738.84L533.358 660.934L553.431 659.671L546.465 591.962L526.392 593.225L518.383 515.381Z"/>
</mask>
<path fill-rule="evenodd" clip-rule="evenodd" d="M518.383 515.381L513.913 515.662L521.922 593.507L501.826 594.771L508.792 662.48L528.889 661.216L536.904 739.121L541.374 738.84L533.358 660.934L553.431 659.671L546.465 591.962L526.392 593.225L518.383 515.381Z" fill="#AEFF00"/>
<path d="M513.913 515.662L511.924 515.867L511.711 513.797L513.787 513.666L513.913 515.662ZM518.383 515.381L518.257 513.385L520.175 513.264L520.372 515.176L518.383 515.381ZM521.922 593.507L523.912 593.302L524.125 595.372L522.048 595.503L521.922 593.507ZM501.826 594.771L499.836 594.976L499.623 592.906L501.7 592.775L501.826 594.771ZM508.792 662.48L508.918 664.476L506.999 664.597L506.803 662.685L508.792 662.48ZM528.889 661.216L528.763 659.22L530.681 659.099L530.878 661.011L528.889 661.216ZM536.904 739.121L537.03 741.117L535.111 741.238L534.915 739.326L536.904 739.121ZM541.374 738.84L543.363 738.635L543.576 740.705L541.499 740.836L541.374 738.84ZM533.358 660.934L531.369 661.139L531.156 659.069L533.232 658.938L533.358 660.934ZM553.431 659.671L555.42 659.467L555.633 661.537L553.557 661.667L553.431 659.671ZM546.465 591.962L546.339 589.966L548.257 589.845L548.454 591.758L546.465 591.962ZM526.392 593.225L526.517 595.221L524.599 595.342L524.402 593.43L526.392 593.225ZM513.787 513.666L518.257 513.385L518.508 517.377L514.039 517.658L513.787 513.666ZM519.933 593.711L511.924 515.867L515.903 515.458L523.912 593.302L519.933 593.711ZM501.7 592.775L521.797 591.511L522.048 595.503L501.951 596.767L501.7 592.775ZM506.803 662.685L499.836 594.976L503.815 594.567L510.782 662.276L506.803 662.685ZM529.014 663.212L508.918 664.476L508.666 660.484L528.763 659.22L529.014 663.212ZM534.915 739.326L526.899 661.42L530.878 661.011L538.894 738.917L534.915 739.326ZM541.499 740.836L537.03 741.117L536.778 737.125L541.248 736.844L541.499 740.836ZM535.348 660.73L543.363 738.635L539.384 739.045L531.369 661.139L535.348 660.73ZM553.557 661.667L533.484 662.93L533.232 658.938L553.305 657.675L553.557 661.667ZM548.454 591.758L555.42 659.467L551.441 659.876L544.475 592.167L548.454 591.758ZM526.266 591.229L546.339 589.966L546.59 593.958L526.517 595.221L526.266 591.229ZM520.372 515.176L528.381 593.021L524.402 593.43L516.393 515.586L520.372 515.176Z" fill="black" mask="url(#path-29-outside-12_2033_3)"/>
<mask id="path-31-outside-13_2033_3" maskUnits="userSpaceOnUse" x="449.186" y="315.533" width="285.618" height="497.101" fill="black">
<rect fill="white" x="449.186" y="315.533" width="285.618" height="497.101"/>
<path fill-rule="evenodd" clip-rule="evenodd" d="M569.087 320.56L564.618 320.841L582.057 490.341L561.94 491.607L577.107 639.026L597.225 637.76L614.671 807.325L619.14 807.044L601.694 637.479L621.747 636.217L606.579 488.798L586.526 490.06L569.087 320.56Z"/>
</mask>
<path fill-rule="evenodd" clip-rule="evenodd" d="M569.087 320.56L564.618 320.841L582.057 490.341L561.94 491.607L577.107 639.026L597.225 637.76L614.671 807.325L619.14 807.044L601.694 637.479L621.747 636.217L606.579 488.798L586.526 490.06L569.087 320.56Z" fill="#AEFF00"/>
<path d="M564.618 320.841L562.628 321.046L562.415 318.976L564.492 318.845L564.618 320.841ZM569.087 320.56L568.962 318.564L570.88 318.443L571.077 320.355L569.087 320.56ZM582.057 490.341L584.047 490.136L584.26 492.206L582.183 492.337L582.057 490.341ZM561.94 491.607L559.951 491.812L559.738 489.742L561.814 489.611L561.94 491.607ZM577.107 639.026L577.233 641.022L575.315 641.143L575.118 639.231L577.107 639.026ZM597.225 637.76L597.099 635.764L599.017 635.644L599.214 637.556L597.225 637.76ZM614.671 807.325L614.796 809.321L612.878 809.442L612.681 807.53L614.671 807.325ZM619.14 807.044L621.129 806.839L621.342 808.909L619.265 809.04L619.14 807.044ZM601.694 637.479L599.704 637.684L599.491 635.614L601.568 635.483L601.694 637.479ZM621.747 636.217L623.736 636.013L623.949 638.083L621.872 638.213L621.747 636.217ZM606.579 488.798L606.454 486.802L608.372 486.681L608.569 488.593L606.579 488.798ZM586.526 490.06L586.652 492.056L584.734 492.177L584.537 490.265L586.526 490.06ZM564.492 318.845L568.962 318.564L569.213 322.556L564.743 322.837L564.492 318.845ZM580.068 490.546L562.628 321.046L566.607 320.637L584.047 490.136L580.068 490.546ZM561.814 489.611L581.932 488.345L582.183 492.337L562.066 493.603L561.814 489.611ZM575.118 639.231L559.951 491.812L563.93 491.402L579.097 638.822L575.118 639.231ZM597.35 639.757L577.233 641.022L576.982 637.03L597.099 635.764L597.35 639.757ZM612.681 807.53L595.235 637.965L599.214 637.556L616.66 807.121L612.681 807.53ZM619.265 809.04L614.796 809.321L614.545 805.329L619.014 805.048L619.265 809.04ZM603.683 637.275L621.129 806.839L617.15 807.249L599.704 637.684L603.683 637.275ZM621.872 638.213L601.82 639.475L601.568 635.483L621.621 634.221L621.872 638.213ZM608.569 488.593L623.736 636.013L619.757 636.422L604.59 489.003L608.569 488.593ZM586.401 488.064L606.454 486.802L606.705 490.794L586.652 492.056L586.401 488.064ZM571.077 320.355L588.516 489.855L584.537 490.265L567.098 320.765L571.077 320.355Z" fill="black" mask="url(#path-31-outside-13_2033_3)"/>
<mask id="path-33-outside-14_2033_3" maskUnits="userSpaceOnUse" x="582.373" y="411.044" width="156.937" height="268.37" fill="black">
<rect fill="white" x="582.373" y="411.044" width="156.937" height="268.37"/>
<path fill-rule="evenodd" clip-rule="evenodd" d="M649.631 416.071L645.161 416.353L654.427 506.406L634.36 507.669L642.416 585.969L662.483 584.706L671.745 674.728L676.214 674.447L666.952 584.425L687.055 583.16L678.999 504.859L658.896 506.125L649.631 416.071Z"/>
</mask>
<path fill-rule="evenodd" clip-rule="evenodd" d="M649.631 416.071L645.161 416.353L654.427 506.406L634.36 507.669L642.416 585.969L662.483 584.706L671.745 674.728L676.214 674.447L666.952 584.425L687.055 583.16L678.999 504.859L658.896 506.125L649.631 416.071Z" fill="#AEFF00"/>
<path d="M645.161 416.353L643.172 416.557L642.959 414.487L645.036 414.357L645.161 416.353ZM649.631 416.071L649.505 414.075L651.424 413.955L651.62 415.867L649.631 416.071ZM654.427 506.406L656.416 506.201L656.629 508.271L654.552 508.402L654.427 506.406ZM634.36 507.669L632.371 507.873L632.158 505.803L634.235 505.672L634.36 507.669ZM642.416 585.969L642.542 587.965L640.624 588.086L640.427 586.174L642.416 585.969ZM662.483 584.706L662.357 582.71L664.276 582.59L664.472 584.502L662.483 584.706ZM671.745 674.728L671.87 676.724L669.952 676.845L669.755 674.933L671.745 674.728ZM676.214 674.447L678.204 674.242L678.417 676.312L676.34 676.443L676.214 674.447ZM666.952 584.425L664.963 584.63L664.75 582.56L666.827 582.429L666.952 584.425ZM687.055 583.16L689.045 582.955L689.258 585.025L687.181 585.156L687.055 583.16ZM678.999 504.859L678.874 502.863L680.792 502.743L680.989 504.655L678.999 504.859ZM658.896 506.125L659.022 508.121L657.103 508.241L656.907 506.329L658.896 506.125ZM645.036 414.357L649.505 414.075L649.757 418.067L645.287 418.349L645.036 414.357ZM652.437 506.61L643.172 416.557L647.151 416.148L656.416 506.201L652.437 506.61ZM634.235 505.672L654.301 504.41L654.552 508.402L634.486 509.665L634.235 505.672ZM640.427 586.174L632.371 507.873L636.35 507.464L644.406 585.764L640.427 586.174ZM662.608 586.702L642.542 587.965L642.291 583.973L662.357 582.71L662.608 586.702ZM669.755 674.933L660.493 584.911L664.472 584.502L673.734 674.523L669.755 674.933ZM676.34 676.443L671.87 676.724L671.619 672.732L676.089 672.451L676.34 676.443ZM668.942 584.22L678.204 674.242L674.225 674.652L664.963 584.63L668.942 584.22ZM687.181 585.156L667.078 586.421L666.827 582.429L686.93 581.164L687.181 585.156ZM680.989 504.655L689.045 582.955L685.066 583.365L677.01 505.064L680.989 504.655ZM658.771 504.128L678.874 502.863L679.125 506.856L659.022 508.121L658.771 504.128ZM651.62 415.867L660.886 505.92L656.907 506.329L647.641 416.276L651.62 415.867Z" fill="black" mask="url(#path-33-outside-14_2033_3)"/>
<mask id="path-35-outside-15_2033_3" maskUnits="userSpaceOnUse" x="678.546" y="522.205" width="121.705" height="195.994" fill="black">
<rect fill="white" x="678.546" y="522.205" width="121.705" height="195.994"/>
<path fill-rule="evenodd" clip-rule="evenodd" d="M731.935 528.512L727.466 528.793L734.027 592.564L713.959 593.827L719.662 649.261L739.73 647.998L746.288 711.736L750.757 711.455L744.2 647.717L764.301 646.452L758.598 591.018L738.496 592.283L731.935 528.512Z"/>
</mask>
<path fill-rule="evenodd" clip-rule="evenodd" d="M731.935 528.512L727.466 528.793L734.027 592.564L713.959 593.827L719.662 649.261L739.73 647.998L746.288 711.736L750.757 711.455L744.2 647.717L764.301 646.452L758.598 591.018L738.496 592.283L731.935 528.512Z" fill="#AEFF00"/>
<path d="M727.466 528.793L725.476 528.998L725.263 526.928L727.34 526.797L727.466 528.793ZM731.935 528.512L731.81 526.516L733.728 526.395L733.925 528.307L731.935 528.512ZM734.027 592.564L736.016 592.359L736.229 594.429L734.152 594.56L734.027 592.564ZM713.959 593.827L711.969 594.032L711.756 591.962L713.833 591.831L713.959 593.827ZM719.662 649.261L719.788 651.257L717.87 651.378L717.673 649.466L719.662 649.261ZM739.73 647.998L739.605 646.002L741.523 645.881L741.72 647.793L739.73 647.998ZM746.288 711.736L746.414 713.732L744.495 713.853L744.298 711.941L746.288 711.736ZM750.757 711.455L752.747 711.25L752.96 713.32L750.883 713.451L750.757 711.455ZM744.2 647.717L742.21 647.922L741.997 645.852L744.074 645.721L744.2 647.717ZM764.301 646.452L766.291 646.247L766.504 648.317L764.427 648.448L764.301 646.452ZM758.598 591.018L758.472 589.022L760.391 588.901L760.587 590.813L758.598 591.018ZM738.496 592.283L738.622 594.279L736.704 594.4L736.507 592.488L738.496 592.283ZM727.34 526.797L731.81 526.516L732.061 530.508L727.591 530.789L727.34 526.797ZM732.037 592.769L725.476 528.998L729.455 528.588L736.016 592.359L732.037 592.769ZM713.833 591.831L733.901 590.568L734.152 594.56L714.085 595.823L713.833 591.831ZM717.673 649.466L711.969 594.032L715.948 593.622L721.652 649.056L717.673 649.466ZM739.856 649.994L719.788 651.257L719.537 647.265L739.605 646.002L739.856 649.994ZM744.298 711.941L737.741 648.203L741.72 647.793L748.277 711.531L744.298 711.941ZM750.883 713.451L746.414 713.732L746.162 709.74L750.632 709.459L750.883 713.451ZM746.189 647.512L752.747 711.25L748.768 711.659L742.21 647.922L746.189 647.512ZM764.427 648.448L744.325 649.713L744.074 645.721L764.176 644.456L764.427 648.448ZM760.587 590.813L766.291 646.247L762.312 646.657L756.608 591.223L760.587 590.813ZM738.371 590.287L758.472 589.022L758.723 593.014L738.622 594.279L738.371 590.287ZM733.925 528.307L740.486 592.078L736.507 592.488L729.946 528.717L733.925 528.307Z" fill="black" mask="url(#path-35-outside-15_2033_3)"/>
<mask id="path-37-outside-16_2033_3" maskUnits="userSpaceOnUse" x="747.166" y="554.54" width="135.096" height="226.159" fill="black">
<rect fill="white" x="747.166" y="554.54" width="135.096" height="226.159"/>
<path fill-rule="evenodd" clip-rule="evenodd" d="M805.913 559.926L801.444 560.207L809.137 634.983L789.057 636.247L795.747 701.274L815.828 700.01L823.521 774.787L827.991 774.506L820.297 699.729L840.386 698.465L833.696 633.438L813.607 634.702L805.913 559.926Z"/>
</mask>
<path fill-rule="evenodd" clip-rule="evenodd" d="M805.913 559.926L801.444 560.207L809.137 634.983L789.057 636.247L795.747 701.274L815.828 700.01L823.521 774.787L827.991 774.506L820.297 699.729L840.386 698.465L833.696 633.438L813.607 634.702L805.913 559.926Z" fill="#AEFF00"/>
<path d="M801.444 560.207L799.454 560.412L799.241 558.342L801.318 558.211L801.444 560.207ZM805.913 559.926L805.788 557.93L807.706 557.809L807.903 559.721L805.913 559.926ZM809.137 634.983L811.127 634.778L811.34 636.848L809.263 636.979L809.137 634.983ZM789.057 636.247L787.067 636.451L786.854 634.381L788.931 634.251L789.057 636.247ZM795.747 701.274L795.873 703.27L793.955 703.391L793.758 701.478L795.747 701.274ZM815.828 700.01L815.702 698.014L817.62 697.893L817.817 699.805L815.828 700.01ZM823.521 774.787L823.647 776.783L821.729 776.904L821.532 774.992L823.521 774.787ZM827.991 774.506L829.98 774.302L830.193 776.372L828.116 776.502L827.991 774.506ZM820.297 699.729L818.308 699.934L818.095 697.864L820.171 697.733L820.297 699.729ZM840.386 698.465L842.376 698.26L842.589 700.33L840.512 700.461L840.386 698.465ZM833.696 633.438L833.57 631.442L835.489 631.321L835.686 633.233L833.696 633.438ZM813.607 634.702L813.732 636.698L811.814 636.819L811.617 634.907L813.607 634.702ZM801.318 558.211L805.788 557.93L806.039 561.922L801.569 562.203L801.318 558.211ZM807.148 635.188L799.454 560.412L803.433 560.002L811.127 634.778L807.148 635.188ZM788.931 634.251L809.012 632.987L809.263 636.979L789.183 638.243L788.931 634.251ZM793.758 701.478L787.067 636.451L791.046 636.042L797.737 701.069L793.758 701.478ZM815.953 702.006L795.873 703.27L795.622 699.278L815.702 698.014L815.953 702.006ZM821.532 774.992L813.838 700.215L817.817 699.805L825.511 774.583L821.532 774.992ZM828.116 776.502L823.647 776.783L823.396 772.791L827.865 772.51L828.116 776.502ZM822.287 699.524L829.98 774.302L826.001 774.711L818.308 699.934L822.287 699.524ZM840.512 700.461L820.423 701.725L820.171 697.733L840.261 696.469L840.512 700.461ZM835.686 633.233L842.376 698.26L838.397 698.669L831.707 633.642L835.686 633.233ZM813.481 632.706L833.57 631.442L833.822 635.434L813.732 636.698L813.481 632.706ZM807.903 559.721L815.596 634.497L811.617 634.907L803.924 560.13L807.903 559.721Z" fill="black" mask="url(#path-37-outside-16_2033_3)"/>
<mask id="path-39-outside-17_2033_3" maskUnits="userSpaceOnUse" x="743.669" y="464.462" width="295.174" height="514.446" fill="black">
<rect fill="white" x="743.669" y="464.462" width="295.174" height="514.446"/>
<path fill-rule="evenodd" clip-rule="evenodd" d="M867.331 469.489L862.861 469.771L880.941 645.499L860.863 646.763L876.585 799.566L896.663 798.302L914.74 974.002L919.209 973.721L901.132 798.021L921.224 796.757L905.503 643.954L885.411 645.218L867.331 469.489Z"/>
</mask>
<path fill-rule="evenodd" clip-rule="evenodd" d="M867.331 469.489L862.861 469.771L880.941 645.499L860.863 646.763L876.585 799.566L896.663 798.302L914.74 974.002L919.209 973.721L901.132 798.021L921.224 796.757L905.503 643.954L885.411 645.218L867.331 469.489Z" fill="#AEFF00"/>
<path d="M862.861 469.771L860.872 469.975L860.659 467.905L862.736 467.775L862.861 469.771ZM867.331 469.489L867.205 467.493L869.123 467.373L869.32 469.285L867.331 469.489ZM880.941 645.499L882.931 645.294L883.144 647.364L881.067 647.495L880.941 645.499ZM860.863 646.763L858.874 646.967L858.661 644.897L860.738 644.767L860.863 646.763ZM876.585 799.566L876.71 801.562L874.792 801.683L874.595 799.77L876.585 799.566ZM896.663 798.302L896.537 796.306L898.456 796.186L898.652 798.098L896.663 798.302ZM914.74 974.002L914.866 975.998L912.947 976.119L912.75 974.207L914.74 974.002ZM919.209 973.721L921.199 973.516L921.412 975.586L919.335 975.717L919.209 973.721ZM901.132 798.021L899.143 798.226L898.93 796.156L901.006 796.025L901.132 798.021ZM921.224 796.757L923.213 796.552L923.426 798.622L921.35 798.753L921.224 796.757ZM905.503 643.954L905.377 641.957L907.295 641.837L907.492 643.749L905.503 643.954ZM885.411 645.218L885.536 647.214L883.618 647.335L883.421 645.423L885.411 645.218ZM862.736 467.775L867.205 467.493L867.456 471.486L862.987 471.767L862.736 467.775ZM878.952 645.704L860.872 469.975L864.851 469.566L882.931 645.294L878.952 645.704ZM860.738 644.767L880.816 643.503L881.067 647.495L860.989 648.759L860.738 644.767ZM874.595 799.77L858.874 646.967L862.853 646.558L878.574 799.361L874.595 799.77ZM896.788 800.298L876.71 801.562L876.459 797.57L896.537 796.306L896.788 800.298ZM912.75 974.207L894.673 798.507L898.652 798.098L916.729 973.797L912.75 974.207ZM919.335 975.717L914.866 975.998L914.614 972.006L919.084 971.725L919.335 975.717ZM903.122 797.816L921.199 973.516L917.22 973.925L899.143 798.226L903.122 797.816ZM921.35 798.753L901.258 800.017L901.006 796.025L921.098 794.761L921.35 798.753ZM907.492 643.749L923.213 796.552L919.234 796.961L903.513 644.158L907.492 643.749ZM885.285 643.222L905.377 641.957L905.628 645.95L885.536 647.214L885.285 643.222ZM869.32 469.285L887.4 645.013L883.421 645.423L865.341 469.694L869.32 469.285Z" fill="black" mask="url(#path-39-outside-17_2033_3)"/>
<mask id="path-41-outside-18_2033_3" maskUnits="userSpaceOnUse" x="882.869" y="545.052" width="147.721" height="251.965" fill="black">
<rect fill="white" x="882.869" y="545.052" width="147.721" height="251.965"/>
<path fill-rule="evenodd" clip-rule="evenodd" d="M946.366 550.08L941.897 550.361L950.575 634.704L930.472 635.97L938.019 709.327L958.122 708.062L966.804 792.438L971.273 792.157L962.592 707.781L982.658 706.518L975.111 633.16L955.044 634.423L946.366 550.08Z"/>
</mask>
<path fill-rule="evenodd" clip-rule="evenodd" d="M946.366 550.08L941.897 550.361L950.575 634.704L930.472 635.97L938.019 709.327L958.122 708.062L966.804 792.438L971.273 792.157L962.592 707.781L982.658 706.518L975.111 633.16L955.044 634.423L946.366 550.08Z" fill="#AEFF00"/>
<path d="M941.897 550.361L939.908 550.565L939.695 548.495L941.772 548.365L941.897 550.361ZM946.366 550.08L946.241 548.083L948.159 547.963L948.356 549.875L946.366 550.08ZM950.575 634.704L952.565 634.5L952.777 636.57L950.701 636.701L950.575 634.704ZM930.472 635.97L928.482 636.174L928.269 634.104L930.346 633.973L930.472 635.97ZM938.019 709.327L938.145 711.323L936.226 711.444L936.03 709.532L938.019 709.327ZM958.122 708.062L957.997 706.066L959.915 705.945L960.112 707.857L958.122 708.062ZM966.804 792.438L966.929 794.434L965.011 794.555L964.814 792.643L966.804 792.438ZM971.273 792.157L973.262 791.952L973.475 794.022L971.399 794.153L971.273 792.157ZM962.592 707.781L960.602 707.985L960.389 705.915L962.466 705.785L962.592 707.781ZM982.658 706.518L984.648 706.313L984.861 708.383L982.784 708.514L982.658 706.518ZM975.111 633.16L974.985 631.164L976.904 631.044L977.1 632.956L975.111 633.16ZM955.044 634.423L955.17 636.419L953.252 636.54L953.055 634.628L955.044 634.423ZM941.772 548.365L946.241 548.083L946.492 552.076L942.023 552.357L941.772 548.365ZM948.586 634.909L939.908 550.565L943.887 550.156L952.565 634.5L948.586 634.909ZM930.346 633.973L950.449 632.708L950.701 636.701L930.597 637.966L930.346 633.973ZM936.03 709.532L928.482 636.174L932.461 635.765L940.009 709.122L936.03 709.532ZM958.248 710.058L938.145 711.323L937.894 707.331L957.997 706.066L958.248 710.058ZM964.814 792.643L956.133 708.267L960.112 707.857L968.793 792.233L964.814 792.643ZM971.399 794.153L966.929 794.434L966.678 790.442L971.147 790.161L971.399 794.153ZM964.581 707.576L973.262 791.952L969.283 792.361L960.602 707.985L964.581 707.576ZM982.784 708.514L962.717 709.777L962.466 705.785L982.533 704.522L982.784 708.514ZM977.1 632.956L984.648 706.313L980.669 706.723L973.121 633.365L977.1 632.956ZM954.919 632.427L974.985 631.164L975.236 635.157L955.17 636.419L954.919 632.427ZM948.356 549.875L957.034 634.219L953.055 634.628L944.377 550.284L948.356 549.875Z" fill="black" mask="url(#path-41-outside-18_2033_3)"/>
<mask id="path-43-outside-19_2033_3" maskUnits="userSpaceOnUse" x="936.651" y="572.383" width="195.081" height="335.271" fill="black">
<rect fill="white" x="936.651" y="572.383" width="195.081" height="335.271"/>
<path fill-rule="evenodd" clip-rule="evenodd" d="M1019.89 577.41L1015.42 577.691L1027.07 690.938L1006.99 692.202L1017.12 790.687L1037.2 789.423L1048.86 902.689L1053.33 902.408L1041.67 789.142L1061.76 787.878L1051.63 689.393L1031.54 690.657L1019.89 577.41Z"/>
</mask>
<path fill-rule="evenodd" clip-rule="evenodd" d="M1019.89 577.41L1015.42 577.691L1027.07 690.938L1006.99 692.202L1017.12 790.687L1037.2 789.423L1048.86 902.689L1053.33 902.408L1041.67 789.142L1061.76 787.878L1051.63 689.393L1031.54 690.657L1019.89 577.41Z" fill="#AEFF00"/>
<path d="M1015.42 577.691L1013.43 577.896L1013.22 575.826L1015.3 575.695L1015.42 577.691ZM1019.89 577.41L1019.76 575.414L1021.68 575.293L1021.88 577.205L1019.89 577.41ZM1027.07 690.938L1029.06 690.733L1029.27 692.803L1027.2 692.934L1027.07 690.938ZM1006.99 692.202L1005 692.407L1004.79 690.337L1006.86 690.206L1006.99 692.202ZM1017.12 790.687L1017.25 792.683L1015.33 792.804L1015.13 790.892L1017.12 790.687ZM1037.2 789.423L1037.08 787.427L1039 787.307L1039.19 789.219L1037.2 789.423ZM1048.86 902.689L1048.98 904.686L1047.07 904.806L1046.87 902.894L1048.86 902.689ZM1053.33 902.408L1055.32 902.204L1055.53 904.274L1053.45 904.404L1053.33 902.408ZM1041.67 789.142L1039.68 789.347L1039.47 787.277L1041.55 787.146L1041.67 789.142ZM1061.76 787.878L1063.75 787.673L1063.96 789.743L1061.89 789.874L1061.76 787.878ZM1051.63 689.393L1051.5 687.397L1053.42 687.276L1053.62 689.188L1051.63 689.393ZM1031.54 690.657L1031.67 692.653L1029.75 692.774L1029.55 690.862L1031.54 690.657ZM1015.3 575.695L1019.76 575.414L1020.02 579.406L1015.55 579.687L1015.3 575.695ZM1025.08 691.143L1013.43 577.896L1017.41 577.487L1029.06 690.733L1025.08 691.143ZM1006.86 690.206L1026.95 688.942L1027.2 692.934L1007.11 694.198L1006.86 690.206ZM1015.13 790.892L1005 692.407L1008.98 691.997L1019.11 790.482L1015.13 790.892ZM1037.33 791.419L1017.25 792.683L1017 788.691L1037.08 787.427L1037.33 791.419ZM1046.87 902.894L1035.22 789.628L1039.19 789.219L1050.85 902.485L1046.87 902.894ZM1053.45 904.404L1048.98 904.686L1048.73 900.693L1053.2 900.412L1053.45 904.404ZM1043.66 788.937L1055.32 902.204L1051.34 902.613L1039.68 789.347L1043.66 788.937ZM1061.89 789.874L1041.8 791.138L1041.55 787.146L1061.64 785.882L1061.89 789.874ZM1053.62 689.188L1063.75 787.673L1059.77 788.083L1049.64 689.598L1053.62 689.188ZM1031.42 688.661L1051.5 687.397L1051.75 691.389L1031.67 692.653L1031.42 688.661ZM1021.88 577.205L1033.53 690.452L1029.55 690.862L1017.9 577.615L1021.88 577.205Z" fill="black" mask="url(#path-43-outside-19_2033_3)"/>
<mask id="path-45-outside-20_2033_3" maskUnits="userSpaceOnUse" x="996.731" y="587.47" width="226.056" height="391.408" fill="black">
<rect fill="white" x="996.731" y="587.47" width="226.056" height="391.408"/>
<path fill-rule="evenodd" clip-rule="evenodd" d="M1092.19 592.497L1087.72 592.779L1101.38 725.577L1081.33 726.839L1093.21 842.299L1113.26 841.036L1126.92 973.788L1131.39 973.507L1117.73 840.755L1137.85 839.489L1125.97 724.03L1105.85 725.296L1092.19 592.497Z"/>
</mask>
<path fill-rule="evenodd" clip-rule="evenodd" d="M1092.19 592.497L1087.72 592.779L1101.38 725.577L1081.33 726.839L1093.21 842.299L1113.26 841.036L1126.92 973.788L1131.39 973.507L1117.73 840.755L1137.85 839.489L1125.97 724.03L1105.85 725.296L1092.19 592.497Z" fill="#AEFF00"/>
<path d="M1087.72 592.779L1085.73 592.983L1085.52 590.913L1087.6 590.783L1087.72 592.779ZM1092.19 592.497L1092.07 590.501L1093.98 590.381L1094.18 592.293L1092.19 592.497ZM1101.38 725.577L1103.37 725.373L1103.59 727.443L1101.51 727.573L1101.38 725.577ZM1081.33 726.839L1079.34 727.044L1079.13 724.974L1081.2 724.843L1081.33 726.839ZM1093.21 842.299L1093.33 844.295L1091.42 844.415L1091.22 842.503L1093.21 842.299ZM1113.26 841.036L1113.14 839.04L1115.06 838.92L1115.25 840.832L1113.26 841.036ZM1126.92 973.788L1127.05 975.784L1125.13 975.905L1124.93 973.993L1126.92 973.788ZM1131.39 973.507L1133.38 973.302L1133.59 975.372L1131.52 975.503L1131.39 973.507ZM1117.73 840.755L1115.74 840.96L1115.53 838.89L1117.61 838.759L1117.73 840.755ZM1137.85 839.489L1139.84 839.285L1140.05 841.355L1137.97 841.485L1137.85 839.489ZM1125.97 724.03L1125.84 722.034L1127.76 721.914L1127.96 723.826L1125.97 724.03ZM1105.85 725.296L1105.98 727.292L1104.06 727.413L1103.86 725.501L1105.85 725.296ZM1087.6 590.783L1092.07 590.501L1092.32 594.493L1087.85 594.775L1087.6 590.783ZM1099.4 725.782L1085.73 592.983L1089.71 592.574L1103.37 725.373L1099.4 725.782ZM1081.2 724.843L1101.26 723.581L1101.51 727.573L1081.46 728.836L1081.2 724.843ZM1091.22 842.503L1079.34 727.044L1083.32 726.635L1095.2 842.094L1091.22 842.503ZM1113.39 843.033L1093.33 844.295L1093.08 840.302L1113.14 839.04L1113.39 843.033ZM1124.93 973.993L1111.27 841.241L1115.25 840.832L1128.91 973.584L1124.93 973.993ZM1131.52 975.503L1127.05 975.784L1126.8 971.792L1131.27 971.511L1131.52 975.503ZM1119.72 840.551L1133.38 973.302L1129.4 973.712L1115.74 840.96L1119.72 840.551ZM1137.97 841.485L1117.86 842.751L1117.61 838.759L1137.72 837.493L1137.97 841.485ZM1127.96 723.826L1139.84 839.285L1135.86 839.694L1123.98 724.235L1127.96 723.826ZM1105.73 723.3L1125.84 722.034L1126.09 726.026L1105.98 727.292L1105.73 723.3ZM1094.18 592.293L1107.84 725.091L1103.86 725.501L1090.2 592.702L1094.18 592.293Z" fill="black" mask="url(#path-45-outside-20_2033_3)"/>
<mask id="path-47-outside-21_2033_3" maskUnits="userSpaceOnUse" x="1057.67" y="519.575" width="232.627" height="402.772" fill="black">
<rect fill="white" x="1057.67" y="519.575" width="232.627" height="402.772"/>
<path fill-rule="evenodd" clip-rule="evenodd" d="M1155.95 524.602L1151.48 524.883L1165.55 661.639L1145.44 662.904L1157.68 781.848L1177.78 780.583L1191.86 917.385L1196.33 917.104L1182.25 780.301L1202.31 779.039L1190.08 660.095L1170.02 661.358L1155.95 524.602Z"/>
</mask>
<path fill-rule="evenodd" clip-rule="evenodd" d="M1155.95 524.602L1151.48 524.883L1165.55 661.639L1145.44 662.904L1157.68 781.848L1177.78 780.583L1191.86 917.385L1196.33 917.104L1182.25 780.301L1202.31 779.039L1190.08 660.095L1170.02 661.358L1155.95 524.602Z" fill="#AEFF00"/>
<path d="M1151.48 524.883L1149.49 525.088L1149.27 523.018L1151.35 522.887L1151.48 524.883ZM1155.95 524.602L1155.82 522.606L1157.74 522.485L1157.93 524.397L1155.95 524.602ZM1165.55 661.639L1167.54 661.434L1167.75 663.504L1165.67 663.635L1165.55 661.639ZM1145.44 662.904L1143.45 663.109L1143.24 661.039L1145.31 660.908L1145.44 662.904ZM1157.68 781.848L1157.8 783.844L1155.88 783.965L1155.69 782.053L1157.68 781.848ZM1177.78 780.583L1177.66 778.587L1179.58 778.466L1179.77 780.378L1177.78 780.583ZM1191.86 917.385L1191.98 919.381L1190.07 919.502L1189.87 917.59L1191.86 917.385ZM1196.33 917.104L1198.32 916.899L1198.53 918.969L1196.45 919.1L1196.33 917.104ZM1182.25 780.301L1180.26 780.506L1180.05 778.436L1182.13 778.305L1182.25 780.301ZM1202.31 779.039L1204.3 778.834L1204.52 780.904L1202.44 781.035L1202.31 779.039ZM1190.08 660.095L1189.95 658.099L1191.87 657.978L1192.07 659.89L1190.08 660.095ZM1170.02 661.358L1170.14 663.354L1168.22 663.474L1168.03 661.562L1170.02 661.358ZM1151.35 522.887L1155.82 522.606L1156.07 526.598L1151.6 526.879L1151.35 522.887ZM1163.56 661.844L1149.49 525.088L1153.47 524.678L1167.54 661.434L1163.56 661.844ZM1145.31 660.908L1165.42 659.643L1165.67 663.635L1145.56 664.9L1145.31 660.908ZM1155.69 782.053L1143.45 663.109L1147.43 662.7L1159.67 781.643L1155.69 782.053ZM1177.91 782.579L1157.8 783.844L1157.55 779.852L1177.66 778.587L1177.91 782.579ZM1189.87 917.59L1175.79 780.787L1179.77 780.378L1193.85 917.18L1189.87 917.59ZM1196.45 919.1L1191.98 919.381L1191.73 915.389L1196.2 915.108L1196.45 919.1ZM1184.24 780.097L1198.32 916.899L1194.34 917.308L1180.26 780.506L1184.24 780.097ZM1202.44 781.035L1182.38 782.297L1182.13 778.305L1202.19 777.043L1202.44 781.035ZM1192.07 659.89L1204.3 778.834L1200.33 779.244L1188.09 660.3L1192.07 659.89ZM1169.89 659.362L1189.95 658.099L1190.2 662.091L1170.14 663.354L1169.89 659.362ZM1157.93 524.397L1172 661.153L1168.03 661.562L1153.96 524.807L1157.93 524.397Z" fill="black" mask="url(#path-47-outside-21_2033_3)"/>
<mask id="path-49-outside-22_2033_3" maskUnits="userSpaceOnUse" x="1092.43" y="306.946" width="267.527" height="465.231" fill="black">
<rect fill="white" x="1092.43" y="306.946" width="267.527" height="465.231"/>
<path fill-rule="evenodd" clip-rule="evenodd" d="M1204.81 311.973L1200.34 312.255L1216.64 470.677L1196.55 471.941L1210.72 609.709L1230.81 608.444L1247.11 766.876L1251.58 766.595L1235.28 608.163L1255.36 606.9L1241.18 469.132L1221.11 470.395L1204.81 311.973Z"/>
</mask>
<path fill-rule="evenodd" clip-rule="evenodd" d="M1204.81 311.973L1200.34 312.255L1216.64 470.677L1196.55 471.941L1210.72 609.709L1230.81 608.444L1247.11 766.876L1251.58 766.595L1235.28 608.163L1255.36 606.9L1241.18 469.132L1221.11 470.395L1204.81 311.973Z" fill="#AEFF00"/>
<path d="M1200.34 312.255L1198.35 312.459L1198.14 310.389L1200.21 310.259L1200.34 312.255ZM1204.81 311.973L1204.68 309.977L1206.6 309.857L1206.8 311.769L1204.81 311.973ZM1216.64 470.677L1218.63 470.472L1218.84 472.542L1216.76 472.673L1216.64 470.677ZM1196.55 471.941L1194.56 472.146L1194.34 470.076L1196.42 469.945L1196.55 471.941ZM1210.72 609.709L1210.85 611.705L1208.93 611.825L1208.73 609.913L1210.72 609.709ZM1230.81 608.444L1230.69 606.448L1232.6 606.328L1232.8 608.24L1230.81 608.444ZM1247.11 766.876L1247.24 768.872L1245.32 768.993L1245.12 767.081L1247.11 766.876ZM1251.58 766.595L1253.57 766.39L1253.78 768.46L1251.71 768.591L1251.58 766.595ZM1235.28 608.163L1233.29 608.368L1233.08 606.298L1235.16 606.167L1235.28 608.163ZM1255.36 606.9L1257.35 606.695L1257.56 608.765L1255.48 608.896L1255.36 606.9ZM1241.18 469.132L1241.06 467.136L1242.98 467.015L1243.17 468.927L1241.18 469.132ZM1221.11 470.395L1221.23 472.392L1219.31 472.512L1219.12 470.6L1221.11 470.395ZM1200.21 310.259L1204.68 309.977L1204.93 313.969L1200.46 314.251L1200.21 310.259ZM1214.65 470.881L1198.35 312.459L1202.33 312.05L1218.63 470.472L1214.65 470.881ZM1196.42 469.945L1216.51 468.681L1216.76 472.673L1196.67 473.937L1196.42 469.945ZM1208.73 609.913L1194.56 472.146L1198.54 471.736L1212.71 609.504L1208.73 609.913ZM1230.94 610.44L1210.85 611.705L1210.59 607.713L1230.69 606.448L1230.94 610.44ZM1245.12 767.081L1228.82 608.649L1232.8 608.24L1249.1 766.671L1245.12 767.081ZM1251.71 768.591L1247.24 768.872L1246.99 764.88L1251.46 764.599L1251.71 768.591ZM1237.27 607.958L1253.57 766.39L1249.59 766.799L1233.29 608.368L1237.27 607.958ZM1255.48 608.896L1235.41 610.159L1235.16 606.167L1255.23 604.904L1255.48 608.896ZM1243.17 468.927L1257.35 606.695L1253.37 607.104L1239.2 469.337L1243.17 468.927ZM1220.98 468.399L1241.06 467.136L1241.31 471.128L1221.23 472.392L1220.98 468.399ZM1206.8 311.769L1223.1 470.191L1219.12 470.6L1202.82 312.178L1206.8 311.769Z" fill="black" mask="url(#path-49-outside-22_2033_3)"/>
<mask id="path-51-outside-23_2033_3" maskUnits="userSpaceOnUse" x="1181" y="425.547" width="253.362" height="439.683" fill="black">
<rect fill="white" x="1181" y="425.547" width="253.362" height="439.683"/>
<path fill-rule="evenodd" clip-rule="evenodd" d="M1287.74 430.574L1283.27 430.855L1298.67 580.495L1278.56 581.761L1291.95 711.903L1312.06 710.637L1327.46 860.319L1331.93 860.038L1316.53 710.356L1336.58 709.094L1323.19 578.952L1303.14 580.214L1287.74 430.574Z"/>
</mask>
<path fill-rule="evenodd" clip-rule="evenodd" d="M1287.74 430.574L1283.27 430.855L1298.67 580.495L1278.56 581.761L1291.95 711.903L1312.06 710.637L1327.46 860.319L1331.93 860.038L1316.53 710.356L1336.58 709.094L1323.19 578.952L1303.14 580.214L1287.74 430.574Z" fill="#AEFF00"/>
<path d="M1283.27 430.855L1281.28 431.06L1281.07 428.99L1283.15 428.859L1283.27 430.855ZM1287.74 430.574L1287.62 428.578L1289.54 428.457L1289.73 430.369L1287.74 430.574ZM1298.67 580.495L1300.66 580.29L1300.87 582.36L1298.8 582.491L1298.67 580.495ZM1278.56 581.761L1276.57 581.965L1276.35 579.895L1278.43 579.765L1278.56 581.761ZM1291.95 711.903L1292.07 713.899L1290.15 714.02L1289.96 712.108L1291.95 711.903ZM1312.06 710.637L1311.93 708.641L1313.85 708.521L1314.05 710.433L1312.06 710.637ZM1327.46 860.319L1327.59 862.315L1325.67 862.436L1325.47 860.524L1327.46 860.319ZM1331.93 860.038L1333.92 859.833L1334.13 861.903L1332.05 862.034L1331.93 860.038ZM1316.53 710.356L1314.54 710.561L1314.33 708.491L1316.4 708.36L1316.53 710.356ZM1336.58 709.094L1338.57 708.889L1338.79 710.959L1336.71 711.09L1336.58 709.094ZM1323.19 578.952L1323.07 576.956L1324.99 576.835L1325.18 578.747L1323.19 578.952ZM1303.14 580.214L1303.26 582.21L1301.35 582.331L1301.15 580.418L1303.14 580.214ZM1283.15 428.859L1287.62 428.578L1287.87 432.57L1283.4 432.851L1283.15 428.859ZM1296.68 580.7L1281.28 431.06L1285.26 430.65L1300.66 580.29L1296.68 580.7ZM1278.43 579.765L1298.54 578.499L1298.8 582.491L1278.68 583.757L1278.43 579.765ZM1289.96 712.108L1276.57 581.965L1280.54 581.556L1293.93 711.698L1289.96 712.108ZM1312.18 712.633L1292.07 713.899L1291.82 709.907L1311.93 708.641L1312.18 712.633ZM1325.47 860.524L1310.07 710.842L1314.05 710.433L1329.45 860.115L1325.47 860.524ZM1332.05 862.034L1327.59 862.315L1327.33 858.323L1331.8 858.042L1332.05 862.034ZM1318.52 710.151L1333.92 859.833L1329.94 860.243L1314.54 710.561L1318.52 710.151ZM1336.71 711.09L1316.65 712.352L1316.4 708.36L1336.46 707.098L1336.71 711.09ZM1325.18 578.747L1338.57 708.889L1334.59 709.299L1321.2 579.156L1325.18 578.747ZM1303.01 578.218L1323.07 576.956L1323.32 580.948L1303.26 582.21L1303.01 578.218ZM1289.73 430.369L1305.13 580.009L1301.15 580.418L1285.75 430.778L1289.73 430.369Z" fill="black" mask="url(#path-51-outside-23_2033_3)"/>
<mask id="path-53-outside-24_2033_3" maskUnits="userSpaceOnUse" x="1276.45" y="574.328" width="229.982" height="397.73" fill="black">
<rect fill="white" x="1276.45" y="574.328" width="229.982" height="397.73"/>
<path fill-rule="evenodd" clip-rule="evenodd" d="M1373.79 579.355L1369.32 579.637L1383.22 714.685L1363.13 715.95L1375.21 833.396L1395.3 832.131L1409.2 967.195L1413.67 966.914L1399.77 831.85L1419.85 830.587L1407.76 713.14L1387.69 714.404L1373.79 579.355Z"/>
</mask>
<path fill-rule="evenodd" clip-rule="evenodd" d="M1373.79 579.355L1369.32 579.637L1383.22 714.685L1363.13 715.95L1375.21 833.396L1395.3 832.131L1409.2 967.195L1413.67 966.914L1399.77 831.85L1419.85 830.587L1407.76 713.14L1387.69 714.404L1373.79 579.355Z" fill="#AEFF00"/>
<path d="M1369.32 579.637L1367.33 579.841L1367.12 577.771L1369.2 577.641L1369.32 579.637ZM1373.79 579.355L1373.67 577.359L1375.58 577.239L1375.78 579.151L1373.79 579.355ZM1383.22 714.685L1385.21 714.48L1385.42 716.551L1383.34 716.681L1383.22 714.685ZM1363.13 715.95L1361.14 716.154L1360.92 714.084L1363 713.953L1363.13 715.95ZM1375.21 833.396L1375.33 835.392L1373.42 835.512L1373.22 833.6L1375.21 833.396ZM1395.3 832.131L1395.18 830.135L1397.09 830.014L1397.29 831.927L1395.3 832.131ZM1409.2 967.195L1409.32 969.191L1407.4 969.312L1407.21 967.4L1409.2 967.195ZM1413.67 966.914L1415.66 966.709L1415.87 968.779L1413.79 968.91L1413.67 966.914ZM1399.77 831.85L1397.78 832.055L1397.57 829.985L1399.64 829.854L1399.77 831.85ZM1419.85 830.587L1421.84 830.382L1422.05 832.452L1419.97 832.583L1419.85 830.587ZM1407.76 713.14L1407.64 711.144L1409.56 711.024L1409.75 712.936L1407.76 713.14ZM1387.69 714.404L1387.81 716.4L1385.89 716.521L1385.7 714.609L1387.69 714.404ZM1369.2 577.641L1373.67 577.359L1373.92 581.351L1369.45 581.633L1369.2 577.641ZM1381.23 714.89L1367.33 579.841L1371.31 579.432L1385.21 714.48L1381.23 714.89ZM1363 713.953L1383.09 712.689L1383.34 716.681L1363.25 717.946L1363 713.953ZM1373.22 833.6L1361.14 716.154L1365.11 715.745L1377.2 833.191L1373.22 833.6ZM1395.43 834.127L1375.33 835.392L1375.08 831.4L1395.18 830.135L1395.43 834.127ZM1407.21 967.4L1393.31 832.336L1397.29 831.927L1411.19 966.99L1407.21 967.4ZM1413.79 968.91L1409.32 969.191L1409.07 965.199L1413.54 964.918L1413.79 968.91ZM1401.76 831.645L1415.66 966.709L1411.68 967.118L1397.78 832.055L1401.76 831.645ZM1419.97 832.583L1399.9 833.846L1399.64 829.854L1419.72 828.59L1419.97 832.583ZM1409.75 712.936L1421.84 830.382L1417.86 830.791L1405.77 713.345L1409.75 712.936ZM1387.56 712.408L1407.64 711.144L1407.89 715.137L1387.81 716.4L1387.56 712.408ZM1375.78 579.151L1389.68 714.199L1385.7 714.609L1371.8 579.56L1375.78 579.151Z" fill="black" mask="url(#path-53-outside-24_2033_3)"/>
<mask id="path-55-outside-25_2033_3" maskUnits="userSpaceOnUse" x="1430.3" y="847.504" width="89.0644" height="99.2492" fill="black">
<rect fill="white" x="1430.3" y="847.504" width="89.0644" height="99.2492"/>
<path d="M1449.26 865.982L1493.9 863.173L1500.62 928.503L1455.98 931.312L1449.26 865.982Z"/>
</mask>
<path d="M1449.26 865.982L1493.9 863.173L1500.62 928.503L1455.98 931.312L1449.26 865.982Z" fill="#AEFF00"/>
<path d="M1493.9 863.173L1493.77 861.177L1495.69 861.056L1495.89 862.968L1493.9 863.173ZM1449.26 865.982L1447.27 866.187L1447.05 864.117L1449.13 863.986L1449.26 865.982ZM1455.98 931.312L1456.1 933.309L1454.19 933.429L1453.99 931.517L1455.98 931.312ZM1500.62 928.503L1502.61 928.299L1502.82 930.369L1500.74 930.499L1500.62 928.503ZM1494.02 865.169L1449.38 867.978L1449.13 863.986L1493.77 861.177L1494.02 865.169ZM1451.25 865.777L1457.97 931.108L1453.99 931.517L1447.27 866.187L1451.25 865.777ZM1455.85 929.316L1500.49 926.507L1500.74 930.499L1456.1 933.309L1455.85 929.316ZM1498.63 928.708L1491.91 863.378L1495.89 862.968L1502.61 928.299L1498.63 928.708Z" fill="black" mask="url(#path-55-outside-25_2033_3)"/>
<mask id="path-57-outside-26_2033_3" maskUnits="userSpaceOnUse" x="1424.92" y="536.814" width="197.35" height="292.009" fill="black">
<rect fill="white" x="1424.92" y="536.814" width="197.35" height="292.009"/>
<path d="M1488.06 555.292L1532.7 552.483L1559.21 810.115L1514.57 812.924L1488.06 555.292Z"/>
</mask>
<path d="M1488.06 555.292L1532.7 552.483L1559.21 810.115L1514.57 812.924L1488.06 555.292Z" fill="#AEFF00"/>
<path d="M1532.7 552.483L1532.58 550.487L1534.49 550.366L1534.69 552.278L1532.7 552.483ZM1488.06 555.292L1486.07 555.497L1485.86 553.427L1487.94 553.296L1488.06 555.292ZM1514.57 812.924L1514.69 814.92L1512.78 815.041L1512.58 813.128L1514.57 812.924ZM1559.21 810.115L1561.2 809.91L1561.41 811.98L1559.33 812.111L1559.21 810.115ZM1532.83 554.479L1488.19 557.288L1487.94 553.296L1532.58 550.487L1532.83 554.479ZM1490.05 555.087L1516.56 812.719L1512.58 813.128L1486.07 555.497L1490.05 555.087ZM1514.44 810.928L1559.08 808.119L1559.33 812.111L1514.69 814.92L1514.44 810.928ZM1557.22 810.319L1530.71 552.688L1534.69 552.278L1561.2 809.91L1557.22 810.319Z" fill="black" mask="url(#path-57-outside-26_2033_3)"/>
<mask id="path-59-outside-27_2033_3" maskUnits="userSpaceOnUse" x="1333.45" y="-2.10717" width="464.985" height="816.06" fill="black">
<rect fill="white" x="1333.45" y="-2.10717" width="464.985" height="816.06"/>
<path fill-rule="evenodd" clip-rule="evenodd" d="M1526.68 2.92002L1522.21 3.20127L1551.08 283.857L1531 285.12L1556.11 529.175L1576.19 527.911L1605.07 808.585L1609.54 808.304L1580.66 527.63L1600.75 526.366L1575.64 282.311L1555.55 283.575L1526.68 2.92002Z"/>
</mask>
<path fill-rule="evenodd" clip-rule="evenodd" d="M1526.68 2.92002L1522.21 3.20127L1551.08 283.857L1531 285.12L1556.11 529.175L1576.19 527.911L1605.07 808.585L1609.54 808.304L1580.66 527.63L1600.75 526.366L1575.64 282.311L1555.55 283.575L1526.68 2.92002Z" fill="#AEFF00"/>
<path d="M1522.21 3.20127L1520.22 3.40597L1520 1.33592L1522.08 1.20522L1522.21 3.20127ZM1526.68 2.92002L1526.55 0.923971L1528.47 0.803251L1528.67 2.71533L1526.68 2.92002ZM1551.08 283.857L1553.07 283.652L1553.29 285.722L1551.21 285.853L1551.08 283.857ZM1531 285.12L1529.01 285.325L1528.8 283.255L1530.87 283.124L1531 285.12ZM1556.11 529.175L1556.24 531.171L1554.32 531.292L1554.12 529.38L1556.11 529.175ZM1576.19 527.911L1576.07 525.915L1577.99 525.794L1578.18 527.706L1576.19 527.911ZM1605.07 808.585L1605.2 810.581L1603.28 810.702L1603.08 808.79L1605.07 808.585ZM1609.54 808.304L1611.53 808.099L1611.74 810.169L1609.67 810.3L1609.54 808.304ZM1580.66 527.63L1578.67 527.835L1578.46 525.764L1580.54 525.634L1580.66 527.63ZM1600.75 526.366L1602.74 526.161L1602.95 528.231L1600.87 528.362L1600.75 526.366ZM1575.64 282.311L1575.51 280.315L1577.43 280.194L1577.63 282.107L1575.64 282.311ZM1555.55 283.575L1555.68 285.571L1553.76 285.692L1553.56 283.78L1555.55 283.575ZM1522.08 1.20522L1526.55 0.923971L1526.8 4.91607L1522.33 5.19733L1522.08 1.20522ZM1549.09 284.061L1520.22 3.40597L1524.2 2.99658L1553.07 283.652L1549.09 284.061ZM1530.87 283.124L1550.96 281.86L1551.21 285.853L1531.13 287.116L1530.87 283.124ZM1554.12 529.38L1529.01 285.325L1532.99 284.916L1558.1 528.97L1554.12 529.38ZM1576.32 529.907L1556.24 531.171L1555.98 527.179L1576.07 525.915L1576.32 529.907ZM1603.08 808.79L1574.2 528.116L1578.18 527.706L1607.06 808.38L1603.08 808.79ZM1609.67 810.3L1605.2 810.581L1604.94 806.589L1609.41 806.308L1609.67 810.3ZM1582.65 527.425L1611.53 808.099L1607.55 808.509L1578.67 527.835L1582.65 527.425ZM1600.87 528.362L1580.79 529.626L1580.54 525.634L1600.62 524.37L1600.87 528.362ZM1577.63 282.107L1602.74 526.161L1598.76 526.571L1573.65 282.516L1577.63 282.107ZM1555.43 281.579L1575.51 280.315L1575.76 284.307L1555.68 285.571L1555.43 281.579ZM1528.67 2.71533L1557.54 283.371L1553.56 283.78L1524.69 3.12472L1528.67 2.71533Z" fill="black" mask="url(#path-59-outside-27_2033_3)"/>
<mask id="path-61-outside-28_2033_3" maskUnits="userSpaceOnUse" x="1565.69" y="201.214" width="118.977" height="188.473" fill="black">
<rect fill="white" x="1565.69" y="201.214" width="118.977" height="188.473"/>
<path fill-rule="evenodd" clip-rule="evenodd" d="M1618.49 207.735L1614.02 208.017L1620.27 268.787L1600.09 270.057L1605.54 322.955L1625.71 321.686L1631.98 382.59L1636.45 382.309L1630.18 321.405L1650.18 320.146L1644.73 267.248L1624.74 268.506L1618.49 207.735Z"/>
</mask>
<path fill-rule="evenodd" clip-rule="evenodd" d="M1618.49 207.735L1614.02 208.017L1620.27 268.787L1600.09 270.057L1605.54 322.955L1625.71 321.686L1631.98 382.59L1636.45 382.309L1630.18 321.405L1650.18 320.146L1644.73 267.248L1624.74 268.506L1618.49 207.735Z" fill="#AEFF00"/>
<path d="M1614.02 208.017L1612.03 208.221L1611.81 206.151L1613.89 206.021L1614.02 208.017ZM1618.49 207.735L1618.36 205.739L1620.28 205.619L1620.47 207.531L1618.49 207.735ZM1620.27 268.787L1622.26 268.582L1622.47 270.652L1620.39 270.783L1620.27 268.787ZM1600.09 270.057L1598.11 270.261L1597.89 268.191L1599.97 268.061L1600.09 270.057ZM1605.54 322.955L1605.66 324.951L1603.74 325.072L1603.55 323.16L1605.54 322.955ZM1625.71 321.686L1625.59 319.69L1627.5 319.569L1627.7 321.481L1625.71 321.686ZM1631.98 382.59L1632.1 384.586L1630.18 384.707L1629.99 382.795L1631.98 382.59ZM1636.45 382.309L1638.44 382.104L1638.65 384.174L1636.57 384.305L1636.45 382.309ZM1630.18 321.405L1628.19 321.609L1627.98 319.539L1630.05 319.409L1630.18 321.405ZM1650.18 320.146L1652.17 319.942L1652.38 322.012L1650.3 322.142L1650.18 320.146ZM1644.73 267.248L1644.61 265.252L1646.53 265.131L1646.72 267.043L1644.73 267.248ZM1624.74 268.506L1624.86 270.502L1622.94 270.623L1622.75 268.711L1624.74 268.506ZM1613.89 206.021L1618.36 205.739L1618.61 209.731L1614.14 210.013L1613.89 206.021ZM1618.28 268.992L1612.03 208.221L1616.01 207.812L1622.26 268.582L1618.28 268.992ZM1599.97 268.061L1620.14 266.791L1620.39 270.783L1600.22 272.053L1599.97 268.061ZM1603.55 323.16L1598.11 270.261L1602.08 269.852L1607.53 322.751L1603.55 323.16ZM1625.84 323.682L1605.66 324.951L1605.41 320.959L1625.59 319.69L1625.84 323.682ZM1629.99 382.795L1623.72 321.891L1627.7 321.481L1633.97 382.385L1629.99 382.795ZM1636.57 384.305L1632.1 384.586L1631.85 380.594L1636.32 380.313L1636.57 384.305ZM1632.17 321.2L1638.44 382.104L1634.46 382.514L1628.19 321.609L1632.17 321.2ZM1650.3 322.142L1630.31 323.401L1630.05 319.409L1650.05 318.15L1650.3 322.142ZM1646.72 267.043L1652.17 319.942L1648.19 320.351L1642.74 267.452L1646.72 267.043ZM1624.61 266.51L1644.61 265.252L1644.86 269.244L1624.86 270.502L1624.61 266.51ZM1620.47 207.531L1626.73 268.301L1622.75 268.711L1616.5 207.94L1620.47 207.531Z" fill="black" mask="url(#path-61-outside-28_2033_3)"/>
<mask id="path-63-outside-29_2033_3" maskUnits="userSpaceOnUse" x="1593.77" y="166.325" width="217.181" height="375.943" fill="black">
<rect fill="white" x="1593.77" y="166.325" width="217.181" height="375.943"/>
<path fill-rule="evenodd" clip-rule="evenodd" d="M1685.47 171.352L1681 171.633L1694.11 298.988L1674.02 300.253L1685.41 410.993L1705.5 409.729L1718.6 537.079L1723.07 536.797L1709.97 409.448L1730.05 408.184L1718.65 297.443L1698.58 298.707L1685.47 171.352Z"/>
</mask>
<path fill-rule="evenodd" clip-rule="evenodd" d="M1685.47 171.352L1681 171.633L1694.11 298.988L1674.02 300.253L1685.41 410.993L1705.5 409.729L1718.6 537.079L1723.07 536.797L1709.97 409.448L1730.05 408.184L1718.65 297.443L1698.58 298.707L1685.47 171.352Z" fill="#AEFF00"/>
<path d="M1681 171.633L1679.01 171.838L1678.8 169.768L1680.88 169.637L1681 171.633ZM1685.47 171.352L1685.35 169.356L1687.27 169.235L1687.46 171.147L1685.47 171.352ZM1694.11 298.988L1696.1 298.784L1696.31 300.854L1694.23 300.984L1694.11 298.988ZM1674.02 300.253L1672.03 300.457L1671.81 298.387L1673.89 298.256L1674.02 300.253ZM1685.41 410.993L1685.53 412.989L1683.62 413.11L1683.42 411.198L1685.41 410.993ZM1705.5 409.729L1705.37 407.733L1707.29 407.612L1707.49 409.524L1705.5 409.729ZM1718.6 537.079L1718.73 539.075L1716.81 539.196L1716.61 537.283L1718.6 537.079ZM1723.07 536.797L1725.06 536.593L1725.27 538.663L1723.2 538.794L1723.07 536.797ZM1709.97 409.448L1707.98 409.652L1707.77 407.582L1709.84 407.452L1709.97 409.448ZM1730.05 408.184L1732.04 407.98L1732.25 410.05L1730.17 410.18L1730.05 408.184ZM1718.65 297.443L1718.53 295.447L1720.45 295.327L1720.64 297.239L1718.65 297.443ZM1698.58 298.707L1698.7 300.703L1696.78 300.824L1696.59 298.912L1698.58 298.707ZM1680.88 169.637L1685.35 169.356L1685.6 173.348L1681.13 173.629L1680.88 169.637ZM1692.12 299.193L1679.01 171.838L1682.99 171.429L1696.1 298.784L1692.12 299.193ZM1673.89 298.256L1693.98 296.992L1694.23 300.984L1674.14 302.249L1673.89 298.256ZM1683.42 411.198L1672.03 300.457L1676.01 300.048L1687.4 410.789L1683.42 411.198ZM1705.63 411.725L1685.53 412.989L1685.28 408.997L1705.37 407.733L1705.63 411.725ZM1716.61 537.283L1703.51 409.934L1707.49 409.524L1720.59 536.874L1716.61 537.283ZM1723.2 538.794L1718.73 539.075L1718.48 535.083L1722.95 534.801L1723.2 538.794ZM1711.96 409.243L1725.06 536.593L1721.08 537.002L1707.98 409.652L1711.96 409.243ZM1730.17 410.18L1710.1 411.444L1709.84 407.452L1729.92 406.188L1730.17 410.18ZM1720.64 297.239L1732.04 407.98L1728.06 408.389L1716.67 297.648L1720.64 297.239ZM1698.45 296.711L1718.53 295.447L1718.78 299.44L1698.7 300.703L1698.45 296.711ZM1687.46 171.147L1700.57 298.502L1696.59 298.912L1683.48 171.557L1687.46 171.147Z" fill="black" mask="url(#path-63-outside-29_2033_3)"/>
<mask id="path-65-outside-30_2033_3" maskUnits="userSpaceOnUse" x="1647.64" y="102.763" width="242.183" height="420.117" fill="black">
<rect fill="white" x="1647.64" y="102.763" width="242.183" height="420.117"/>
<path fill-rule="evenodd" clip-rule="evenodd" d="M1749.68 107.79L1745.21 108.072L1759.9 250.828L1739.79 252.093L1752.57 376.234L1772.67 374.969L1787.36 517.743L1791.83 517.462L1777.14 374.688L1797.21 373.425L1784.43 249.284L1764.37 250.546L1749.68 107.79Z"/>
</mask>
<path fill-rule="evenodd" clip-rule="evenodd" d="M1749.68 107.79L1745.21 108.072L1759.9 250.828L1739.79 252.093L1752.57 376.234L1772.67 374.969L1787.36 517.743L1791.83 517.462L1777.14 374.688L1797.21 373.425L1784.43 249.284L1764.37 250.546L1749.68 107.79Z" fill="#AEFF00"/>
<path d="M1745.21 108.072L1743.22 108.276L1743.01 106.206L1745.08 106.075L1745.21 108.072ZM1749.68 107.79L1749.55 105.794L1751.47 105.673L1751.67 107.586L1749.68 107.79ZM1759.9 250.828L1761.89 250.623L1762.1 252.693L1760.02 252.824L1759.9 250.828ZM1739.79 252.093L1737.8 252.297L1737.59 250.227L1739.67 250.097L1739.79 252.093ZM1752.57 376.234L1752.69 378.23L1750.77 378.351L1750.58 376.439L1752.57 376.234ZM1772.67 374.969L1772.54 372.973L1774.46 372.852L1774.66 374.765L1772.67 374.969ZM1787.36 517.743L1787.48 519.739L1785.57 519.86L1785.37 517.948L1787.36 517.743ZM1791.83 517.462L1793.82 517.257L1794.03 519.327L1791.95 519.458L1791.83 517.462ZM1777.14 374.688L1775.15 374.893L1774.94 372.823L1777.01 372.692L1777.14 374.688ZM1797.21 373.425L1799.19 373.221L1799.41 375.291L1797.33 375.421L1797.21 373.425ZM1784.43 249.284L1784.31 247.288L1786.23 247.167L1786.42 249.079L1784.43 249.284ZM1764.37 250.546L1764.49 252.543L1762.57 252.663L1762.38 250.751L1764.37 250.546ZM1745.08 106.075L1749.55 105.794L1749.8 109.786L1745.33 110.068L1745.08 106.075ZM1757.91 251.032L1743.22 108.276L1747.2 107.867L1761.89 250.623L1757.91 251.032ZM1739.67 250.097L1759.77 248.832L1760.02 252.824L1739.92 254.089L1739.67 250.097ZM1750.58 376.439L1737.8 252.297L1741.78 251.888L1754.56 376.03L1750.58 376.439ZM1772.79 376.965L1752.69 378.23L1752.44 374.238L1772.54 372.973L1772.79 376.965ZM1785.37 517.948L1770.68 375.174L1774.66 374.765L1789.35 517.538L1785.37 517.948ZM1791.95 519.458L1787.48 519.739L1787.23 515.747L1791.7 515.466L1791.95 519.458ZM1779.13 374.483L1793.82 517.257L1789.84 517.666L1775.15 374.893L1779.13 374.483ZM1797.33 375.421L1777.26 376.684L1777.01 372.692L1797.08 371.429L1797.33 375.421ZM1786.42 249.079L1799.19 373.221L1795.22 373.63L1782.44 249.488L1786.42 249.079ZM1764.24 248.55L1784.31 247.288L1784.56 251.28L1764.49 252.543L1764.24 248.55ZM1751.67 107.586L1766.36 250.342L1762.38 250.751L1747.69 107.995L1751.67 107.586Z" fill="black" mask="url(#path-65-outside-30_2033_3)"/>
<mask id="path-67-outside-31_2033_3" maskUnits="userSpaceOnUse" x="1767.23" y="99.0125" width="119.659" height="190.353" fill="black">
<rect fill="white" x="1767.23" y="99.0125" width="119.659" height="190.353"/>
<path fill-rule="evenodd" clip-rule="evenodd" d="M1820.17 105.483L1815.7 105.764L1822.04 167.4L1801.93 168.666L1807.44 222.269L1827.55 221.004L1833.9 282.668L1838.37 282.386L1832.02 220.723L1852.08 219.46L1846.57 165.857L1826.51 167.119L1820.17 105.483Z"/>
</mask>
<path fill-rule="evenodd" clip-rule="evenodd" d="M1820.17 105.483L1815.7 105.764L1822.04 167.4L1801.93 168.666L1807.44 222.269L1827.55 221.004L1833.9 282.668L1838.37 282.386L1832.02 220.723L1852.08 219.46L1846.57 165.857L1826.51 167.119L1820.17 105.483Z" fill="#AEFF00"/>
<path d="M1815.7 105.764L1813.71 105.969L1813.49 103.899L1815.57 103.768L1815.7 105.764ZM1820.17 105.483L1820.04 103.487L1821.96 103.366L1822.15 105.278L1820.17 105.483ZM1822.04 167.4L1824.03 167.196L1824.24 169.266L1822.16 169.396L1822.04 167.4ZM1801.93 168.666L1799.94 168.87L1799.72 166.8L1801.8 166.67L1801.93 168.666ZM1807.44 222.269L1807.57 224.265L1805.65 224.386L1805.45 222.474L1807.44 222.269ZM1827.55 221.004L1827.43 219.008L1829.35 218.887L1829.54 220.799L1827.55 221.004ZM1833.9 282.668L1834.02 284.664L1832.1 284.784L1831.91 282.872L1833.9 282.668ZM1838.37 282.386L1840.36 282.182L1840.57 284.252L1838.49 284.382L1838.37 282.386ZM1832.02 220.723L1830.03 220.927L1829.82 218.857L1831.9 218.726L1832.02 220.723ZM1852.08 219.46L1854.07 219.256L1854.28 221.326L1852.21 221.456L1852.08 219.46ZM1846.57 165.857L1846.44 163.861L1848.36 163.74L1848.56 165.652L1846.57 165.857ZM1826.51 167.119L1826.63 169.115L1824.71 169.236L1824.52 167.324L1826.51 167.119ZM1815.57 103.768L1820.04 103.487L1820.29 107.479L1815.82 107.76L1815.57 103.768ZM1820.05 167.605L1813.71 105.969L1817.69 105.56L1824.03 167.196L1820.05 167.605ZM1801.8 166.67L1821.91 165.404L1822.16 169.396L1802.05 170.662L1801.8 166.67ZM1805.45 222.474L1799.94 168.87L1803.92 168.461L1809.43 222.065L1805.45 222.474ZM1827.68 223L1807.57 224.265L1807.32 220.273L1827.43 219.008L1827.68 223ZM1831.91 282.872L1825.56 221.208L1829.54 220.799L1835.89 282.463L1831.91 282.872ZM1838.49 284.382L1834.02 284.664L1833.77 280.672L1838.24 280.39L1838.49 284.382ZM1834.01 220.518L1840.36 282.182L1836.38 282.591L1830.03 220.927L1834.01 220.518ZM1852.21 221.456L1832.15 222.719L1831.9 218.726L1851.96 217.464L1852.21 221.456ZM1848.56 165.652L1854.07 219.256L1850.09 219.665L1844.58 166.061L1848.56 165.652ZM1826.38 165.123L1846.44 163.861L1846.69 167.853L1826.63 169.115L1826.38 165.123ZM1822.15 105.278L1828.5 166.914L1824.52 167.324L1818.18 105.688L1822.15 105.278Z" fill="black" mask="url(#path-67-outside-31_2033_3)"/>
<mask id="path-69-outside-32_2033_3" maskUnits="userSpaceOnUse" x="1819.62" y="143.644" width="176.991" height="303.401" fill="black">
<rect fill="white" x="1819.62" y="143.644" width="176.991" height="303.401"/>
<path fill-rule="evenodd" clip-rule="evenodd" d="M1895.34 148.671L1890.87 148.953L1901.39 251.171L1881.32 252.434L1890.46 341.306L1910.53 340.044L1921.04 442.245L1925.51 441.963L1915 339.762L1935.1 338.497L1925.96 249.625L1905.85 250.89L1895.34 148.671Z"/>
</mask>
<path fill-rule="evenodd" clip-rule="evenodd" d="M1895.34 148.671L1890.87 148.953L1901.39 251.171L1881.32 252.434L1890.46 341.306L1910.53 340.044L1921.04 442.245L1925.51 441.963L1915 339.762L1935.1 338.497L1925.96 249.625L1905.85 250.89L1895.34 148.671Z" fill="#AEFF00"/>
<path d="M1890.87 148.953L1888.88 149.157L1888.67 147.087L1890.74 146.956L1890.87 148.953ZM1895.34 148.671L1895.21 146.675L1897.13 146.554L1897.33 148.467L1895.34 148.671ZM1901.39 251.171L1903.37 250.966L1903.59 253.037L1901.51 253.167L1901.39 251.171ZM1881.32 252.434L1879.33 252.639L1879.12 250.569L1881.19 250.438L1881.32 252.434ZM1890.46 341.306L1890.59 343.302L1888.67 343.423L1888.47 341.511L1890.46 341.306ZM1910.53 340.044L1910.4 338.048L1912.32 337.927L1912.52 339.839L1910.53 340.044ZM1921.04 442.245L1921.17 444.241L1919.25 444.361L1919.05 442.449L1921.04 442.245ZM1925.51 441.963L1927.5 441.759L1927.72 443.829L1925.64 443.959L1925.51 441.963ZM1915 339.762L1913.01 339.967L1912.8 337.897L1914.87 337.766L1915 339.762ZM1935.1 338.497L1937.09 338.293L1937.3 340.363L1935.23 340.493L1935.1 338.497ZM1925.96 249.625L1925.83 247.629L1927.75 247.508L1927.95 249.42L1925.96 249.625ZM1905.85 250.89L1905.98 252.886L1904.06 253.007L1903.87 251.095L1905.85 250.89ZM1890.74 146.956L1895.21 146.675L1895.46 150.667L1890.99 150.949L1890.74 146.956ZM1899.4 251.376L1888.88 149.157L1892.86 148.748L1903.37 250.966L1899.4 251.376ZM1881.19 250.438L1901.26 249.175L1901.51 253.167L1881.44 254.43L1881.19 250.438ZM1888.47 341.511L1879.33 252.639L1883.31 252.229L1892.45 341.102L1888.47 341.511ZM1910.65 342.04L1890.59 343.302L1890.34 339.31L1910.4 338.048L1910.65 342.04ZM1919.05 442.449L1908.54 340.248L1912.52 339.839L1923.03 442.04L1919.05 442.449ZM1925.64 443.959L1921.17 444.241L1920.92 440.249L1925.39 439.967L1925.64 443.959ZM1916.99 339.558L1927.5 441.759L1923.52 442.168L1913.01 339.967L1916.99 339.558ZM1935.23 340.493L1915.12 341.758L1914.87 337.766L1934.98 336.501L1935.23 340.493ZM1927.95 249.42L1937.09 338.293L1933.11 338.702L1923.97 249.83L1927.95 249.42ZM1905.73 248.894L1925.83 247.629L1926.08 251.621L1905.98 252.886L1905.73 248.894ZM1897.33 148.467L1907.84 250.685L1903.87 251.095L1893.35 148.876L1897.33 148.467Z" fill="black" mask="url(#path-69-outside-32_2033_3)"/>
<defs>
<filter id="filter0_d_2033_3" x="-1037.42" y="288.292" width="4028.42" height="571.497" filterUnits="userSpaceOnUse" color-interpolation-filters="sRGB">
<feFlood flood-opacity="0" result="BackgroundImageFix"/>
<feColorMatrix in="SourceAlpha" type="matrix" values="0 0 0 0 0 0 0 0 0 0 0 0 0 0 0 0 0 0 127 0" result="hardAlpha"/>
<feOffset dy="30"/>
<feComposite in2="hardAlpha" operator="out"/>
<feColorMatrix type="matrix" values="0 0 0 0 0 0 0 0 0 0 0 0 0 0 0 0 0 0 0.09 0"/>
<feBlend mode="normal" in2="BackgroundImageFix" result="effect1_dropShadow_2033_3"/>
<feBlend mode="normal" in="SourceGraphic" in2="effect1_dropShadow_2033_3" result="shape"/>
</filter>
</defs>
</svg>
