<svg width="1920" height="501" viewBox="0 0 1920 501" fill="none" xmlns="http://www.w3.org/2000/svg">
<path d="M2100.3 93.6659C2156.96 62.6133 2215.96 73.5552 2238.43 82.8619L2257.5 341.634L-431 330.057L-386.737 56.9847C-307.743 22.1187 -258.322 67.8804 -243.486 95.1195C-209.07 70.7494 -172.045 83.3924 -155.324 95.1195C-111.417 55.8201 -68.7881 53.5005 -42.8428 61.7516C-9.06616 -3.07751 37.9668 8.40829 57.261 22.2549C137.344 -21.3277 212.751 15.4451 240.444 39.2793C312.9 17.488 364.155 51.5369 380.726 71.2853C407.965 53.3075 437.474 60.6166 448.823 66.5184C481.51 18.5776 534.173 35.3018 556.418 49.6565C587.471 14.9203 632.006 28.265 650.393 39.2793C717.946 11.4954 760.257 34.6208 772.969 49.6565C801.738 42.9898 819.868 57.1966 824.723 66.5184C856.321 20.2119 911.434 30.8806 935.042 42.0032C976.445 9.86105 1003.14 33.1505 1011.31 48.813C1023.47 50.4127 1030.93 56.3593 1035.17 62.4326C1089.65 53.1713 1119.36 79.003 1127.08 93.0766C1184.82 53.8522 1251.47 76.7331 1277.57 93.0766C1287.38 67.4718 1319.34 69.6963 1334.09 74.0092C1368.96 47.8596 1418.08 55.3958 1438.28 62.4326C1446.02 54.6997 1453.81 54.2082 1459.93 56.2244C1493.16 12.6418 1556.09 34.7395 1583.33 51.5369C1644.34 44.6682 1683.65 57.3526 1704.43 70.1988C1735.48 65.2957 1775.37 76.2791 1791.03 82.8619C1812.37 74.9172 1864.71 61.0706 1903.39 69.2423C1928.25 74.4939 1942.63 84.714 1950.21 93.7576C1966.01 93.7576 1980.57 96.9355 1985.79 98.5244C2029.44 87.1229 2069.91 88.4639 2100.3 93.6659Z" fill="white"/>
<path d="M2238.43 82.8621C2215.96 73.5554 2156.85 62.7052 2100.2 93.7578M2145.82 106.696C2122.89 96.0277 2058.79 79.4572 1985.79 98.5246C1980.57 96.9356 1966.18 93.7578 1950.38 93.7578M2209.15 125.764C2193.26 118.727 2150.32 110.51 2105.64 133.935M1957.19 106.696C1955.37 97.6166 1942.07 77.4143 1903.39 69.2426C1864.71 61.0708 1812.37 74.9174 1791.03 82.8621C1775.37 76.2793 1736.28 64.3395 1705.23 69.2426M1719.53 82.8621C1708.41 68.5616 1665.59 42.2758 1583.33 51.5371C1556.09 34.7397 1493.31 12.0404 1460.08 55.623M1469.61 62.4328C1464.62 56.985 1451.36 49.358 1438.28 62.4328C1418.08 55.396 1368.96 47.8598 1334.09 74.0094C1319.34 69.6965 1287.38 67.472 1277.57 93.0768C1251.47 76.7333 1184.82 53.8525 1127.08 93.0768C1119.36 79.0032 1090.3 53.1715 1035.83 62.4328M1039.91 74.0094C1039 66.7456 1032.01 51.5371 1011.31 48.8132C1003.14 33.1507 976.445 9.86126 935.042 42.0034C911.434 30.8808 856.321 20.2121 824.723 66.5186M822.68 66.5186C817.825 57.1968 801.738 42.99 772.969 49.6567M757.306 54.942C762.893 52.5026 768.112 50.7822 772.969 49.6567M772.969 49.6567C760.257 34.621 717.946 11.4956 650.393 39.2795C632.006 28.2652 587.47 14.9206 556.418 49.6567C534.173 35.302 481.51 18.5778 448.823 66.5186C437.474 60.6168 407.965 53.3077 380.725 71.2855C364.155 51.5371 312.9 17.4882 240.444 39.2795C212.751 15.4453 137.344 -21.3275 57.261 22.2551C37.9666 8.40851 -9.06651 -3.0773 -42.843 61.7518M-26.4995 71.2855C-47.3227 57.4721 -99.7548 45.3815 -155.325 95.1197M-172.229 112.144C-166.582 105.797 -160.937 100.143 -155.325 95.1197M-155.325 95.1197C-172.045 83.3926 -209.07 70.7496 -243.486 95.1197M-265.523 116.911C-258.464 107.598 -251.038 100.468 -243.486 95.1197M-243.486 95.1197C-258.322 67.8806 -307.743 22.1189 -386.737 56.985M2045.04 155.727C2027.78 136.659 1977.62 106.424 1914.97 138.021M1895.22 211.567C1891.76 206.519 1886.74 200.82 1880.22 195.223M1734.51 180.923C1804.21 152.171 1854.17 172.886 1880.22 195.223M1814.87 98.5246C1806.24 93.3038 1782.04 85.9946 1754.26 98.5246M1627.86 120.316C1601.3 103.291 1533.75 77.8229 1476 112.144C1464.88 105.334 1435.82 95.8007 1408.58 112.144M1167.94 113.506C1152.05 100.568 1111.55 80.2744 1076.69 102.61M822.68 113.506C813.146 103.064 786.725 83.2707 757.306 87.629M560.504 107.377C525.774 93.9848 441.196 81.364 380.725 138.021M117.868 103.291C92.1958 101.443 37.6101 105.281 6.86841 132.659M-1.98413 142.107C0.661638 138.683 3.63287 135.541 6.86841 132.659M6.86841 132.659C-31.7203 118.33 -120.611 102.202 -167.462 152.322M-129.327 185.69C-159.744 163.218 -240.327 135.57 -319.32 204.757M83.1379 243.573C70.1994 231.088 30.1579 209.115 -26.4995 221.101M270.501 113.506C252.115 106.242 205.808 98.3884 167.673 125.083M1053.5 112.144C1016.27 102.61 948.501 102.61 895.501 130M1880.22 195.223C1892.25 188.641 1926 176.565 1964.68 180.923M1734.51 326.5C1749.27 315.833 1790.42 295.8 1837 301C1841.83 293.5 1854.7 278.4 1867.5 278M1728 363.5C1754.17 357.666 1812.6 356.5 1837 398.5M1811 483.5C1816.5 480 1831.5 473.6 1847.5 476M1021.5 469C973.1 461.4 939 482.833 928 494.5C917 484.166 880.7 464.6 823.5 469M8 448C21 437.166 59.8 419.3 111 434.5C115.333 426.166 128 409.4 144 409M38 332C61.1667 324 114.8 314.7 144 341.5M1511.5 499.5C1531.17 491.666 1582.8 476 1632 476M1130.5 499C1140.83 493.166 1169.4 482.6 1201 487M429 438C437.833 428.333 465.3 410.1 504.5 414.5" stroke="black" stroke-width="3" stroke-linecap="round"/>
</svg>
